{"glyphs":{"0":{"ha":899,"x_min":69,"x_max":829,"o":"m 450 -14 q 231 40 315 -14 q 108 196 147 94 q 69 436 69 297 q 106 692 69 586 q 225 853 142 797 q 450 908 308 908 q 674 853 590 908 q 793 692 757 797 q 829 436 829 586 q 791 196 829 297 q 669 40 753 94 q 450 -14 586 -14 m 450 83 q 606 127 549 83 q 690 251 664 171 q 715 436 715 331 q 658 715 715 618 q 450 811 600 811 q 292 768 350 811 q 208 641 233 725 q 183 436 183 557 q 209 251 183 331 q 294 127 235 171 q 450 83 353 83 z "},"1":{"ha":422,"x_min":69,"x_max":325,"o":"m 211 0 l 211 797 l 69 772 l 69 868 l 325 908 l 325 0 l 211 0 z "},"2":{"ha":703,"x_min":69,"x_max":633,"o":"m 69 0 l 69 61 q 172 221 106 149 q 315 357 239 293 q 434 465 392 421 q 493 549 476 508 q 510 646 510 590 q 468 769 510 726 q 313 811 426 811 q 207 801 261 811 q 104 771 153 790 l 104 872 q 211 898 149 888 q 331 908 274 908 q 549 838 475 908 q 624 646 624 768 q 600 528 624 579 q 535 433 576 478 q 438 338 493 388 q 308 220 369 278 q 210 89 246 163 l 633 89 l 633 0 l 69 0 z "},"3":{"ha":714,"x_min":69,"x_max":644,"o":"m 310 -14 q 179 -3 249 -14 q 69 24 110 8 l 69 124 q 179 93 122 103 q 296 83 236 83 q 473 119 415 83 q 531 246 531 156 q 476 371 531 332 q 325 410 422 410 l 196 410 l 207 496 l 314 496 q 463 540 414 496 q 511 663 511 583 q 460 775 511 739 q 299 811 410 811 q 187 800 243 811 q 86 771 131 789 l 86 869 q 188 897 125 885 q 314 908 251 908 q 549 840 474 908 q 625 664 625 771 q 590 537 625 596 q 476 454 554 478 q 605 377 565 435 q 644 246 644 319 q 554 51 644 115 q 310 -14 464 -14 z "},"4":{"ha":751,"x_min":42,"x_max":710,"o":"m 501 0 l 501 206 l 42 206 l 42 292 l 514 894 l 615 894 l 615 299 l 710 299 l 710 206 l 615 206 l 615 0 l 501 0 m 156 296 l 517 296 l 517 758 l 156 296 z "},"5":{"ha":711,"x_min":69,"x_max":642,"o":"m 311 -14 q 183 -4 250 -14 q 74 24 117 6 l 74 125 q 299 83 176 83 q 473 128 418 83 q 528 267 528 172 q 487 400 528 356 q 328 444 446 444 l 69 444 l 69 524 l 93 894 l 578 894 l 567 806 l 189 806 l 171 535 l 339 535 q 569 468 496 535 q 642 267 642 401 q 558 61 642 136 q 311 -14 474 -14 z "},"6":{"ha":790,"x_min":69,"x_max":721,"o":"m 396 -14 q 153 67 236 -14 q 69 326 69 149 l 69 538 q 113 732 69 649 q 238 862 157 815 q 431 908 319 908 q 546 901 496 908 q 636 879 596 893 l 636 781 q 547 803 596 796 q 436 811 497 811 q 240 742 301 811 q 178 558 178 674 l 178 490 q 298 549 232 531 q 418 568 364 568 q 646 494 571 568 q 721 279 721 419 q 641 67 721 149 q 396 -14 561 -14 m 396 76 q 563 130 507 76 q 618 276 618 183 q 600 385 618 340 q 536 455 582 431 q 408 479 490 479 q 282 458 340 479 q 178 403 224 436 l 178 294 q 396 76 178 76 z "},"7":{"ha":692,"x_min":56,"x_max":636,"o":"m 176 0 l 517 806 l 56 806 l 56 894 l 636 894 l 636 815 l 292 0 l 176 0 z "},"8":{"ha":811,"x_min":69,"x_max":742,"o":"m 406 -14 q 156 49 242 -14 q 69 236 69 113 q 113 378 69 317 q 242 463 157 439 q 129 541 164 488 q 94 658 94 594 q 172 840 94 772 q 406 908 250 908 q 642 840 567 908 q 717 658 717 772 q 683 535 717 592 q 563 449 649 478 q 699 372 657 425 q 742 236 742 319 q 656 49 742 113 q 406 -14 571 -14 m 444 485 q 572 544 531 506 q 614 657 614 582 q 560 777 614 736 q 406 818 507 818 q 251 778 306 818 q 197 658 197 739 q 235 559 197 599 q 339 506 272 519 l 444 485 m 406 76 q 639 238 639 76 q 595 345 639 311 q 469 396 551 379 l 349 421 q 220 363 268 404 q 172 239 172 322 q 232 116 172 156 q 406 76 292 76 z "},"9":{"ha":790,"x_min":69,"x_max":721,"o":"m 360 -14 q 245 -6 296 -14 q 154 15 194 1 l 154 114 q 244 92 194 100 q 354 83 293 83 q 551 153 490 83 q 613 336 613 222 l 613 404 q 492 346 558 365 q 372 326 426 326 q 144 401 219 326 q 69 615 69 476 q 150 828 69 747 q 394 908 231 908 q 638 827 556 908 q 721 568 721 746 l 721 357 q 677 163 721 246 q 552 33 633 79 q 360 -14 471 -14 m 382 415 q 508 437 450 415 q 613 492 567 458 l 613 600 q 394 818 613 818 q 228 765 283 818 q 172 618 172 711 q 190 510 172 556 q 254 440 208 464 q 382 415 300 415 z "},"A":{"ha":951,"x_min":69,"x_max":882,"o":"m 69 0 l 410 894 l 543 894 l 882 0 l 765 0 l 671 246 l 282 246 l 188 0 l 69 0 m 301 336 l 650 336 l 475 796 l 301 336 z "},"Á":{"ha":951,"x_min":69,"x_max":882,"o":"m 406 956 l 504 1189 l 607 1189 l 497 956 l 406 956 m 69 0 l 410 894 l 543 894 l 882 0 l 765 0 l 671 246 l 282 246 l 188 0 l 69 0 m 301 336 l 650 336 l 475 796 l 301 336 z "},"Ă":{"ha":951,"x_min":69,"x_max":882,"o":"m 474 956 q 343 1004 388 956 q 299 1131 299 1053 l 379 1131 q 405 1053 379 1078 q 474 1028 431 1028 q 545 1053 519 1028 q 571 1131 571 1078 l 651 1131 q 606 1004 651 1053 q 474 956 561 956 m 69 0 l 410 894 l 543 894 l 882 0 l 765 0 l 671 246 l 282 246 l 188 0 l 69 0 m 301 336 l 650 336 l 475 796 l 301 336 z "},"Ắ":{"ha":951,"x_min":69,"x_max":882,"o":"m 421 1100 l 507 1274 l 597 1274 l 503 1100 l 421 1100 m 475 956 q 373 974 419 956 q 299 1036 326 993 q 271 1150 271 1079 l 343 1150 q 379 1054 343 1086 q 475 1022 415 1022 q 571 1054 535 1022 q 607 1150 607 1086 l 679 1150 q 651 1036 679 1079 q 577 974 624 993 q 475 956 531 956 m 69 0 l 410 894 l 543 894 l 882 0 l 765 0 l 671 246 l 282 246 l 188 0 l 69 0 m 301 336 l 650 336 l 475 796 l 301 336 z "},"Ặ":{"ha":951,"x_min":69,"x_max":882,"o":"m 474 956 q 343 1004 388 956 q 299 1131 299 1053 l 379 1131 q 405 1053 379 1078 q 474 1028 431 1028 q 545 1053 519 1028 q 571 1131 571 1078 l 651 1131 q 606 1004 651 1053 q 474 956 561 956 m 69 0 l 410 894 l 543 894 l 882 0 l 765 0 l 671 246 l 282 246 l 188 0 l 69 0 m 301 336 l 650 336 l 475 796 l 301 336 m 419 -228 l 419 -121 l 531 -121 l 531 -228 l 419 -228 z "},"Ằ":{"ha":951,"x_min":69,"x_max":882,"o":"m 447 1100 l 353 1274 l 443 1274 l 529 1100 l 447 1100 m 475 956 q 373 974 419 956 q 299 1036 326 993 q 271 1150 271 1079 l 343 1150 q 379 1054 343 1086 q 475 1022 415 1022 q 571 1054 535 1022 q 607 1150 607 1086 l 679 1150 q 651 1036 679 1079 q 577 974 624 993 q 475 956 531 956 m 69 0 l 410 894 l 543 894 l 882 0 l 765 0 l 671 246 l 282 246 l 188 0 l 69 0 m 301 336 l 650 336 l 475 796 l 301 336 z "},"Ẳ":{"ha":951,"x_min":69,"x_max":882,"o":"m 422 1101 l 422 1182 q 514 1201 492 1185 q 536 1244 536 1217 q 463 1299 536 1299 q 421 1294 440 1299 q 383 1281 401 1289 l 383 1338 q 430 1349 403 1344 q 486 1354 457 1354 q 581 1327 547 1354 q 615 1251 615 1300 q 590 1183 615 1207 q 506 1149 565 1158 l 506 1101 l 422 1101 m 475 956 q 373 974 419 956 q 299 1036 326 993 q 271 1150 271 1079 l 343 1150 q 379 1054 343 1086 q 475 1022 415 1022 q 571 1054 535 1022 q 607 1150 607 1086 l 679 1150 q 651 1036 679 1079 q 577 974 624 993 q 475 956 531 956 m 69 0 l 410 894 l 543 894 l 882 0 l 765 0 l 671 246 l 282 246 l 188 0 l 69 0 m 301 336 l 650 336 l 475 796 l 301 336 z "},"Ẵ":{"ha":951,"x_min":69,"x_max":882,"o":"m 572 1179 q 507 1192 539 1179 q 445 1216 475 1204 q 388 1228 415 1228 q 330 1218 357 1228 q 282 1183 303 1208 l 282 1261 q 328 1288 297 1278 q 388 1299 358 1299 q 453 1287 424 1299 q 513 1263 483 1275 q 572 1250 542 1250 q 671 1296 638 1250 l 671 1217 q 631 1190 658 1200 q 572 1179 604 1179 m 475 956 q 373 974 419 956 q 299 1036 326 993 q 271 1150 271 1079 l 343 1150 q 379 1054 343 1086 q 475 1022 415 1022 q 571 1054 535 1022 q 607 1150 607 1086 l 679 1150 q 651 1036 679 1079 q 577 974 624 993 q 475 956 531 956 m 69 0 l 410 894 l 543 894 l 882 0 l 765 0 l 671 246 l 282 246 l 188 0 l 69 0 m 301 336 l 650 336 l 475 796 l 301 336 z "},"Ǎ":{"ha":951,"x_min":69,"x_max":882,"o":"m 429 956 l 269 1161 l 368 1161 l 475 1019 l 582 1161 l 681 1161 l 521 956 l 429 956 m 69 0 l 410 894 l 543 894 l 882 0 l 765 0 l 671 246 l 282 246 l 188 0 l 69 0 m 301 336 l 650 336 l 475 796 l 301 336 z "},"Â":{"ha":951,"x_min":69,"x_max":882,"o":"m 269 956 l 429 1161 l 521 1161 l 681 956 l 582 956 l 475 1097 l 368 956 l 269 956 m 69 0 l 410 894 l 543 894 l 882 0 l 765 0 l 671 246 l 282 246 l 188 0 l 69 0 m 301 336 l 650 336 l 475 796 l 301 336 z "},"Ấ":{"ha":951,"x_min":69,"x_max":882,"o":"m 579 1107 l 665 1281 l 756 1281 l 661 1107 l 579 1107 m 268 956 l 422 1119 l 514 1119 l 668 956 l 572 956 l 468 1071 l 365 956 l 268 956 m 69 0 l 410 894 l 543 894 l 882 0 l 765 0 l 671 246 l 282 246 l 188 0 l 69 0 m 301 336 l 650 336 l 475 796 l 301 336 z "},"Ậ":{"ha":951,"x_min":69,"x_max":882,"o":"m 269 956 l 429 1161 l 521 1161 l 681 956 l 582 956 l 475 1097 l 368 956 l 269 956 m 69 0 l 410 894 l 543 894 l 882 0 l 765 0 l 671 246 l 282 246 l 188 0 l 69 0 m 301 336 l 650 336 l 475 796 l 301 336 m 419 -228 l 419 -121 l 531 -121 l 531 -228 l 419 -228 z "},"Ầ":{"ha":951,"x_min":69,"x_max":882,"o":"m 278 1107 l 183 1281 l 274 1281 l 360 1107 l 278 1107 m 271 956 l 425 1119 l 517 1119 l 671 956 l 574 956 l 471 1071 l 367 956 l 271 956 m 69 0 l 410 894 l 543 894 l 882 0 l 765 0 l 671 246 l 282 246 l 188 0 l 69 0 m 301 336 l 650 336 l 475 796 l 301 336 z "},"Ẩ":{"ha":951,"x_min":69,"x_max":882,"o":"m 596 1078 l 596 1165 q 686 1183 665 1168 q 707 1224 707 1197 q 638 1274 707 1274 q 594 1269 614 1274 q 558 1257 575 1264 l 558 1317 q 602 1328 578 1324 q 657 1333 626 1333 q 755 1306 719 1333 q 790 1229 790 1278 q 764 1159 790 1185 q 681 1126 738 1133 l 681 1078 l 596 1078 m 274 956 l 428 1119 l 519 1119 l 674 956 l 578 956 l 474 1071 l 371 956 l 274 956 m 69 0 l 410 894 l 543 894 l 882 0 l 765 0 l 671 246 l 282 246 l 188 0 l 69 0 m 301 336 l 650 336 l 475 796 l 301 336 z "},"Ẫ":{"ha":951,"x_min":69,"x_max":882,"o":"m 574 1122 q 508 1135 540 1122 q 447 1159 476 1147 q 389 1171 417 1171 q 331 1161 358 1171 q 283 1126 304 1151 l 283 1204 q 329 1231 299 1221 q 389 1242 360 1242 q 455 1230 425 1242 q 514 1206 485 1218 q 574 1193 543 1193 q 672 1239 639 1193 l 672 1160 q 633 1133 660 1143 q 574 1122 606 1122 m 275 956 l 429 1119 l 521 1119 l 675 956 l 579 956 l 475 1071 l 372 956 l 275 956 m 69 0 l 410 894 l 543 894 l 882 0 l 765 0 l 671 246 l 282 246 l 188 0 l 69 0 m 301 336 l 650 336 l 475 796 l 301 336 z "},"Ä":{"ha":951,"x_min":69,"x_max":882,"o":"m 299 986 l 299 1090 l 407 1090 l 407 986 l 299 986 m 543 986 l 543 1090 l 651 1090 l 651 986 l 543 986 m 69 0 l 410 894 l 543 894 l 882 0 l 765 0 l 671 246 l 282 246 l 188 0 l 69 0 m 301 336 l 650 336 l 475 796 l 301 336 z "},"Ạ":{"ha":951,"x_min":69,"x_max":882,"o":"m 69 0 l 410 894 l 543 894 l 882 0 l 765 0 l 671 246 l 282 246 l 188 0 l 69 0 m 301 336 l 650 336 l 475 796 l 301 336 m 419 -228 l 419 -121 l 531 -121 l 531 -228 l 419 -228 z "},"À":{"ha":951,"x_min":69,"x_max":882,"o":"m 411 956 l 301 1189 l 404 1189 l 503 956 l 411 956 m 69 0 l 410 894 l 543 894 l 882 0 l 765 0 l 671 246 l 282 246 l 188 0 l 69 0 m 301 336 l 650 336 l 475 796 l 301 336 z "},"Ả":{"ha":951,"x_min":69,"x_max":882,"o":"m 428 956 l 428 1071 q 533 1091 510 1075 q 557 1143 557 1107 q 531 1192 557 1178 q 449 1206 504 1206 q 401 1201 426 1206 q 357 1189 375 1196 l 357 1260 q 411 1273 378 1268 q 475 1278 444 1278 q 600 1244 557 1278 q 643 1151 643 1211 q 616 1064 643 1096 q 519 1022 589 1032 l 519 956 l 428 956 m 69 0 l 410 894 l 543 894 l 882 0 l 765 0 l 671 246 l 282 246 l 188 0 l 69 0 m 301 336 l 650 336 l 475 796 l 301 336 z "},"Ā":{"ha":951,"x_min":69,"x_max":882,"o":"m 275 989 l 275 1071 l 675 1071 l 675 989 l 275 989 m 69 0 l 410 894 l 543 894 l 882 0 l 765 0 l 671 246 l 282 246 l 188 0 l 69 0 m 301 336 l 650 336 l 475 796 l 301 336 z "},"Ą":{"ha":951,"x_min":69,"x_max":893,"o":"m 69 0 l 410 894 l 543 894 l 882 0 l 854 0 q 754 -167 754 -75 q 772 -214 754 -201 q 824 -226 789 -226 q 861 -222 842 -226 q 893 -211 881 -218 l 893 -289 q 850 -301 876 -297 q 799 -306 824 -306 q 702 -277 743 -306 q 661 -183 661 -249 q 690 -80 661 -129 q 765 0 719 -31 l 671 246 l 282 246 l 188 0 l 69 0 m 301 336 l 650 336 l 475 796 l 301 336 z "},"Å":{"ha":951,"x_min":69,"x_max":882,"o":"m 69 0 l 399 864 q 342 917 363 883 q 322 994 322 951 q 365 1101 322 1057 q 474 1144 407 1144 q 585 1101 543 1144 q 628 994 628 1057 q 608 919 628 953 q 554 865 589 885 l 882 0 l 765 0 l 671 246 l 282 246 l 188 0 l 69 0 m 474 910 q 536 935 513 910 q 560 994 560 960 q 536 1055 560 1031 q 474 1079 513 1079 q 413 1055 438 1079 q 389 994 389 1031 q 413 935 389 960 q 474 910 438 910 m 301 336 l 650 336 l 475 796 l 301 336 z "},"Ǻ":{"ha":951,"x_min":69,"x_max":882,"o":"m 404 1183 l 503 1417 l 606 1417 l 496 1183 l 404 1183 m 69 0 l 399 864 q 342 917 363 883 q 322 994 322 951 q 365 1101 322 1057 q 474 1144 407 1144 q 585 1101 543 1144 q 628 994 628 1057 q 608 919 628 953 q 554 865 589 885 l 882 0 l 765 0 l 671 246 l 282 246 l 188 0 l 69 0 m 474 910 q 536 935 513 910 q 560 994 560 960 q 536 1055 560 1031 q 474 1079 513 1079 q 413 1055 438 1079 q 389 994 389 1031 q 413 935 389 960 q 474 910 438 910 m 301 336 l 650 336 l 475 796 l 301 336 z "},"Ã":{"ha":951,"x_min":69,"x_max":882,"o":"m 579 976 q 508 990 543 976 q 442 1016 474 1003 q 379 1029 410 1029 q 317 1019 346 1029 q 264 981 288 1008 l 264 1068 q 314 1099 281 1088 q 379 1110 347 1110 q 451 1097 418 1110 q 515 1070 483 1083 q 579 1057 546 1057 q 686 1107 650 1057 l 686 1018 q 644 988 672 1000 q 579 976 615 976 m 69 0 l 410 894 l 543 894 l 882 0 l 765 0 l 671 246 l 282 246 l 188 0 l 69 0 m 301 336 l 650 336 l 475 796 l 301 336 z "},"Æ":{"ha":1167,"x_min":69,"x_max":1097,"o":"m 69 0 l 410 894 l 1097 894 l 1097 804 l 682 804 l 682 492 l 1047 492 l 1047 403 l 682 403 l 682 89 l 1097 89 l 1097 0 l 568 0 l 568 247 l 286 247 l 192 0 l 69 0 m 321 336 l 568 336 l 568 804 l 497 804 l 321 336 z "},"Ǽ":{"ha":1167,"x_min":69,"x_max":1097,"o":"m 600 956 l 699 1189 l 801 1189 l 692 956 l 600 956 m 69 0 l 410 894 l 1097 894 l 1097 804 l 682 804 l 682 492 l 1047 492 l 1047 403 l 682 403 l 682 89 l 1097 89 l 1097 0 l 568 0 l 568 247 l 286 247 l 192 0 l 69 0 m 321 336 l 568 336 l 568 804 l 497 804 l 321 336 z "},"B":{"ha":871,"x_min":97,"x_max":801,"o":"m 97 0 l 97 894 l 511 894 q 705 833 643 894 q 767 658 767 771 q 737 535 767 585 q 654 461 707 486 q 762 397 722 444 q 801 256 801 349 q 733 63 801 125 q 533 0 665 0 l 97 0 m 211 503 l 504 503 q 624 544 589 503 q 660 650 660 585 q 624 767 660 728 q 483 807 588 807 l 211 807 l 211 503 m 211 86 l 514 86 q 646 126 604 86 q 688 260 688 165 q 647 377 688 338 q 496 417 606 417 l 211 417 l 211 86 z "},"C":{"ha":826,"x_min":69,"x_max":757,"o":"m 499 -14 q 259 41 354 -14 q 117 195 164 96 q 69 428 69 294 q 114 682 69 574 q 253 849 158 790 q 497 908 347 908 q 638 897 575 908 q 757 867 701 886 l 757 767 q 639 799 701 788 q 507 811 576 811 q 315 765 386 811 q 214 633 244 719 q 183 428 183 547 q 262 173 183 263 q 510 83 340 83 q 637 93 572 83 q 757 124 701 103 l 757 22 q 640 -4 703 6 q 499 -14 576 -14 z "},"Ć":{"ha":826,"x_min":69,"x_max":757,"o":"m 421 956 l 519 1189 l 622 1189 l 513 956 l 421 956 m 499 -14 q 259 41 354 -14 q 117 195 164 96 q 69 428 69 294 q 114 682 69 574 q 253 849 158 790 q 497 908 347 908 q 638 897 575 908 q 757 867 701 886 l 757 767 q 639 799 701 788 q 507 811 576 811 q 315 765 386 811 q 214 633 244 719 q 183 428 183 547 q 262 173 183 263 q 510 83 340 83 q 637 93 572 83 q 757 124 701 103 l 757 22 q 640 -4 703 6 q 499 -14 576 -14 z "},"Č":{"ha":826,"x_min":69,"x_max":757,"o":"m 450 956 l 290 1161 l 389 1161 l 496 1019 l 603 1161 l 701 1161 l 542 956 l 450 956 m 499 -14 q 259 41 354 -14 q 117 195 164 96 q 69 428 69 294 q 114 682 69 574 q 253 849 158 790 q 497 908 347 908 q 638 897 575 908 q 757 867 701 886 l 757 767 q 639 799 701 788 q 507 811 576 811 q 315 765 386 811 q 214 633 244 719 q 183 428 183 547 q 262 173 183 263 q 510 83 340 83 q 637 93 572 83 q 757 124 701 103 l 757 22 q 640 -4 703 6 q 499 -14 576 -14 z "},"Ç":{"ha":826,"x_min":69,"x_max":757,"o":"m 453 -333 q 401 -330 431 -333 q 356 -322 371 -326 l 356 -253 q 443 -264 396 -264 q 538 -249 508 -264 q 568 -190 568 -233 q 539 -138 568 -150 q 450 -126 510 -126 l 399 -126 l 435 -11 q 160 125 251 7 q 69 428 69 243 q 114 682 69 574 q 253 849 158 790 q 497 908 347 908 q 638 897 575 908 q 757 867 701 886 l 757 767 q 639 799 701 788 q 507 811 576 811 q 315 765 386 811 q 214 633 244 719 q 183 428 183 547 q 262 173 183 263 q 510 83 340 83 q 637 93 572 83 q 757 124 701 103 l 757 22 q 646 -3 706 7 q 515 -14 586 -12 l 497 -67 q 613 -99 574 -67 q 651 -192 651 -132 q 603 -297 651 -260 q 453 -333 556 -333 z "},"Ĉ":{"ha":826,"x_min":69,"x_max":757,"o":"m 254 956 l 414 1161 l 506 1161 l 665 956 l 567 956 l 460 1097 l 353 956 l 254 956 m 499 -14 q 259 41 354 -14 q 117 195 164 96 q 69 428 69 294 q 114 682 69 574 q 253 849 158 790 q 497 908 347 908 q 638 897 575 908 q 757 867 701 886 l 757 767 q 639 799 701 788 q 507 811 576 811 q 315 765 386 811 q 214 633 244 719 q 183 428 183 547 q 262 173 183 263 q 510 83 340 83 q 637 93 572 83 q 757 124 701 103 l 757 22 q 640 -4 703 6 q 499 -14 576 -14 z "},"Ċ":{"ha":826,"x_min":69,"x_max":757,"o":"m 433 986 l 433 1093 l 544 1093 l 544 986 l 433 986 m 499 -14 q 259 41 354 -14 q 117 195 164 96 q 69 428 69 294 q 114 682 69 574 q 253 849 158 790 q 497 908 347 908 q 638 897 575 908 q 757 867 701 886 l 757 767 q 639 799 701 788 q 507 811 576 811 q 315 765 386 811 q 214 633 244 719 q 183 428 183 547 q 262 173 183 263 q 510 83 340 83 q 637 93 572 83 q 757 124 701 103 l 757 22 q 640 -4 703 6 q 499 -14 576 -14 z "},"D":{"ha":892,"x_min":97,"x_max":822,"o":"m 97 0 l 97 894 l 447 894 q 732 789 642 894 q 822 442 822 683 q 734 106 822 213 q 447 0 646 0 l 97 0 m 211 89 l 426 89 q 583 117 521 89 q 677 222 646 146 q 708 442 708 299 q 680 663 708 583 q 590 773 651 742 q 426 804 528 804 l 211 804 l 211 89 z "},"Ð":{"ha":922,"x_min":28,"x_max":853,"o":"m 128 0 l 128 394 l 28 394 l 28 485 l 128 485 l 128 894 l 478 894 q 763 789 672 894 q 853 442 853 683 q 765 106 853 213 q 478 0 676 0 l 128 0 m 242 89 l 457 89 q 614 117 551 89 q 708 222 676 146 q 739 442 739 299 q 710 663 739 583 q 620 773 682 742 q 457 804 558 804 l 242 804 l 242 485 l 493 485 l 493 394 l 242 394 l 242 89 z "},"Ď":{"ha":892,"x_min":97,"x_max":822,"o":"m 368 956 l 208 1161 l 307 1161 l 414 1019 l 521 1161 l 619 1161 l 460 956 l 368 956 m 97 0 l 97 894 l 447 894 q 732 789 642 894 q 822 442 822 683 q 734 106 822 213 q 447 0 646 0 l 97 0 m 211 89 l 426 89 q 583 117 521 89 q 677 222 646 146 q 708 442 708 299 q 680 663 708 583 q 590 773 651 742 q 426 804 528 804 l 211 804 l 211 89 z "},"Đ":{"ha":922,"x_min":28,"x_max":853,"o":"m 128 0 l 128 394 l 28 394 l 28 485 l 128 485 l 128 894 l 478 894 q 763 789 672 894 q 853 442 853 683 q 765 106 853 213 q 478 0 676 0 l 128 0 m 242 89 l 457 89 q 614 117 551 89 q 708 222 676 146 q 739 442 739 299 q 710 663 739 583 q 620 773 682 742 q 457 804 558 804 l 242 804 l 242 485 l 493 485 l 493 394 l 242 394 l 242 89 z "},"Ḍ":{"ha":892,"x_min":97,"x_max":822,"o":"m 97 0 l 97 894 l 447 894 q 732 789 642 894 q 822 442 822 683 q 734 106 822 213 q 447 0 646 0 l 97 0 m 211 89 l 426 89 q 583 117 521 89 q 677 222 646 146 q 708 442 708 299 q 680 663 708 583 q 590 773 651 742 q 426 804 528 804 l 211 804 l 211 89 m 385 -228 l 385 -121 l 496 -121 l 496 -228 l 385 -228 z "},"Ḏ":{"ha":892,"x_min":97,"x_max":822,"o":"m 97 0 l 97 894 l 447 894 q 732 789 642 894 q 822 442 822 683 q 734 106 822 213 q 447 0 646 0 l 97 0 m 211 89 l 426 89 q 583 117 521 89 q 677 222 646 146 q 708 442 708 299 q 680 663 708 583 q 590 773 651 742 q 426 804 528 804 l 211 804 l 211 89 m 194 -200 l 194 -118 l 594 -118 l 594 -200 l 194 -200 z "},"E":{"ha":771,"x_min":97,"x_max":701,"o":"m 97 0 l 97 894 l 701 894 l 701 804 l 211 804 l 211 492 l 651 492 l 651 403 l 211 403 l 211 89 l 701 89 l 701 0 l 97 0 z "},"É":{"ha":771,"x_min":97,"x_max":701,"o":"m 332 956 l 431 1189 l 533 1189 l 424 956 l 332 956 m 97 0 l 97 894 l 701 894 l 701 804 l 211 804 l 211 492 l 651 492 l 651 403 l 211 403 l 211 89 l 701 89 l 701 0 l 97 0 z "},"Ĕ":{"ha":771,"x_min":97,"x_max":701,"o":"m 396 956 q 265 1004 310 956 q 221 1131 221 1053 l 301 1131 q 327 1053 301 1078 q 396 1028 353 1028 q 467 1053 442 1028 q 493 1131 493 1078 l 574 1131 q 528 1004 574 1053 q 396 956 483 956 m 97 0 l 97 894 l 701 894 l 701 804 l 211 804 l 211 492 l 651 492 l 651 403 l 211 403 l 211 89 l 701 89 l 701 0 l 97 0 z "},"Ě":{"ha":771,"x_min":97,"x_max":701,"o":"m 353 956 l 193 1161 l 292 1161 l 399 1019 l 506 1161 l 604 1161 l 444 956 l 353 956 m 97 0 l 97 894 l 701 894 l 701 804 l 211 804 l 211 492 l 651 492 l 651 403 l 211 403 l 211 89 l 701 89 l 701 0 l 97 0 z "},"Ê":{"ha":771,"x_min":97,"x_max":701,"o":"m 175 956 l 335 1161 l 426 1161 l 586 956 l 488 956 l 381 1097 l 274 956 l 175 956 m 97 0 l 97 894 l 701 894 l 701 804 l 211 804 l 211 492 l 651 492 l 651 403 l 211 403 l 211 89 l 701 89 l 701 0 l 97 0 z "},"Ế":{"ha":771,"x_min":97,"x_max":701,"o":"m 493 1106 l 579 1279 l 669 1279 l 575 1106 l 493 1106 m 182 954 l 336 1118 l 428 1118 l 582 954 l 486 954 l 382 1069 l 279 954 l 182 954 m 97 0 l 97 894 l 701 894 l 701 804 l 211 804 l 211 492 l 651 492 l 651 403 l 211 403 l 211 89 l 701 89 l 701 0 l 97 0 z "},"Ệ":{"ha":771,"x_min":97,"x_max":701,"o":"m 169 956 l 329 1161 l 421 1161 l 581 956 l 482 956 l 375 1097 l 268 956 l 169 956 m 97 0 l 97 894 l 701 894 l 701 804 l 211 804 l 211 492 l 651 492 l 651 403 l 211 403 l 211 89 l 701 89 l 701 0 l 97 0 m 319 -228 l 319 -121 l 431 -121 l 431 -228 l 319 -228 z "},"Ề":{"ha":771,"x_min":97,"x_max":701,"o":"m 214 1106 l 119 1279 l 210 1279 l 296 1106 l 214 1106 m 207 954 l 361 1118 l 453 1118 l 607 954 l 510 954 l 407 1069 l 303 954 l 207 954 m 97 0 l 97 894 l 701 894 l 701 804 l 211 804 l 211 492 l 651 492 l 651 403 l 211 403 l 211 89 l 701 89 l 701 0 l 97 0 z "},"Ể":{"ha":771,"x_min":97,"x_max":706,"o":"m 511 1076 l 511 1164 q 601 1181 581 1167 q 622 1222 622 1196 q 553 1272 622 1272 q 510 1267 529 1272 q 474 1256 490 1263 l 474 1315 q 517 1327 493 1322 q 572 1332 542 1332 q 670 1304 635 1332 q 706 1228 706 1276 q 679 1158 706 1183 q 596 1125 653 1132 l 596 1076 l 511 1076 m 189 954 l 343 1118 l 435 1118 l 589 954 l 493 954 l 389 1069 l 286 954 l 189 954 m 97 0 l 97 894 l 701 894 l 701 804 l 211 804 l 211 492 l 651 492 l 651 403 l 211 403 l 211 89 l 701 89 l 701 0 l 97 0 z "},"Ễ":{"ha":771,"x_min":97,"x_max":701,"o":"m 489 1122 q 424 1135 456 1122 q 362 1159 392 1147 q 304 1171 332 1171 q 247 1161 274 1171 q 199 1126 219 1151 l 199 1204 q 244 1231 214 1221 q 304 1242 275 1242 q 370 1230 340 1242 q 429 1206 400 1218 q 489 1193 458 1193 q 588 1239 554 1193 l 588 1160 q 548 1133 575 1143 q 489 1122 521 1122 m 190 956 l 344 1119 l 436 1119 l 590 956 l 494 956 l 390 1071 l 288 956 l 190 956 m 97 0 l 97 894 l 701 894 l 701 804 l 211 804 l 211 492 l 651 492 l 651 403 l 211 403 l 211 89 l 701 89 l 701 0 l 97 0 z "},"Ë":{"ha":771,"x_min":97,"x_max":701,"o":"m 213 988 l 213 1092 l 321 1092 l 321 988 l 213 988 m 457 988 l 457 1092 l 565 1092 l 565 988 l 457 988 m 97 0 l 97 894 l 701 894 l 701 804 l 211 804 l 211 492 l 651 492 l 651 403 l 211 403 l 211 89 l 701 89 l 701 0 l 97 0 z "},"Ė":{"ha":771,"x_min":97,"x_max":701,"o":"m 332 986 l 332 1093 l 443 1093 l 443 986 l 332 986 m 97 0 l 97 894 l 701 894 l 701 804 l 211 804 l 211 492 l 651 492 l 651 403 l 211 403 l 211 89 l 701 89 l 701 0 l 97 0 z "},"Ẹ":{"ha":771,"x_min":97,"x_max":701,"o":"m 97 0 l 97 894 l 701 894 l 701 804 l 211 804 l 211 492 l 651 492 l 651 403 l 211 403 l 211 89 l 701 89 l 701 0 l 97 0 m 328 -228 l 328 -121 l 439 -121 l 439 -228 l 328 -228 z "},"È":{"ha":771,"x_min":97,"x_max":701,"o":"m 357 956 l 247 1189 l 350 1189 l 449 956 l 357 956 m 97 0 l 97 894 l 701 894 l 701 804 l 211 804 l 211 492 l 651 492 l 651 403 l 211 403 l 211 89 l 701 89 l 701 0 l 97 0 z "},"Ẻ":{"ha":771,"x_min":97,"x_max":701,"o":"m 333 956 l 333 1071 q 439 1091 415 1075 q 463 1143 463 1107 q 436 1192 463 1178 q 354 1206 410 1206 q 306 1201 332 1206 q 263 1189 281 1196 l 263 1260 q 317 1273 283 1268 q 381 1278 350 1278 q 506 1244 463 1278 q 549 1151 549 1211 q 522 1064 549 1096 q 425 1022 494 1032 l 425 956 l 333 956 m 97 0 l 97 894 l 701 894 l 701 804 l 211 804 l 211 492 l 651 492 l 651 403 l 211 403 l 211 89 l 701 89 l 701 0 l 97 0 z "},"Ē":{"ha":771,"x_min":97,"x_max":701,"o":"m 181 1000 l 181 1082 l 581 1082 l 581 1000 l 181 1000 m 97 0 l 97 894 l 701 894 l 701 804 l 211 804 l 211 492 l 651 492 l 651 403 l 211 403 l 211 89 l 701 89 l 701 0 l 97 0 z "},"Ę":{"ha":771,"x_min":97,"x_max":701,"o":"m 97 0 l 97 894 l 701 894 l 701 804 l 211 804 l 211 492 l 651 492 l 651 403 l 211 403 l 211 89 l 701 89 l 701 0 l 650 0 q 550 -167 550 -75 q 567 -214 550 -201 q 619 -226 585 -226 q 657 -222 638 -226 q 689 -211 676 -218 l 689 -289 q 646 -301 672 -297 q 594 -306 619 -306 q 498 -277 539 -306 q 457 -183 457 -249 q 486 -80 457 -129 q 561 0 515 -31 l 97 0 z "},"Ẽ":{"ha":771,"x_min":97,"x_max":701,"o":"m 489 983 q 418 997 453 983 q 351 1023 383 1010 q 289 1036 319 1036 q 226 1026 256 1036 q 174 988 197 1015 l 174 1075 q 224 1106 190 1094 q 289 1117 257 1117 q 360 1103 328 1117 q 424 1077 393 1090 q 489 1064 456 1064 q 596 1114 560 1064 l 596 1025 q 553 995 582 1007 q 489 983 525 983 m 97 0 l 97 894 l 701 894 l 701 804 l 211 804 l 211 492 l 651 492 l 651 403 l 211 403 l 211 89 l 701 89 l 701 0 l 97 0 z "},"F":{"ha":725,"x_min":97,"x_max":683,"o":"m 97 0 l 97 894 l 683 894 l 683 804 l 211 804 l 211 492 l 632 492 l 632 403 l 211 403 l 211 0 l 97 0 z "},"G":{"ha":888,"x_min":69,"x_max":818,"o":"m 499 -14 q 259 41 354 -14 q 117 195 164 96 q 69 428 69 294 q 114 682 69 574 q 253 849 158 790 q 497 908 347 908 q 638 897 575 908 q 757 867 701 886 l 757 767 q 639 799 701 788 q 507 811 576 811 q 315 765 386 811 q 214 633 244 719 q 183 428 183 547 q 260 173 183 263 q 506 83 336 83 q 621 93 565 83 q 719 119 676 103 l 719 404 l 481 404 l 481 482 l 818 482 l 818 57 q 701 8 778 31 q 499 -14 624 -14 z "},"Ğ":{"ha":888,"x_min":69,"x_max":818,"o":"m 485 956 q 354 1004 399 956 q 310 1131 310 1053 l 390 1131 q 416 1053 390 1078 q 485 1028 442 1028 q 556 1053 531 1028 q 582 1131 582 1078 l 663 1131 q 617 1004 663 1053 q 485 956 572 956 m 499 -14 q 259 41 354 -14 q 117 195 164 96 q 69 428 69 294 q 114 682 69 574 q 253 849 158 790 q 497 908 347 908 q 638 897 575 908 q 757 867 701 886 l 757 767 q 639 799 701 788 q 507 811 576 811 q 315 765 386 811 q 214 633 244 719 q 183 428 183 547 q 260 173 183 263 q 506 83 336 83 q 621 93 565 83 q 719 119 676 103 l 719 404 l 481 404 l 481 482 l 818 482 l 818 57 q 701 8 778 31 q 499 -14 624 -14 z "},"Ǧ":{"ha":888,"x_min":69,"x_max":818,"o":"m 440 954 l 281 1160 l 379 1160 l 486 1018 l 593 1160 l 692 1160 l 532 954 l 440 954 m 499 -14 q 259 41 354 -14 q 117 195 164 96 q 69 428 69 294 q 114 682 69 574 q 253 849 158 790 q 497 908 347 908 q 638 897 575 908 q 757 867 701 886 l 757 767 q 639 799 701 788 q 507 811 576 811 q 315 765 386 811 q 214 633 244 719 q 183 428 183 547 q 260 173 183 263 q 506 83 336 83 q 621 93 565 83 q 719 119 676 103 l 719 404 l 481 404 l 481 482 l 818 482 l 818 57 q 701 8 778 31 q 499 -14 624 -14 z "},"Ĝ":{"ha":888,"x_min":69,"x_max":818,"o":"m 289 956 l 449 1161 l 540 1161 l 700 956 l 601 956 l 494 1097 l 388 956 l 289 956 m 499 -14 q 259 41 354 -14 q 117 195 164 96 q 69 428 69 294 q 114 682 69 574 q 253 849 158 790 q 497 908 347 908 q 638 897 575 908 q 757 867 701 886 l 757 767 q 639 799 701 788 q 507 811 576 811 q 315 765 386 811 q 214 633 244 719 q 183 428 183 547 q 260 173 183 263 q 506 83 336 83 q 621 93 565 83 q 719 119 676 103 l 719 404 l 481 404 l 481 482 l 818 482 l 818 57 q 701 8 778 31 q 499 -14 624 -14 z "},"Ģ":{"ha":888,"x_min":69,"x_max":818,"o":"m 499 -14 q 259 41 354 -14 q 117 195 164 96 q 69 428 69 294 q 114 682 69 574 q 253 849 158 790 q 497 908 347 908 q 638 897 575 908 q 757 867 701 886 l 757 767 q 639 799 701 788 q 507 811 576 811 q 315 765 386 811 q 214 633 244 719 q 183 428 183 547 q 260 173 183 263 q 506 83 336 83 q 621 93 565 83 q 719 119 676 103 l 719 404 l 481 404 l 481 482 l 818 482 l 818 57 q 701 8 778 31 q 499 -14 624 -14 m 425 -311 l 464 -65 l 567 -65 l 508 -311 l 425 -311 z "},"Ġ":{"ha":888,"x_min":69,"x_max":818,"o":"m 433 986 l 433 1093 l 544 1093 l 544 986 l 433 986 m 499 -14 q 259 41 354 -14 q 117 195 164 96 q 69 428 69 294 q 114 682 69 574 q 253 849 158 790 q 497 908 347 908 q 638 897 575 908 q 757 867 701 886 l 757 767 q 639 799 701 788 q 507 811 576 811 q 315 765 386 811 q 214 633 244 719 q 183 428 183 547 q 260 173 183 263 q 506 83 336 83 q 621 93 565 83 q 719 119 676 103 l 719 404 l 481 404 l 481 482 l 818 482 l 818 57 q 701 8 778 31 q 499 -14 624 -14 z "},"Ḡ":{"ha":888,"x_min":69,"x_max":818,"o":"m 289 996 l 289 1078 l 689 1078 l 689 996 l 289 996 m 499 -14 q 259 41 354 -14 q 117 195 164 96 q 69 428 69 294 q 114 682 69 574 q 253 849 158 790 q 497 908 347 908 q 638 897 575 908 q 757 867 701 886 l 757 767 q 639 799 701 788 q 507 811 576 811 q 315 765 386 811 q 214 633 244 719 q 183 428 183 547 q 260 173 183 263 q 506 83 336 83 q 621 93 565 83 q 719 119 676 103 l 719 404 l 481 404 l 481 482 l 818 482 l 818 57 q 701 8 778 31 q 499 -14 624 -14 z "},"H":{"ha":894,"x_min":97,"x_max":797,"o":"m 97 0 l 97 894 l 211 894 l 211 492 l 683 492 l 683 894 l 797 894 l 797 0 l 683 0 l 683 403 l 211 403 l 211 0 l 97 0 z "},"Ħ":{"ha":894,"x_min":14,"x_max":881,"o":"m 97 0 l 97 644 l 14 644 l 14 735 l 97 735 l 97 894 l 211 894 l 211 735 l 683 735 l 683 894 l 797 894 l 797 735 l 881 735 l 881 644 l 797 644 l 797 0 l 683 0 l 683 403 l 211 403 l 211 0 l 97 0 m 211 492 l 683 492 l 683 644 l 211 644 l 211 492 z "},"Ḫ":{"ha":894,"x_min":97,"x_max":797,"o":"m 97 0 l 97 894 l 211 894 l 211 492 l 683 492 l 683 894 l 797 894 l 797 0 l 683 0 l 683 403 l 211 403 l 211 0 l 97 0 m 446 -272 q 315 -224 360 -272 q 271 -97 271 -175 l 351 -97 q 377 -175 351 -150 q 446 -200 403 -200 q 517 -175 492 -200 q 543 -97 543 -150 l 624 -97 q 578 -224 624 -175 q 446 -272 533 -272 z "},"Ĥ":{"ha":894,"x_min":97,"x_max":797,"o":"m 242 956 l 401 1161 l 493 1161 l 653 956 l 554 956 l 447 1097 l 340 956 l 242 956 m 97 0 l 97 894 l 211 894 l 211 492 l 683 492 l 683 894 l 797 894 l 797 0 l 683 0 l 683 403 l 211 403 l 211 0 l 97 0 z "},"Ḥ":{"ha":894,"x_min":97,"x_max":797,"o":"m 97 0 l 97 894 l 211 894 l 211 492 l 683 492 l 683 894 l 797 894 l 797 0 l 683 0 l 683 403 l 211 403 l 211 0 l 97 0 m 393 -228 l 393 -121 l 504 -121 l 504 -228 l 393 -228 z "},"I":{"ha":308,"x_min":97,"x_max":211,"o":"m 97 0 l 97 894 l 211 894 l 211 0 l 97 0 z "},"Ĳ":{"ha":872,"x_min":97,"x_max":782,"o":"m 508 -14 q 405 -5 453 -14 q 321 18 357 4 l 321 115 q 401 92 354 101 q 494 82 449 82 q 631 124 593 82 q 668 254 668 165 l 668 894 l 782 894 l 782 246 q 715 55 782 124 q 508 -14 647 -14 m 97 0 l 97 894 l 211 894 l 211 0 l 97 0 z "},"Í":{"ha":308,"x_min":97,"x_max":299,"o":"m 97 956 l 196 1189 l 299 1189 l 189 956 l 97 956 m 97 0 l 97 894 l 211 894 l 211 0 l 97 0 z "},"Ĭ":{"ha":308,"x_min":-22,"x_max":331,"o":"m 153 965 q 22 1014 67 965 q -22 1140 -22 1063 l 58 1140 q 84 1063 58 1088 q 153 1038 110 1038 q 224 1063 199 1038 q 250 1140 250 1088 l 331 1140 q 285 1014 331 1063 q 153 965 240 965 m 97 0 l 97 894 l 211 894 l 211 0 l 97 0 z "},"Ǐ":{"ha":308,"x_min":-50,"x_max":361,"o":"m 110 956 l -50 1161 l 49 1161 l 156 1019 l 263 1161 l 361 1161 l 201 956 l 110 956 m 97 0 l 97 894 l 211 894 l 211 0 l 97 0 z "},"Î":{"ha":308,"x_min":-51,"x_max":360,"o":"m -51 956 l 108 1161 l 200 1161 l 360 956 l 261 956 l 154 1097 l 47 956 l -51 956 m 97 0 l 97 894 l 211 894 l 211 0 l 97 0 z "},"Ï":{"ha":308,"x_min":-22,"x_max":331,"o":"m -22 990 l -22 1094 l 86 1094 l 86 990 l -22 990 m 222 990 l 222 1094 l 331 1094 l 331 990 l 222 990 m 97 0 l 97 894 l 211 894 l 211 0 l 97 0 z "},"İ":{"ha":308,"x_min":97,"x_max":211,"o":"m 99 989 l 99 1096 l 210 1096 l 210 989 l 99 989 m 97 0 l 97 894 l 211 894 l 211 0 l 97 0 z "},"Ị":{"ha":308,"x_min":97,"x_max":211,"o":"m 97 0 l 97 894 l 211 894 l 211 0 l 97 0 m 99 -228 l 99 -121 l 210 -121 l 210 -228 l 99 -228 z "},"Ì":{"ha":308,"x_min":1,"x_max":211,"o":"m 111 956 l 1 1189 l 104 1189 l 203 956 l 111 956 m 97 0 l 97 894 l 211 894 l 211 0 l 97 0 z "},"Ỉ":{"ha":308,"x_min":36,"x_max":322,"o":"m 107 956 l 107 1071 q 213 1091 189 1075 q 236 1143 236 1107 q 210 1192 236 1178 q 128 1206 183 1206 q 80 1201 106 1206 q 36 1189 54 1196 l 36 1260 q 90 1273 57 1268 q 154 1278 124 1278 q 279 1244 236 1278 q 322 1151 322 1211 q 295 1064 322 1096 q 199 1022 268 1032 l 199 956 l 107 956 m 97 0 l 97 894 l 211 894 l 211 0 l 97 0 z "},"Ī":{"ha":308,"x_min":-46,"x_max":354,"o":"m -46 1000 l -46 1082 l 354 1082 l 354 1000 l -46 1000 m 97 0 l 97 894 l 211 894 l 211 0 l 97 0 z "},"Į":{"ha":308,"x_min":10,"x_max":242,"o":"m 97 0 l 97 894 l 211 894 l 211 0 l 203 0 q 103 -167 103 -75 q 120 -214 103 -201 q 172 -226 138 -226 q 210 -222 190 -226 q 242 -211 229 -218 l 242 -289 q 199 -301 225 -297 q 147 -306 172 -306 q 51 -277 92 -306 q 10 -183 10 -249 q 39 -80 10 -129 q 114 0 68 -31 l 97 0 z "},"Ĩ":{"ha":308,"x_min":-57,"x_max":365,"o":"m 258 963 q 188 976 222 963 q 121 1002 153 989 q 58 1015 89 1015 q -4 1005 25 1015 q -57 967 -33 994 l -57 1054 q -7 1085 -40 1074 q 58 1096 26 1096 q 130 1083 97 1096 q 194 1056 163 1069 q 258 1043 225 1043 q 365 1093 329 1043 l 365 1004 q 323 974 351 986 q 258 963 294 963 m 97 0 l 97 894 l 211 894 l 211 0 l 97 0 z "},"J":{"ha":593,"x_min":42,"x_max":503,"o":"m 229 -14 q 126 -5 174 -14 q 42 18 78 4 l 42 115 q 122 92 75 101 q 215 82 169 82 q 351 124 314 82 q 389 254 389 165 l 389 894 l 503 894 l 503 246 q 435 55 503 124 q 229 -14 368 -14 z "},"Ĵ":{"ha":593,"x_min":42,"x_max":649,"o":"m 238 956 l 397 1161 l 489 1161 l 649 956 l 550 956 l 443 1097 l 336 956 l 238 956 m 229 -14 q 126 -5 174 -14 q 42 18 78 4 l 42 115 q 122 92 75 101 q 215 82 169 82 q 351 124 314 82 q 389 254 389 165 l 389 894 l 503 894 l 503 246 q 435 55 503 124 q 229 -14 368 -14 z "},"K":{"ha":843,"x_min":97,"x_max":774,"o":"m 97 0 l 97 894 l 211 894 l 211 451 l 629 894 l 763 894 l 429 536 l 774 0 l 651 0 l 357 463 l 211 308 l 211 0 l 97 0 z "},"Ķ":{"ha":843,"x_min":97,"x_max":774,"o":"m 97 0 l 97 894 l 211 894 l 211 451 l 629 894 l 763 894 l 429 536 l 774 0 l 651 0 l 357 463 l 211 308 l 211 0 l 97 0 m 343 -297 l 382 -51 l 485 -51 l 426 -297 l 343 -297 z "},"L":{"ha":729,"x_min":97,"x_max":688,"o":"m 97 0 l 97 894 l 211 894 l 211 89 l 688 89 l 688 0 l 97 0 z "},"Ĺ":{"ha":729,"x_min":97,"x_max":688,"o":"m 97 956 l 196 1189 l 299 1189 l 189 956 l 97 956 m 97 0 l 97 894 l 211 894 l 211 89 l 688 89 l 688 0 l 97 0 z "},"Ľ":{"ha":729,"x_min":97,"x_max":688,"o":"m 97 0 l 97 894 l 211 894 l 211 89 l 688 89 l 688 0 l 97 0 m 418 649 l 457 894 l 560 894 l 501 649 l 418 649 z "},"Ļ":{"ha":729,"x_min":97,"x_max":688,"o":"m 97 0 l 97 894 l 211 894 l 211 89 l 688 89 l 688 0 l 97 0 m 307 -297 l 346 -51 l 449 -51 l 390 -297 l 307 -297 z "},"Ŀ":{"ha":729,"x_min":97,"x_max":688,"o":"m 97 0 l 97 894 l 211 894 l 211 89 l 688 89 l 688 0 l 97 0 m 481 360 l 481 467 l 592 467 l 592 360 l 481 360 z "},"Ḷ":{"ha":729,"x_min":97,"x_max":688,"o":"m 97 0 l 97 894 l 211 894 l 211 89 l 688 89 l 688 0 l 97 0 m 326 -228 l 326 -121 l 438 -121 l 438 -228 l 326 -228 z "},"Ḹ":{"ha":729,"x_min":-42,"x_max":688,"o":"m -42 996 l -42 1078 l 358 1078 l 358 996 l -42 996 m 97 0 l 97 894 l 211 894 l 211 89 l 688 89 l 688 0 l 97 0 m 326 -228 l 326 -121 l 438 -121 l 438 -228 l 326 -228 z "},"Ḻ":{"ha":729,"x_min":97,"x_max":688,"o":"m 97 0 l 97 894 l 211 894 l 211 89 l 688 89 l 688 0 l 97 0 m 171 -183 l 171 -101 l 571 -101 l 571 -183 l 171 -183 z "},"Ł":{"ha":729,"x_min":-42,"x_max":688,"o":"m 97 0 l 97 386 l -42 325 l -42 424 l 97 485 l 97 894 l 211 894 l 211 535 l 397 617 l 397 518 l 211 436 l 211 89 l 688 89 l 688 0 l 97 0 z "},"M":{"ha":1044,"x_min":97,"x_max":947,"o":"m 97 0 l 97 894 l 219 894 l 522 274 l 825 894 l 947 894 l 947 0 l 835 0 l 835 717 l 561 156 l 485 156 l 210 717 l 210 0 l 97 0 z "},"Ṃ":{"ha":1044,"x_min":97,"x_max":947,"o":"m 97 0 l 97 894 l 219 894 l 522 274 l 825 894 l 947 894 l 947 0 l 835 0 l 835 717 l 561 156 l 485 156 l 210 717 l 210 0 l 97 0 m 467 -228 l 467 -121 l 578 -121 l 578 -228 l 467 -228 z "},"N":{"ha":921,"x_min":97,"x_max":824,"o":"m 97 0 l 97 894 l 200 894 l 710 175 l 710 894 l 824 894 l 824 0 l 719 0 l 211 718 l 211 0 l 97 0 z "},"Ń":{"ha":921,"x_min":97,"x_max":824,"o":"m 411 956 l 510 1189 l 613 1189 l 503 956 l 411 956 m 97 0 l 97 894 l 200 894 l 710 175 l 710 894 l 824 894 l 824 0 l 719 0 l 211 718 l 211 0 l 97 0 z "},"Ň":{"ha":921,"x_min":97,"x_max":824,"o":"m 435 956 l 275 1161 l 374 1161 l 481 1019 l 588 1161 l 686 1161 l 526 956 l 435 956 m 97 0 l 97 894 l 200 894 l 710 175 l 710 894 l 824 894 l 824 0 l 719 0 l 211 718 l 211 0 l 97 0 z "},"Ņ":{"ha":921,"x_min":97,"x_max":824,"o":"m 97 0 l 97 894 l 200 894 l 710 175 l 710 894 l 824 894 l 824 0 l 719 0 l 211 718 l 211 0 l 97 0 m 388 -297 l 426 -51 l 529 -51 l 471 -297 l 388 -297 z "},"Ṅ":{"ha":921,"x_min":97,"x_max":824,"o":"m 424 986 l 424 1093 l 535 1093 l 535 986 l 424 986 m 97 0 l 97 894 l 200 894 l 710 175 l 710 894 l 824 894 l 824 0 l 719 0 l 211 718 l 211 0 l 97 0 z "},"Ṇ":{"ha":921,"x_min":97,"x_max":824,"o":"m 97 0 l 97 894 l 200 894 l 710 175 l 710 894 l 824 894 l 824 0 l 719 0 l 211 718 l 211 0 l 97 0 m 404 -228 l 404 -121 l 515 -121 l 515 -228 l 404 -228 z "},"Ŋ":{"ha":921,"x_min":97,"x_max":824,"o":"m 622 -325 q 499 -306 553 -325 l 499 -215 q 544 -226 522 -222 q 583 -229 565 -229 q 684 -204 658 -229 q 710 -121 710 -179 l 710 14 l 211 718 l 211 0 l 97 0 l 97 894 l 200 894 l 710 175 l 710 894 l 824 894 l 824 -131 q 772 -272 824 -219 q 622 -325 721 -325 z "},"Ṉ":{"ha":921,"x_min":97,"x_max":824,"o":"m 97 0 l 97 894 l 200 894 l 710 175 l 710 894 l 824 894 l 824 0 l 719 0 l 211 718 l 211 0 l 97 0 m 268 -181 l 268 -99 l 668 -99 l 668 -181 l 268 -181 z "},"Ñ":{"ha":921,"x_min":97,"x_max":824,"o":"m 561 983 q 490 997 525 983 q 424 1023 456 1010 q 361 1036 392 1036 q 299 1026 328 1036 q 246 988 269 1015 l 246 1075 q 296 1106 263 1094 q 361 1117 329 1117 q 433 1103 400 1117 q 497 1077 465 1090 q 561 1064 528 1064 q 668 1114 632 1064 l 668 1025 q 626 995 654 1007 q 561 983 597 983 m 97 0 l 97 894 l 200 894 l 710 175 l 710 894 l 824 894 l 824 0 l 719 0 l 211 718 l 211 0 l 97 0 z "},"O":{"ha":964,"x_min":69,"x_max":894,"o":"m 482 -14 q 171 97 272 -14 q 69 447 69 207 q 171 798 69 688 q 482 908 272 908 q 794 798 693 908 q 894 447 894 688 q 794 97 894 207 q 482 -14 693 -14 m 482 83 q 649 118 583 83 q 748 233 715 153 q 781 447 781 313 q 748 662 781 582 q 649 776 715 742 q 482 811 583 811 q 315 776 381 811 q 216 662 249 742 q 183 447 183 582 q 216 233 183 313 q 315 118 249 153 q 482 83 381 83 z "},"Ó":{"ha":964,"x_min":69,"x_max":894,"o":"m 433 956 l 532 1189 l 635 1189 l 525 956 l 433 956 m 482 -14 q 171 97 272 -14 q 69 447 69 207 q 171 798 69 688 q 482 908 272 908 q 794 798 693 908 q 894 447 894 688 q 794 97 894 207 q 482 -14 693 -14 m 482 83 q 649 118 583 83 q 748 233 715 153 q 781 447 781 313 q 748 662 781 582 q 649 776 715 742 q 482 811 583 811 q 315 776 381 811 q 216 662 249 742 q 183 447 183 582 q 216 233 183 313 q 315 118 249 153 q 482 83 381 83 z "},"Ŏ":{"ha":964,"x_min":69,"x_max":894,"o":"m 481 956 q 350 1004 394 956 q 306 1131 306 1053 l 386 1131 q 412 1053 386 1078 q 481 1028 438 1028 q 552 1053 526 1028 q 578 1131 578 1078 l 658 1131 q 613 1004 658 1053 q 481 956 568 956 m 482 -14 q 171 97 272 -14 q 69 447 69 207 q 171 798 69 688 q 482 908 272 908 q 794 798 693 908 q 894 447 894 688 q 794 97 894 207 q 482 -14 693 -14 m 482 83 q 649 118 583 83 q 748 233 715 153 q 781 447 781 313 q 748 662 781 582 q 649 776 715 742 q 482 811 583 811 q 315 776 381 811 q 216 662 249 742 q 183 447 183 582 q 216 233 183 313 q 315 118 249 153 q 482 83 381 83 z "},"Ǒ":{"ha":964,"x_min":69,"x_max":894,"o":"m 436 956 l 276 1161 l 375 1161 l 482 1019 l 589 1161 l 688 1161 l 528 956 l 436 956 m 482 -14 q 171 97 272 -14 q 69 447 69 207 q 171 798 69 688 q 482 908 272 908 q 794 798 693 908 q 894 447 894 688 q 794 97 894 207 q 482 -14 693 -14 m 482 83 q 649 118 583 83 q 748 233 715 153 q 781 447 781 313 q 748 662 781 582 q 649 776 715 742 q 482 811 583 811 q 315 776 381 811 q 216 662 249 742 q 183 447 183 582 q 216 233 183 313 q 315 118 249 153 q 482 83 381 83 z "},"Ô":{"ha":964,"x_min":69,"x_max":894,"o":"m 276 956 l 436 1161 l 528 1161 l 688 956 l 589 956 l 482 1097 l 375 956 l 276 956 m 482 -14 q 171 97 272 -14 q 69 447 69 207 q 171 798 69 688 q 482 908 272 908 q 794 798 693 908 q 894 447 894 688 q 794 97 894 207 q 482 -14 693 -14 m 482 83 q 649 118 583 83 q 748 233 715 153 q 781 447 781 313 q 748 662 781 582 q 649 776 715 742 q 482 811 583 811 q 315 776 381 811 q 216 662 249 742 q 183 447 183 582 q 216 233 183 313 q 315 118 249 153 q 482 83 381 83 z "},"Ố":{"ha":964,"x_min":69,"x_max":894,"o":"m 599 1107 l 685 1281 l 775 1281 l 681 1107 l 599 1107 m 288 956 l 442 1119 l 533 1119 l 688 956 l 592 956 l 488 1071 l 385 956 l 288 956 m 482 -14 q 171 97 272 -14 q 69 447 69 207 q 171 798 69 688 q 482 908 272 908 q 794 798 693 908 q 894 447 894 688 q 794 97 894 207 q 482 -14 693 -14 m 482 83 q 649 118 583 83 q 748 233 715 153 q 781 447 781 313 q 748 662 781 582 q 649 776 715 742 q 482 811 583 811 q 315 776 381 811 q 216 662 249 742 q 183 447 183 582 q 216 233 183 313 q 315 118 249 153 q 482 83 381 83 z "},"Ộ":{"ha":964,"x_min":69,"x_max":894,"o":"m 276 956 l 436 1161 l 528 1161 l 688 956 l 589 956 l 482 1097 l 375 956 l 276 956 m 482 -14 q 171 97 272 -14 q 69 447 69 207 q 171 798 69 688 q 482 908 272 908 q 794 798 693 908 q 894 447 894 688 q 794 97 894 207 q 482 -14 693 -14 m 482 83 q 649 118 583 83 q 748 233 715 153 q 781 447 781 313 q 748 662 781 582 q 649 776 715 742 q 482 811 583 811 q 315 776 381 811 q 216 662 249 742 q 183 447 183 582 q 216 233 183 313 q 315 118 249 153 q 482 83 381 83 m 426 -228 l 426 -121 l 538 -121 l 538 -228 l 426 -228 z "},"Ồ":{"ha":964,"x_min":69,"x_max":894,"o":"m 272 1107 l 178 1281 l 268 1281 l 354 1107 l 272 1107 m 265 956 l 419 1119 l 511 1119 l 665 956 l 568 956 l 465 1071 l 361 956 l 265 956 m 482 -14 q 171 97 272 -14 q 69 447 69 207 q 171 798 69 688 q 482 908 272 908 q 794 798 693 908 q 894 447 894 688 q 794 97 894 207 q 482 -14 693 -14 m 482 83 q 649 118 583 83 q 748 233 715 153 q 781 447 781 313 q 748 662 781 582 q 649 776 715 742 q 482 811 583 811 q 315 776 381 811 q 216 662 249 742 q 183 447 183 582 q 216 233 183 313 q 315 118 249 153 q 482 83 381 83 z "},"Ổ":{"ha":964,"x_min":69,"x_max":894,"o":"m 603 1078 l 603 1165 q 693 1183 672 1168 q 714 1224 714 1197 q 644 1274 714 1274 q 601 1269 621 1274 q 565 1257 582 1264 l 565 1317 q 609 1328 585 1324 q 664 1333 633 1333 q 762 1306 726 1333 q 797 1229 797 1278 q 771 1159 797 1185 q 688 1126 744 1133 l 688 1078 l 603 1078 m 281 956 l 435 1119 l 526 1119 l 681 956 l 585 956 l 481 1071 l 378 956 l 281 956 m 482 -14 q 171 97 272 -14 q 69 447 69 207 q 171 798 69 688 q 482 908 272 908 q 794 798 693 908 q 894 447 894 688 q 794 97 894 207 q 482 -14 693 -14 m 482 83 q 649 118 583 83 q 748 233 715 153 q 781 447 781 313 q 748 662 781 582 q 649 776 715 742 q 482 811 583 811 q 315 776 381 811 q 216 662 249 742 q 183 447 183 582 q 216 233 183 313 q 315 118 249 153 q 482 83 381 83 z "},"Ỗ":{"ha":964,"x_min":69,"x_max":894,"o":"m 579 1122 q 514 1135 546 1122 q 452 1159 482 1147 q 394 1171 422 1171 q 337 1161 364 1171 q 289 1126 310 1151 l 289 1204 q 335 1231 304 1221 q 394 1242 365 1242 q 460 1230 431 1242 q 519 1206 490 1218 q 579 1193 549 1193 q 678 1239 644 1193 l 678 1160 q 638 1133 665 1143 q 579 1122 611 1122 m 281 956 l 435 1119 l 526 1119 l 681 956 l 585 956 l 481 1071 l 378 956 l 281 956 m 482 -14 q 171 97 272 -14 q 69 447 69 207 q 171 798 69 688 q 482 908 272 908 q 794 798 693 908 q 894 447 894 688 q 794 97 894 207 q 482 -14 693 -14 m 482 83 q 649 118 583 83 q 748 233 715 153 q 781 447 781 313 q 748 662 781 582 q 649 776 715 742 q 482 811 583 811 q 315 776 381 811 q 216 662 249 742 q 183 447 183 582 q 216 233 183 313 q 315 118 249 153 q 482 83 381 83 z "},"Ö":{"ha":964,"x_min":69,"x_max":894,"o":"m 306 988 l 306 1092 l 414 1092 l 414 988 l 306 988 m 550 988 l 550 1092 l 658 1092 l 658 988 l 550 988 m 482 -14 q 171 97 272 -14 q 69 447 69 207 q 171 798 69 688 q 482 908 272 908 q 794 798 693 908 q 894 447 894 688 q 794 97 894 207 q 482 -14 693 -14 m 482 83 q 649 118 583 83 q 748 233 715 153 q 781 447 781 313 q 748 662 781 582 q 649 776 715 742 q 482 811 583 811 q 315 776 381 811 q 216 662 249 742 q 183 447 183 582 q 216 233 183 313 q 315 118 249 153 q 482 83 381 83 z "},"Ọ":{"ha":964,"x_min":69,"x_max":894,"o":"m 482 -14 q 171 97 272 -14 q 69 447 69 207 q 171 798 69 688 q 482 908 272 908 q 794 798 693 908 q 894 447 894 688 q 794 97 894 207 q 482 -14 693 -14 m 482 83 q 649 118 583 83 q 748 233 715 153 q 781 447 781 313 q 748 662 781 582 q 649 776 715 742 q 482 811 583 811 q 315 776 381 811 q 216 662 249 742 q 183 447 183 582 q 216 233 183 313 q 315 118 249 153 q 482 83 381 83 m 426 -228 l 426 -121 l 538 -121 l 538 -228 l 426 -228 z "},"Ò":{"ha":964,"x_min":69,"x_max":894,"o":"m 444 956 l 335 1189 l 438 1189 l 536 956 l 444 956 m 482 -14 q 171 97 272 -14 q 69 447 69 207 q 171 798 69 688 q 482 908 272 908 q 794 798 693 908 q 894 447 894 688 q 794 97 894 207 q 482 -14 693 -14 m 482 83 q 649 118 583 83 q 748 233 715 153 q 781 447 781 313 q 748 662 781 582 q 649 776 715 742 q 482 811 583 811 q 315 776 381 811 q 216 662 249 742 q 183 447 183 582 q 216 233 183 313 q 315 118 249 153 q 482 83 381 83 z "},"Ỏ":{"ha":964,"x_min":69,"x_max":894,"o":"m 439 956 l 439 1071 q 544 1091 521 1075 q 568 1143 568 1107 q 542 1192 568 1178 q 460 1206 515 1206 q 412 1201 438 1206 q 368 1189 386 1196 l 368 1260 q 422 1273 389 1268 q 486 1278 456 1278 q 611 1244 568 1278 q 654 1151 654 1211 q 627 1064 654 1096 q 531 1022 600 1032 l 531 956 l 439 956 m 482 -14 q 171 97 272 -14 q 69 447 69 207 q 171 798 69 688 q 482 908 272 908 q 794 798 693 908 q 894 447 894 688 q 794 97 894 207 q 482 -14 693 -14 m 482 83 q 649 118 583 83 q 748 233 715 153 q 781 447 781 313 q 748 662 781 582 q 649 776 715 742 q 482 811 583 811 q 315 776 381 811 q 216 662 249 742 q 183 447 183 582 q 216 233 183 313 q 315 118 249 153 q 482 83 381 83 z "},"Ơ":{"ha":1056,"x_min":69,"x_max":1028,"o":"m 482 -14 q 171 97 272 -14 q 69 447 69 207 q 171 798 69 688 q 482 908 272 908 q 794 797 693 908 q 901 831 874 799 q 929 956 929 864 l 1028 956 q 982 776 1028 832 q 850 708 936 719 q 894 447 894 604 q 794 97 894 207 q 482 -14 693 -14 m 482 83 q 649 118 583 83 q 748 233 715 153 q 781 447 781 313 q 748 662 781 582 q 649 776 715 742 q 482 811 583 811 q 315 776 381 811 q 216 662 249 742 q 183 447 183 582 q 216 233 183 313 q 315 118 249 153 q 482 83 381 83 z "},"Ớ":{"ha":1056,"x_min":69,"x_max":1028,"o":"m 451 956 l 550 1189 l 653 1189 l 543 956 l 451 956 m 482 -14 q 171 97 272 -14 q 69 447 69 207 q 171 798 69 688 q 482 908 272 908 q 794 797 693 908 q 901 831 874 799 q 929 956 929 864 l 1028 956 q 982 776 1028 832 q 850 708 936 719 q 894 447 894 604 q 794 97 894 207 q 482 -14 693 -14 m 482 83 q 649 118 583 83 q 748 233 715 153 q 781 447 781 313 q 748 662 781 582 q 649 776 715 742 q 482 811 583 811 q 315 776 381 811 q 216 662 249 742 q 183 447 183 582 q 216 233 183 313 q 315 118 249 153 q 482 83 381 83 z "},"Ợ":{"ha":1056,"x_min":69,"x_max":1028,"o":"m 482 -14 q 171 97 272 -14 q 69 447 69 207 q 171 798 69 688 q 482 908 272 908 q 794 797 693 908 q 901 831 874 799 q 929 956 929 864 l 1028 956 q 982 776 1028 832 q 850 708 936 719 q 894 447 894 604 q 794 97 894 207 q 482 -14 693 -14 m 482 83 q 649 118 583 83 q 748 233 715 153 q 781 447 781 313 q 748 662 781 582 q 649 776 715 742 q 482 811 583 811 q 315 776 381 811 q 216 662 249 742 q 183 447 183 582 q 216 233 183 313 q 315 118 249 153 q 482 83 381 83 m 432 -228 l 432 -121 l 543 -121 l 543 -228 l 432 -228 z "},"Ờ":{"ha":1056,"x_min":69,"x_max":1028,"o":"m 460 956 l 350 1189 l 453 1189 l 551 956 l 460 956 m 482 -14 q 171 97 272 -14 q 69 447 69 207 q 171 798 69 688 q 482 908 272 908 q 794 797 693 908 q 901 831 874 799 q 929 956 929 864 l 1028 956 q 982 776 1028 832 q 850 708 936 719 q 894 447 894 604 q 794 97 894 207 q 482 -14 693 -14 m 482 83 q 649 118 583 83 q 748 233 715 153 q 781 447 781 313 q 748 662 781 582 q 649 776 715 742 q 482 811 583 811 q 315 776 381 811 q 216 662 249 742 q 183 447 183 582 q 216 233 183 313 q 315 118 249 153 q 482 83 381 83 z "},"Ở":{"ha":1056,"x_min":69,"x_max":1028,"o":"m 447 956 l 447 1071 q 553 1091 529 1075 q 576 1143 576 1107 q 550 1192 576 1178 q 468 1206 524 1206 q 420 1201 446 1206 q 376 1189 394 1196 l 376 1260 q 431 1273 397 1268 q 494 1278 464 1278 q 619 1244 576 1278 q 663 1151 663 1211 q 635 1064 663 1096 q 539 1022 608 1032 l 539 956 l 447 956 m 482 -14 q 171 97 272 -14 q 69 447 69 207 q 171 798 69 688 q 482 908 272 908 q 794 797 693 908 q 901 831 874 799 q 929 956 929 864 l 1028 956 q 982 776 1028 832 q 850 708 936 719 q 894 447 894 604 q 794 97 894 207 q 482 -14 693 -14 m 482 83 q 649 118 583 83 q 748 233 715 153 q 781 447 781 313 q 748 662 781 582 q 649 776 715 742 q 482 811 583 811 q 315 776 381 811 q 216 662 249 742 q 183 447 183 582 q 216 233 183 313 q 315 118 249 153 q 482 83 381 83 z "},"Ỡ":{"ha":1056,"x_min":69,"x_max":1028,"o":"m 608 982 q 538 995 572 982 q 471 1022 503 1008 q 408 1035 439 1035 q 346 1024 375 1035 q 293 986 317 1014 l 293 1074 q 343 1104 310 1093 q 408 1115 376 1115 q 480 1102 447 1115 q 544 1076 513 1089 q 608 1063 575 1063 q 715 1113 679 1063 l 715 1024 q 673 994 701 1006 q 608 982 644 982 m 482 -14 q 171 97 272 -14 q 69 447 69 207 q 171 798 69 688 q 482 908 272 908 q 794 797 693 908 q 901 831 874 799 q 929 956 929 864 l 1028 956 q 982 776 1028 832 q 850 708 936 719 q 894 447 894 604 q 794 97 894 207 q 482 -14 693 -14 m 482 83 q 649 118 583 83 q 748 233 715 153 q 781 447 781 313 q 748 662 781 582 q 649 776 715 742 q 482 811 583 811 q 315 776 381 811 q 216 662 249 742 q 183 447 183 582 q 216 233 183 313 q 315 118 249 153 q 482 83 381 83 z "},"Ő":{"ha":964,"x_min":69,"x_max":894,"o":"m 261 956 l 360 1167 l 468 1167 l 356 956 l 261 956 m 547 956 l 646 1167 l 754 1167 l 642 956 l 547 956 m 482 -14 q 171 97 272 -14 q 69 447 69 207 q 171 798 69 688 q 482 908 272 908 q 794 798 693 908 q 894 447 894 688 q 794 97 894 207 q 482 -14 693 -14 m 482 83 q 649 118 583 83 q 748 233 715 153 q 781 447 781 313 q 748 662 781 582 q 649 776 715 742 q 482 811 583 811 q 315 776 381 811 q 216 662 249 742 q 183 447 183 582 q 216 233 183 313 q 315 118 249 153 q 482 83 381 83 z "},"Ō":{"ha":964,"x_min":69,"x_max":894,"o":"m 282 1000 l 282 1082 l 682 1082 l 682 1000 l 282 1000 m 482 -14 q 171 97 272 -14 q 69 447 69 207 q 171 798 69 688 q 482 908 272 908 q 794 798 693 908 q 894 447 894 688 q 794 97 894 207 q 482 -14 693 -14 m 482 83 q 649 118 583 83 q 748 233 715 153 q 781 447 781 313 q 748 662 781 582 q 649 776 715 742 q 482 811 583 811 q 315 776 381 811 q 216 662 249 742 q 183 447 183 582 q 216 233 183 313 q 315 118 249 153 q 482 83 381 83 z "},"Ø":{"ha":964,"x_min":69,"x_max":894,"o":"m 235 -74 l 271 24 q 69 447 69 114 q 171 798 69 688 q 482 908 272 908 q 539 906 511 908 q 592 899 567 903 l 615 963 l 715 963 l 682 874 q 842 726 789 831 q 894 447 894 621 q 794 97 894 207 q 482 -14 693 -14 q 418 -11 449 -14 q 360 -3 388 -8 l 335 -74 l 235 -74 m 307 122 l 557 806 q 520 810 539 808 q 482 811 501 811 q 315 776 381 811 q 216 662 249 742 q 183 447 183 582 q 214 238 183 317 q 307 122 244 158 m 482 83 q 649 118 583 83 q 748 233 715 153 q 781 447 781 313 q 747 663 781 583 q 647 778 714 743 l 394 90 q 436 85 414 88 q 482 83 458 83 z "},"Ǿ":{"ha":964,"x_min":69,"x_max":894,"o":"m 418 956 l 517 1189 l 619 1189 l 510 956 l 418 956 m 235 -74 l 271 24 q 69 447 69 114 q 171 798 69 688 q 482 908 272 908 q 539 906 511 908 q 592 899 567 903 l 615 963 l 715 963 l 682 874 q 842 726 789 831 q 894 447 894 621 q 794 97 894 207 q 482 -14 693 -14 q 418 -11 449 -14 q 360 -3 388 -8 l 335 -74 l 235 -74 m 307 122 l 557 806 q 520 810 539 808 q 482 811 501 811 q 315 776 381 811 q 216 662 249 742 q 183 447 183 582 q 214 238 183 317 q 307 122 244 158 m 482 83 q 649 118 583 83 q 748 233 715 153 q 781 447 781 313 q 747 663 781 583 q 647 778 714 743 l 394 90 q 436 85 414 88 q 482 83 458 83 z "},"Õ":{"ha":964,"x_min":69,"x_max":894,"o":"m 586 990 q 515 1003 550 990 q 449 1030 481 1017 q 386 1043 417 1043 q 324 1033 353 1043 q 271 994 294 1022 l 271 1082 q 321 1113 288 1101 q 386 1124 354 1124 q 458 1110 425 1124 q 522 1084 490 1097 q 586 1071 553 1071 q 693 1121 657 1071 l 693 1032 q 651 1002 679 1014 q 586 990 622 990 m 482 -14 q 171 97 272 -14 q 69 447 69 207 q 171 798 69 688 q 482 908 272 908 q 794 798 693 908 q 894 447 894 688 q 794 97 894 207 q 482 -14 693 -14 m 482 83 q 649 118 583 83 q 748 233 715 153 q 781 447 781 313 q 748 662 781 582 q 649 776 715 742 q 482 811 583 811 q 315 776 381 811 q 216 662 249 742 q 183 447 183 582 q 216 233 183 313 q 315 118 249 153 q 482 83 381 83 z "},"Œ":{"ha":1454,"x_min":69,"x_max":1385,"o":"m 482 -14 q 171 97 272 -14 q 69 447 69 207 q 171 798 69 688 q 482 908 272 908 q 781 811 681 908 l 781 894 l 1385 894 l 1385 804 l 894 804 l 894 492 l 1335 492 l 1335 403 l 894 403 l 894 89 l 1385 89 l 1385 0 l 781 0 l 781 83 q 482 -14 681 -14 m 482 83 q 649 118 583 83 q 748 233 715 153 q 781 447 781 313 q 748 662 781 582 q 649 776 715 742 q 482 811 583 811 q 315 776 381 811 q 216 662 249 742 q 183 447 183 582 q 216 233 183 313 q 315 118 249 153 q 482 83 381 83 z "},"P":{"ha":808,"x_min":97,"x_max":767,"o":"m 97 0 l 97 894 l 475 894 q 696 814 625 894 q 767 606 767 733 q 687 399 767 475 q 469 324 607 324 l 211 324 l 211 0 l 97 0 m 211 413 l 451 413 q 602 465 551 413 q 653 606 653 517 q 605 752 653 700 q 458 804 557 804 l 211 804 l 211 413 z "},"Þ":{"ha":808,"x_min":97,"x_max":767,"o":"m 97 0 l 97 894 l 211 894 l 211 731 l 475 731 q 696 651 625 731 q 767 444 767 572 q 687 237 767 314 q 469 160 607 160 l 211 160 l 211 0 l 97 0 m 211 249 l 451 249 q 602 302 551 249 q 653 444 653 356 q 605 590 653 539 q 458 640 557 640 l 211 640 l 211 249 z "},"Q":{"ha":964,"x_min":69,"x_max":894,"o":"m 613 -239 q 469 -178 514 -239 q 421 -11 424 -118 q 156 115 243 4 q 69 447 69 225 q 171 798 69 688 q 482 908 272 908 q 794 798 693 908 q 894 447 894 688 q 806 110 894 221 q 532 -12 717 0 q 555 -113 533 -85 q 635 -142 576 -142 q 733 -128 685 -142 l 733 -224 q 678 -234 711 -229 q 613 -239 644 -239 m 482 83 q 649 118 583 83 q 748 233 715 153 q 781 447 781 313 q 748 662 781 582 q 649 776 715 742 q 482 811 583 811 q 315 776 381 811 q 216 662 249 742 q 183 447 183 582 q 216 233 183 313 q 315 118 249 153 q 482 83 381 83 z "},"R":{"ha":836,"x_min":97,"x_max":767,"o":"m 97 0 l 97 894 l 490 894 q 701 819 635 894 q 767 617 767 744 q 719 453 767 518 q 576 365 671 388 q 619 327 604 349 q 649 269 633 306 l 765 0 l 649 0 l 535 260 q 491 319 517 301 q 400 338 465 338 l 211 338 l 211 0 l 97 0 m 211 426 l 458 426 q 601 472 549 426 q 653 617 653 517 q 474 804 653 804 l 211 804 l 211 426 z "},"Ŕ":{"ha":836,"x_min":97,"x_max":767,"o":"m 340 956 l 439 1189 l 542 1189 l 432 956 l 340 956 m 97 0 l 97 894 l 490 894 q 701 819 635 894 q 767 617 767 744 q 719 453 767 518 q 576 365 671 388 q 619 327 604 349 q 649 269 633 306 l 765 0 l 649 0 l 535 260 q 491 319 517 301 q 400 338 465 338 l 211 338 l 211 0 l 97 0 m 211 426 l 458 426 q 601 472 549 426 q 653 617 653 517 q 474 804 653 804 l 211 804 l 211 426 z "},"Ř":{"ha":836,"x_min":97,"x_max":767,"o":"m 356 956 l 196 1161 l 294 1161 l 401 1019 l 508 1161 l 607 1161 l 447 956 l 356 956 m 97 0 l 97 894 l 490 894 q 701 819 635 894 q 767 617 767 744 q 719 453 767 518 q 576 365 671 388 q 619 327 604 349 q 649 269 633 306 l 765 0 l 649 0 l 535 260 q 491 319 517 301 q 400 338 465 338 l 211 338 l 211 0 l 97 0 m 211 426 l 458 426 q 601 472 549 426 q 653 617 653 517 q 474 804 653 804 l 211 804 l 211 426 z "},"Ŗ":{"ha":836,"x_min":97,"x_max":767,"o":"m 97 0 l 97 894 l 490 894 q 701 819 635 894 q 767 617 767 744 q 719 453 767 518 q 576 365 671 388 q 619 327 604 349 q 649 269 633 306 l 765 0 l 649 0 l 535 260 q 491 319 517 301 q 400 338 465 338 l 211 338 l 211 0 l 97 0 m 211 426 l 458 426 q 601 472 549 426 q 653 617 653 517 q 474 804 653 804 l 211 804 l 211 426 m 307 -297 l 346 -51 l 449 -51 l 390 -297 l 307 -297 z "},"Ṛ":{"ha":836,"x_min":97,"x_max":767,"o":"m 97 0 l 97 894 l 490 894 q 701 819 635 894 q 767 617 767 744 q 719 453 767 518 q 576 365 671 388 q 619 327 604 349 q 649 269 633 306 l 765 0 l 649 0 l 535 260 q 491 319 517 301 q 400 338 465 338 l 211 338 l 211 0 l 97 0 m 211 426 l 458 426 q 601 472 549 426 q 653 617 653 517 q 474 804 653 804 l 211 804 l 211 426 m 349 -228 l 349 -121 l 460 -121 l 460 -228 l 349 -228 z "},"Ṝ":{"ha":836,"x_min":97,"x_max":767,"o":"m 207 996 l 207 1078 l 607 1078 l 607 996 l 207 996 m 97 0 l 97 894 l 490 894 q 701 819 635 894 q 767 617 767 744 q 719 453 767 518 q 576 365 671 388 q 619 327 604 349 q 649 269 633 306 l 765 0 l 649 0 l 535 260 q 491 319 517 301 q 400 338 465 338 l 211 338 l 211 0 l 97 0 m 211 426 l 458 426 q 601 472 549 426 q 653 617 653 517 q 474 804 653 804 l 211 804 l 211 426 m 349 -228 l 349 -121 l 460 -121 l 460 -228 l 349 -228 z "},"Ṟ":{"ha":836,"x_min":97,"x_max":767,"o":"m 97 0 l 97 894 l 490 894 q 701 819 635 894 q 767 617 767 744 q 719 453 767 518 q 576 365 671 388 q 619 327 604 349 q 649 269 633 306 l 765 0 l 649 0 l 535 260 q 491 319 517 301 q 400 338 465 338 l 211 338 l 211 0 l 97 0 m 211 426 l 458 426 q 601 472 549 426 q 653 617 653 517 q 474 804 653 804 l 211 804 l 211 426 m 204 -181 l 204 -99 l 604 -99 l 604 -181 l 204 -181 z "},"S":{"ha":772,"x_min":69,"x_max":703,"o":"m 360 -14 q 90 28 193 -14 l 90 129 q 215 95 149 107 q 350 83 281 83 q 529 116 469 83 q 589 233 589 149 q 565 317 589 286 q 485 370 540 349 q 336 414 429 392 q 129 508 189 450 q 69 663 69 565 q 151 842 69 776 q 401 908 233 908 q 546 897 479 908 q 649 874 613 886 l 649 774 q 540 801 599 792 q 419 811 482 811 q 244 778 306 811 q 183 663 183 744 q 205 588 183 617 q 278 540 226 560 q 421 497 329 519 q 592 434 531 471 q 678 347 653 397 q 703 233 703 297 q 617 51 703 115 q 360 -14 531 -14 z "},"Ś":{"ha":772,"x_min":69,"x_max":703,"o":"m 310 956 l 408 1189 l 511 1189 l 401 956 l 310 956 m 360 -14 q 90 28 193 -14 l 90 129 q 215 95 149 107 q 350 83 281 83 q 529 116 469 83 q 589 233 589 149 q 565 317 589 286 q 485 370 540 349 q 336 414 429 392 q 129 508 189 450 q 69 663 69 565 q 151 842 69 776 q 401 908 233 908 q 546 897 479 908 q 649 874 613 886 l 649 774 q 540 801 599 792 q 419 811 482 811 q 244 778 306 811 q 183 663 183 744 q 205 588 183 617 q 278 540 226 560 q 421 497 329 519 q 592 434 531 471 q 678 347 653 397 q 703 233 703 297 q 617 51 703 115 q 360 -14 531 -14 z "},"Š":{"ha":772,"x_min":69,"x_max":703,"o":"m 365 956 l 206 1161 l 304 1161 l 411 1019 l 518 1161 l 617 1161 l 457 956 l 365 956 m 360 -14 q 90 28 193 -14 l 90 129 q 215 95 149 107 q 350 83 281 83 q 529 116 469 83 q 589 233 589 149 q 565 317 589 286 q 485 370 540 349 q 336 414 429 392 q 129 508 189 450 q 69 663 69 565 q 151 842 69 776 q 401 908 233 908 q 546 897 479 908 q 649 874 613 886 l 649 774 q 540 801 599 792 q 419 811 482 811 q 244 778 306 811 q 183 663 183 744 q 205 588 183 617 q 278 540 226 560 q 421 497 329 519 q 592 434 531 471 q 678 347 653 397 q 703 233 703 297 q 617 51 703 115 q 360 -14 531 -14 z "},"Ş":{"ha":772,"x_min":69,"x_max":703,"o":"m 336 -333 q 284 -330 314 -333 q 239 -322 254 -326 l 239 -253 q 326 -264 279 -264 q 422 -249 392 -264 q 451 -190 451 -233 q 422 -138 451 -150 q 333 -126 393 -126 l 282 -126 l 318 -14 q 90 28 179 -8 l 90 129 q 215 95 149 107 q 350 83 281 83 q 529 116 469 83 q 589 233 589 149 q 565 317 589 286 q 485 370 540 349 q 336 414 429 392 q 129 508 189 450 q 69 663 69 565 q 151 842 69 776 q 401 908 233 908 q 546 897 479 908 q 649 874 613 886 l 649 774 q 540 801 599 792 q 419 811 482 811 q 244 778 306 811 q 183 663 183 744 q 205 588 183 617 q 278 540 226 560 q 421 497 329 519 q 592 434 531 471 q 678 347 653 397 q 703 233 703 297 q 626 58 703 121 q 399 -12 550 -6 l 381 -67 q 496 -99 457 -67 q 535 -192 535 -132 q 487 -297 535 -260 q 336 -333 439 -333 z "},"Ŝ":{"ha":772,"x_min":69,"x_max":703,"o":"m 185 956 l 344 1161 l 436 1161 l 596 956 l 497 956 l 390 1097 l 283 956 l 185 956 m 360 -14 q 90 28 193 -14 l 90 129 q 215 95 149 107 q 350 83 281 83 q 529 116 469 83 q 589 233 589 149 q 565 317 589 286 q 485 370 540 349 q 336 414 429 392 q 129 508 189 450 q 69 663 69 565 q 151 842 69 776 q 401 908 233 908 q 546 897 479 908 q 649 874 613 886 l 649 774 q 540 801 599 792 q 419 811 482 811 q 244 778 306 811 q 183 663 183 744 q 205 588 183 617 q 278 540 226 560 q 421 497 329 519 q 592 434 531 471 q 678 347 653 397 q 703 233 703 297 q 617 51 703 115 q 360 -14 531 -14 z "},"Ș":{"ha":772,"x_min":69,"x_max":703,"o":"m 360 -14 q 90 28 193 -14 l 90 129 q 215 95 149 107 q 350 83 281 83 q 529 116 469 83 q 589 233 589 149 q 565 317 589 286 q 485 370 540 349 q 336 414 429 392 q 129 508 189 450 q 69 663 69 565 q 151 842 69 776 q 401 908 233 908 q 546 897 479 908 q 649 874 613 886 l 649 774 q 540 801 599 792 q 419 811 482 811 q 244 778 306 811 q 183 663 183 744 q 205 588 183 617 q 278 540 226 560 q 421 497 329 519 q 592 434 531 471 q 678 347 653 397 q 703 233 703 297 q 617 51 703 115 q 360 -14 531 -14 m 285 -303 l 322 -72 l 426 -72 l 372 -303 l 285 -303 z "},"Ṡ":{"ha":772,"x_min":69,"x_max":703,"o":"m 333 986 l 333 1093 l 444 1093 l 444 986 l 333 986 m 360 -14 q 90 28 193 -14 l 90 129 q 215 95 149 107 q 350 83 281 83 q 529 116 469 83 q 589 233 589 149 q 565 317 589 286 q 485 370 540 349 q 336 414 429 392 q 129 508 189 450 q 69 663 69 565 q 151 842 69 776 q 401 908 233 908 q 546 897 479 908 q 649 874 613 886 l 649 774 q 540 801 599 792 q 419 811 482 811 q 244 778 306 811 q 183 663 183 744 q 205 588 183 617 q 278 540 226 560 q 421 497 329 519 q 592 434 531 471 q 678 347 653 397 q 703 233 703 297 q 617 51 703 115 q 360 -14 531 -14 z "},"Ṣ":{"ha":772,"x_min":69,"x_max":703,"o":"m 360 -14 q 90 28 193 -14 l 90 129 q 215 95 149 107 q 350 83 281 83 q 529 116 469 83 q 589 233 589 149 q 565 317 589 286 q 485 370 540 349 q 336 414 429 392 q 129 508 189 450 q 69 663 69 565 q 151 842 69 776 q 401 908 233 908 q 546 897 479 908 q 649 874 613 886 l 649 774 q 540 801 599 792 q 419 811 482 811 q 244 778 306 811 q 183 663 183 744 q 205 588 183 617 q 278 540 226 560 q 421 497 329 519 q 592 434 531 471 q 678 347 653 397 q 703 233 703 297 q 617 51 703 115 q 360 -14 531 -14 m 311 -228 l 311 -121 l 422 -121 l 422 -228 l 311 -228 z "},"ẞ":{"ha":865,"x_min":90,"x_max":796,"o":"m 525 -14 q 418 -6 469 -14 q 325 17 367 1 l 325 114 q 412 90 364 97 q 507 83 460 83 q 682 253 682 83 q 644 362 682 331 q 517 393 606 393 l 381 393 l 381 500 l 647 667 q 598 770 647 729 q 429 811 549 811 q 258 762 313 811 q 204 606 204 713 l 204 0 l 90 0 l 90 604 q 178 830 90 751 q 429 908 267 908 q 617 872 544 908 q 722 772 689 835 q 756 632 756 710 l 501 476 l 567 476 q 736 415 676 476 q 796 251 796 354 q 725 58 796 129 q 525 -14 654 -14 z "},"Ə":{"ha":931,"x_min":69,"x_max":861,"o":"m 446 -14 q 233 33 317 -14 q 110 163 150 81 q 69 351 69 246 l 69 499 l 757 499 q 715 678 753 608 q 595 783 676 749 q 378 817 514 817 q 250 803 318 817 q 125 765 182 789 l 125 857 q 256 894 182 881 q 403 908 329 908 q 751 791 640 908 q 861 438 861 674 q 819 197 861 299 q 685 41 776 96 q 446 -14 594 -14 m 446 78 q 682 163 607 78 q 757 417 757 249 l 171 417 l 171 333 q 243 142 171 207 q 446 78 315 78 z "},"T":{"ha":792,"x_min":42,"x_max":750,"o":"m 339 0 l 339 804 l 42 804 l 42 894 l 750 894 l 750 804 l 453 804 l 453 0 l 339 0 z "},"Ŧ":{"ha":792,"x_min":42,"x_max":750,"o":"m 339 0 l 339 444 l 124 444 l 124 531 l 339 531 l 339 804 l 42 804 l 42 894 l 750 894 l 750 804 l 453 804 l 453 531 l 626 531 l 626 444 l 453 444 l 453 0 l 339 0 z "},"Ť":{"ha":792,"x_min":42,"x_max":750,"o":"m 350 956 l 190 1161 l 289 1161 l 396 1019 l 503 1161 l 601 1161 l 442 956 l 350 956 m 339 0 l 339 804 l 42 804 l 42 894 l 750 894 l 750 804 l 453 804 l 453 0 l 339 0 z "},"Ţ":{"ha":792,"x_min":42,"x_max":750,"o":"m 339 0 l 339 804 l 42 804 l 42 894 l 750 894 l 750 804 l 453 804 l 453 0 l 435 0 l 413 -67 q 528 -99 489 -67 q 567 -192 567 -132 q 519 -297 567 -260 q 368 -333 471 -333 q 316 -330 346 -333 q 271 -322 286 -326 l 271 -253 q 358 -264 311 -264 q 453 -249 424 -264 q 483 -190 483 -233 q 454 -138 483 -150 q 365 -126 425 -126 l 314 -126 l 354 0 l 339 0 z "},"Ț":{"ha":792,"x_min":42,"x_max":750,"o":"m 339 0 l 339 804 l 42 804 l 42 894 l 750 894 l 750 804 l 453 804 l 453 0 l 339 0 m 308 -304 l 347 -58 l 450 -58 l 392 -304 l 308 -304 z "},"Ṭ":{"ha":792,"x_min":42,"x_max":750,"o":"m 339 0 l 339 804 l 42 804 l 42 894 l 750 894 l 750 804 l 453 804 l 453 0 l 339 0 m 340 -221 l 340 -114 l 451 -114 l 451 -221 l 340 -221 z "},"Ṯ":{"ha":792,"x_min":42,"x_max":750,"o":"m 339 0 l 339 804 l 42 804 l 42 894 l 750 894 l 750 804 l 453 804 l 453 0 l 339 0 m 196 -174 l 196 -92 l 596 -92 l 596 -174 l 196 -174 z "},"U":{"ha":932,"x_min":90,"x_max":842,"o":"m 467 -14 q 187 74 283 -14 q 90 328 90 161 l 90 894 l 204 894 l 204 326 q 273 144 204 204 q 467 83 342 83 q 659 144 590 83 q 728 326 728 204 l 728 894 l 842 894 l 842 328 q 745 74 842 161 q 467 -14 649 -14 z "},"Ú":{"ha":932,"x_min":90,"x_max":842,"o":"m 410 956 l 508 1189 l 611 1189 l 501 956 l 410 956 m 467 -14 q 187 74 283 -14 q 90 328 90 161 l 90 894 l 204 894 l 204 326 q 273 144 204 204 q 467 83 342 83 q 659 144 590 83 q 728 326 728 204 l 728 894 l 842 894 l 842 328 q 745 74 842 161 q 467 -14 649 -14 z "},"Ŭ":{"ha":932,"x_min":90,"x_max":842,"o":"m 438 956 q 307 1004 351 956 q 263 1131 263 1053 l 343 1131 q 369 1053 343 1078 q 438 1028 394 1028 q 509 1053 483 1028 q 535 1131 535 1078 l 615 1131 q 570 1004 615 1053 q 438 956 525 956 m 467 -14 q 187 74 283 -14 q 90 328 90 161 l 90 894 l 204 894 l 204 326 q 273 144 204 204 q 467 83 342 83 q 659 144 590 83 q 728 326 728 204 l 728 894 l 842 894 l 842 328 q 745 74 842 161 q 467 -14 649 -14 z "},"Ǔ":{"ha":932,"x_min":90,"x_max":842,"o":"m 419 956 l 260 1161 l 358 1161 l 465 1019 l 572 1161 l 671 1161 l 511 956 l 419 956 m 467 -14 q 187 74 283 -14 q 90 328 90 161 l 90 894 l 204 894 l 204 326 q 273 144 204 204 q 467 83 342 83 q 659 144 590 83 q 728 326 728 204 l 728 894 l 842 894 l 842 328 q 745 74 842 161 q 467 -14 649 -14 z "},"Û":{"ha":932,"x_min":90,"x_max":842,"o":"m 260 956 l 419 1161 l 511 1161 l 671 956 l 572 956 l 465 1097 l 358 956 l 260 956 m 467 -14 q 187 74 283 -14 q 90 328 90 161 l 90 894 l 204 894 l 204 326 q 273 144 204 204 q 467 83 342 83 q 659 144 590 83 q 728 326 728 204 l 728 894 l 842 894 l 842 328 q 745 74 842 161 q 467 -14 649 -14 z "},"Ü":{"ha":932,"x_min":90,"x_max":842,"o":"m 272 988 l 272 1092 l 381 1092 l 381 988 l 272 988 m 517 988 l 517 1092 l 625 1092 l 625 988 l 517 988 m 467 -14 q 187 74 283 -14 q 90 328 90 161 l 90 894 l 204 894 l 204 326 q 273 144 204 204 q 467 83 342 83 q 659 144 590 83 q 728 326 728 204 l 728 894 l 842 894 l 842 328 q 745 74 842 161 q 467 -14 649 -14 z "},"Ǘ":{"ha":932,"x_min":90,"x_max":842,"o":"m 422 1071 l 508 1244 l 599 1244 l 504 1071 l 422 1071 m 276 956 l 276 1060 l 385 1060 l 385 956 l 276 956 m 549 956 l 549 1060 l 657 1060 l 657 956 l 549 956 m 467 -14 q 187 74 283 -14 q 90 328 90 161 l 90 894 l 204 894 l 204 326 q 273 144 204 204 q 467 83 342 83 q 659 144 590 83 q 728 326 728 204 l 728 894 l 842 894 l 842 328 q 745 74 842 161 q 467 -14 649 -14 z "},"Ǚ":{"ha":932,"x_min":90,"x_max":842,"o":"m 419 1071 l 265 1235 l 363 1235 l 465 1119 l 569 1235 l 665 1235 l 511 1071 l 419 1071 m 269 956 l 269 1060 l 378 1060 l 378 956 l 269 956 m 542 956 l 542 1060 l 650 1060 l 650 956 l 542 956 m 467 -14 q 187 74 283 -14 q 90 328 90 161 l 90 894 l 204 894 l 204 326 q 273 144 204 204 q 467 83 342 83 q 659 144 590 83 q 728 326 728 204 l 728 894 l 842 894 l 842 328 q 745 74 842 161 q 467 -14 649 -14 z "},"Ǜ":{"ha":932,"x_min":90,"x_max":842,"o":"m 428 1071 l 333 1244 l 424 1244 l 510 1071 l 428 1071 m 275 956 l 275 1060 l 383 1060 l 383 956 l 275 956 m 547 956 l 547 1060 l 656 1060 l 656 956 l 547 956 m 467 -14 q 187 74 283 -14 q 90 328 90 161 l 90 894 l 204 894 l 204 326 q 273 144 204 204 q 467 83 342 83 q 659 144 590 83 q 728 326 728 204 l 728 894 l 842 894 l 842 328 q 745 74 842 161 q 467 -14 649 -14 z "},"Ǖ":{"ha":932,"x_min":90,"x_max":842,"o":"m 267 1147 l 267 1229 l 667 1229 l 667 1147 l 267 1147 m 289 979 l 289 1083 l 397 1083 l 397 979 l 289 979 m 533 979 l 533 1083 l 642 1083 l 642 979 l 533 979 m 467 -14 q 187 74 283 -14 q 90 328 90 161 l 90 894 l 204 894 l 204 326 q 273 144 204 204 q 467 83 342 83 q 659 144 590 83 q 728 326 728 204 l 728 894 l 842 894 l 842 328 q 745 74 842 161 q 467 -14 649 -14 z "},"Ụ":{"ha":932,"x_min":90,"x_max":842,"o":"m 467 -14 q 187 74 283 -14 q 90 328 90 161 l 90 894 l 204 894 l 204 326 q 273 144 204 204 q 467 83 342 83 q 659 144 590 83 q 728 326 728 204 l 728 894 l 842 894 l 842 328 q 745 74 842 161 q 467 -14 649 -14 m 410 -228 l 410 -121 l 521 -121 l 521 -228 l 410 -228 z "},"Ù":{"ha":932,"x_min":90,"x_max":842,"o":"m 443 956 l 333 1189 l 436 1189 l 535 956 l 443 956 m 467 -14 q 187 74 283 -14 q 90 328 90 161 l 90 894 l 204 894 l 204 326 q 273 144 204 204 q 467 83 342 83 q 659 144 590 83 q 728 326 728 204 l 728 894 l 842 894 l 842 328 q 745 74 842 161 q 467 -14 649 -14 z "},"Ủ":{"ha":932,"x_min":90,"x_max":842,"o":"m 415 956 l 415 1071 q 521 1091 497 1075 q 544 1143 544 1107 q 518 1192 544 1178 q 436 1206 492 1206 q 388 1201 414 1206 q 344 1189 363 1196 l 344 1260 q 399 1273 365 1268 q 463 1278 432 1278 q 588 1244 544 1278 q 631 1151 631 1211 q 603 1064 631 1096 q 507 1022 576 1032 l 507 956 l 415 956 m 467 -14 q 187 74 283 -14 q 90 328 90 161 l 90 894 l 204 894 l 204 326 q 273 144 204 204 q 467 83 342 83 q 659 144 590 83 q 728 326 728 204 l 728 894 l 842 894 l 842 328 q 745 74 842 161 q 467 -14 649 -14 z "},"Ư":{"ha":1076,"x_min":90,"x_max":1076,"o":"m 467 -14 q 187 74 283 -14 q 90 328 90 161 l 90 894 l 204 894 l 204 326 q 273 144 204 204 q 467 83 342 83 q 659 144 590 83 q 728 326 728 204 l 728 894 l 842 894 l 842 790 q 950 827 922 792 q 978 956 978 863 l 1076 956 q 1018 758 1076 814 q 842 701 960 703 l 842 328 q 745 74 842 161 q 467 -14 649 -14 z "},"Ứ":{"ha":1076,"x_min":90,"x_max":1076,"o":"m 431 956 l 529 1189 l 632 1189 l 522 956 l 431 956 m 467 -14 q 187 74 283 -14 q 90 328 90 161 l 90 894 l 204 894 l 204 326 q 273 144 204 204 q 467 83 342 83 q 659 144 590 83 q 728 326 728 204 l 728 894 l 842 894 l 842 790 q 950 827 922 792 q 978 956 978 863 l 1076 956 q 1018 758 1076 814 q 842 701 960 703 l 842 328 q 745 74 842 161 q 467 -14 649 -14 z "},"Ự":{"ha":1076,"x_min":90,"x_max":1076,"o":"m 467 -14 q 187 74 283 -14 q 90 328 90 161 l 90 894 l 204 894 l 204 326 q 273 144 204 204 q 467 83 342 83 q 659 144 590 83 q 728 326 728 204 l 728 894 l 842 894 l 842 790 q 950 827 922 792 q 978 956 978 863 l 1076 956 q 1018 758 1076 814 q 842 701 960 703 l 842 328 q 745 74 842 161 q 467 -14 649 -14 m 407 -228 l 407 -121 l 518 -121 l 518 -228 l 407 -228 z "},"Ừ":{"ha":1076,"x_min":90,"x_max":1076,"o":"m 433 956 l 324 1189 l 426 1189 l 525 956 l 433 956 m 467 -14 q 187 74 283 -14 q 90 328 90 161 l 90 894 l 204 894 l 204 326 q 273 144 204 204 q 467 83 342 83 q 659 144 590 83 q 728 326 728 204 l 728 894 l 842 894 l 842 790 q 950 827 922 792 q 978 956 978 863 l 1076 956 q 1018 758 1076 814 q 842 701 960 703 l 842 328 q 745 74 842 161 q 467 -14 649 -14 z "},"Ử":{"ha":1076,"x_min":90,"x_max":1076,"o":"m 428 956 l 428 1071 q 533 1091 510 1075 q 557 1143 557 1107 q 531 1192 557 1178 q 449 1206 504 1206 q 401 1201 426 1206 q 357 1189 375 1196 l 357 1260 q 411 1273 378 1268 q 475 1278 444 1278 q 600 1244 557 1278 q 643 1151 643 1211 q 616 1064 643 1096 q 519 1022 589 1032 l 519 956 l 428 956 m 467 -14 q 187 74 283 -14 q 90 328 90 161 l 90 894 l 204 894 l 204 326 q 273 144 204 204 q 467 83 342 83 q 659 144 590 83 q 728 326 728 204 l 728 894 l 842 894 l 842 790 q 950 827 922 792 q 978 956 978 863 l 1076 956 q 1018 758 1076 814 q 842 701 960 703 l 842 328 q 745 74 842 161 q 467 -14 649 -14 z "},"Ữ":{"ha":1076,"x_min":90,"x_max":1076,"o":"m 568 982 q 497 995 532 982 q 431 1022 463 1008 q 368 1035 399 1035 q 306 1024 335 1035 q 253 986 276 1014 l 253 1074 q 303 1104 269 1093 q 368 1115 336 1115 q 440 1102 407 1115 q 503 1076 472 1089 q 568 1063 535 1063 q 675 1113 639 1063 l 675 1024 q 633 994 661 1006 q 568 982 604 982 m 467 -14 q 187 74 283 -14 q 90 328 90 161 l 90 894 l 204 894 l 204 326 q 273 144 204 204 q 467 83 342 83 q 659 144 590 83 q 728 326 728 204 l 728 894 l 842 894 l 842 790 q 950 827 922 792 q 978 956 978 863 l 1076 956 q 1018 758 1076 814 q 842 701 960 703 l 842 328 q 745 74 842 161 q 467 -14 649 -14 z "},"Ű":{"ha":932,"x_min":90,"x_max":842,"o":"m 222 956 l 321 1167 l 429 1167 l 317 956 l 222 956 m 508 956 l 607 1167 l 715 1167 l 603 956 l 508 956 m 467 -14 q 187 74 283 -14 q 90 328 90 161 l 90 894 l 204 894 l 204 326 q 273 144 204 204 q 467 83 342 83 q 659 144 590 83 q 728 326 728 204 l 728 894 l 842 894 l 842 328 q 745 74 842 161 q 467 -14 649 -14 z "},"Ū":{"ha":932,"x_min":90,"x_max":842,"o":"m 250 1000 l 250 1082 l 650 1082 l 650 1000 l 250 1000 m 467 -14 q 187 74 283 -14 q 90 328 90 161 l 90 894 l 204 894 l 204 326 q 273 144 204 204 q 467 83 342 83 q 659 144 590 83 q 728 326 728 204 l 728 894 l 842 894 l 842 328 q 745 74 842 161 q 467 -14 649 -14 z "},"Ų":{"ha":932,"x_min":90,"x_max":842,"o":"m 479 -306 q 383 -277 424 -306 q 342 -183 342 -249 q 366 -90 342 -135 q 429 -12 390 -44 q 177 83 264 -4 q 90 328 90 169 l 90 894 l 204 894 l 204 326 q 273 144 204 204 q 467 83 342 83 q 659 144 590 83 q 728 326 728 204 l 728 894 l 842 894 l 842 328 q 759 87 842 174 q 519 -12 676 0 q 435 -167 435 -82 q 452 -214 435 -201 q 504 -226 469 -226 q 542 -222 522 -226 q 574 -211 561 -218 l 574 -289 q 531 -301 557 -297 q 479 -306 504 -306 z "},"Ů":{"ha":932,"x_min":90,"x_max":842,"o":"m 449 956 q 340 999 382 956 q 297 1104 297 1042 q 340 1210 297 1167 q 449 1254 382 1254 q 560 1210 518 1254 q 603 1104 603 1167 q 560 999 603 1042 q 449 956 518 956 m 449 1019 q 511 1044 488 1019 q 535 1104 535 1069 q 511 1165 535 1140 q 449 1189 488 1189 q 388 1165 413 1189 q 364 1104 364 1140 q 388 1044 364 1069 q 449 1019 413 1019 m 467 -14 q 187 74 283 -14 q 90 328 90 161 l 90 894 l 204 894 l 204 326 q 273 144 204 204 q 467 83 342 83 q 659 144 590 83 q 728 326 728 204 l 728 894 l 842 894 l 842 328 q 745 74 842 161 q 467 -14 649 -14 z "},"Ũ":{"ha":932,"x_min":90,"x_max":842,"o":"m 554 983 q 483 997 518 983 q 417 1023 449 1010 q 354 1036 385 1036 q 292 1026 321 1036 q 239 988 263 1015 l 239 1075 q 289 1106 256 1094 q 354 1117 322 1117 q 426 1103 393 1117 q 490 1077 458 1090 q 554 1064 521 1064 q 661 1114 625 1064 l 661 1025 q 619 995 647 1007 q 554 983 590 983 m 467 -14 q 187 74 283 -14 q 90 328 90 161 l 90 894 l 204 894 l 204 326 q 273 144 204 204 q 467 83 342 83 q 659 144 590 83 q 728 326 728 204 l 728 894 l 842 894 l 842 328 q 745 74 842 161 q 467 -14 649 -14 z "},"V":{"ha":951,"x_min":69,"x_max":882,"o":"m 410 0 l 69 894 l 188 894 l 475 115 l 764 894 l 882 894 l 543 0 l 410 0 z "},"W":{"ha":1196,"x_min":69,"x_max":1126,"o":"m 278 0 l 69 894 l 182 894 l 350 158 l 543 796 l 543 894 l 636 894 l 844 158 l 1015 894 l 1126 894 l 919 0 l 799 0 l 604 681 l 400 0 l 278 0 z "},"Ẃ":{"ha":1196,"x_min":69,"x_max":1126,"o":"m 554 956 l 653 1189 l 756 1189 l 646 956 l 554 956 m 278 0 l 69 894 l 182 894 l 350 158 l 543 796 l 543 894 l 636 894 l 844 158 l 1015 894 l 1126 894 l 919 0 l 799 0 l 604 681 l 400 0 l 278 0 z "},"Ŵ":{"ha":1196,"x_min":69,"x_max":1126,"o":"m 399 956 l 558 1161 l 650 1161 l 810 956 l 711 956 l 604 1097 l 497 956 l 399 956 m 278 0 l 69 894 l 182 894 l 350 158 l 543 796 l 543 894 l 636 894 l 844 158 l 1015 894 l 1126 894 l 919 0 l 799 0 l 604 681 l 400 0 l 278 0 z "},"Ẅ":{"ha":1196,"x_min":69,"x_max":1126,"o":"m 428 983 l 428 1088 l 536 1088 l 536 983 l 428 983 m 672 983 l 672 1088 l 781 1088 l 781 983 l 672 983 m 278 0 l 69 894 l 182 894 l 350 158 l 543 796 l 543 894 l 636 894 l 844 158 l 1015 894 l 1126 894 l 919 0 l 799 0 l 604 681 l 400 0 l 278 0 z "},"Ẁ":{"ha":1196,"x_min":69,"x_max":1126,"o":"m 547 956 l 438 1189 l 540 1189 l 639 956 l 547 956 m 278 0 l 69 894 l 182 894 l 350 158 l 543 796 l 543 894 l 636 894 l 844 158 l 1015 894 l 1126 894 l 919 0 l 799 0 l 604 681 l 400 0 l 278 0 z "},"X":{"ha":906,"x_min":69,"x_max":836,"o":"m 69 0 l 385 444 l 74 894 l 204 894 l 453 529 l 701 894 l 832 894 l 521 444 l 836 0 l 704 0 l 453 357 l 201 0 l 69 0 z "},"Y":{"ha":892,"x_min":69,"x_max":822,"o":"m 389 0 l 389 333 l 69 894 l 188 894 l 446 431 l 704 894 l 822 894 l 503 333 l 503 0 l 389 0 z "},"Ý":{"ha":892,"x_min":69,"x_max":822,"o":"m 383 956 l 482 1189 l 585 1189 l 475 956 l 383 956 m 389 0 l 389 333 l 69 894 l 188 894 l 446 431 l 704 894 l 822 894 l 503 333 l 503 0 l 389 0 z "},"Ŷ":{"ha":892,"x_min":69,"x_max":822,"o":"m 240 956 l 400 1161 l 492 1161 l 651 956 l 553 956 l 446 1097 l 339 956 l 240 956 m 389 0 l 389 333 l 69 894 l 188 894 l 446 431 l 704 894 l 822 894 l 503 333 l 503 0 l 389 0 z "},"Ÿ":{"ha":892,"x_min":69,"x_max":822,"o":"m 269 988 l 269 1092 l 378 1092 l 378 988 l 269 988 m 514 988 l 514 1092 l 622 1092 l 622 988 l 514 988 m 389 0 l 389 333 l 69 894 l 188 894 l 446 431 l 704 894 l 822 894 l 503 333 l 503 0 l 389 0 z "},"Ẏ":{"ha":892,"x_min":69,"x_max":822,"o":"m 390 986 l 390 1093 l 501 1093 l 501 986 l 390 986 m 389 0 l 389 333 l 69 894 l 188 894 l 446 431 l 704 894 l 822 894 l 503 333 l 503 0 l 389 0 z "},"Ỵ":{"ha":892,"x_min":69,"x_max":822,"o":"m 389 0 l 389 333 l 69 894 l 188 894 l 446 431 l 704 894 l 822 894 l 503 333 l 503 0 l 389 0 m 390 -207 l 390 -100 l 501 -100 l 501 -207 l 390 -207 z "},"Ỳ":{"ha":892,"x_min":69,"x_max":822,"o":"m 418 956 l 308 1189 l 411 1189 l 510 956 l 418 956 m 389 0 l 389 333 l 69 894 l 188 894 l 446 431 l 704 894 l 822 894 l 503 333 l 503 0 l 389 0 z "},"Ỷ":{"ha":892,"x_min":69,"x_max":822,"o":"m 388 956 l 388 1071 q 493 1091 469 1075 q 517 1143 517 1107 q 490 1192 517 1178 q 408 1206 464 1206 q 360 1201 386 1206 q 317 1189 335 1196 l 317 1260 q 371 1273 338 1268 q 435 1278 404 1278 q 560 1244 517 1278 q 603 1151 603 1211 q 576 1064 603 1096 q 479 1022 549 1032 l 479 956 l 388 956 m 389 0 l 389 333 l 69 894 l 188 894 l 446 431 l 704 894 l 822 894 l 503 333 l 503 0 l 389 0 z "},"Ỹ":{"ha":892,"x_min":69,"x_max":822,"o":"m 550 983 q 479 997 514 983 q 413 1023 444 1010 q 350 1036 381 1036 q 288 1026 317 1036 q 235 988 258 1015 l 235 1075 q 285 1106 251 1094 q 350 1117 318 1117 q 422 1103 389 1117 q 485 1077 454 1090 q 550 1064 517 1064 q 657 1114 621 1064 l 657 1025 q 615 995 643 1007 q 550 983 586 983 m 389 0 l 389 333 l 69 894 l 188 894 l 446 431 l 704 894 l 822 894 l 503 333 l 503 0 l 389 0 z "},"Z":{"ha":794,"x_min":69,"x_max":732,"o":"m 69 0 l 69 64 l 581 804 l 93 804 l 93 894 l 725 894 l 725 824 l 218 89 l 732 89 l 732 0 l 69 0 z "},"Ź":{"ha":794,"x_min":69,"x_max":732,"o":"m 361 956 l 460 1189 l 563 1189 l 453 956 l 361 956 m 69 0 l 69 64 l 581 804 l 93 804 l 93 894 l 725 894 l 725 824 l 218 89 l 732 89 l 732 0 l 69 0 z "},"Ž":{"ha":794,"x_min":69,"x_max":732,"o":"m 375 956 l 215 1161 l 314 1161 l 421 1019 l 528 1161 l 626 1161 l 467 956 l 375 956 m 69 0 l 69 64 l 581 804 l 93 804 l 93 894 l 725 894 l 725 824 l 218 89 l 732 89 l 732 0 l 69 0 z "},"Ż":{"ha":794,"x_min":69,"x_max":732,"o":"m 354 986 l 354 1093 l 465 1093 l 465 986 l 354 986 m 69 0 l 69 64 l 581 804 l 93 804 l 93 894 l 725 894 l 725 824 l 218 89 l 732 89 l 732 0 l 69 0 z "},"Ẓ":{"ha":794,"x_min":69,"x_max":732,"o":"m 69 0 l 69 64 l 581 804 l 93 804 l 93 894 l 725 894 l 725 824 l 218 89 l 732 89 l 732 0 l 69 0 m 357 -228 l 357 -121 l 468 -121 l 468 -228 l 357 -228 z "},"a":{"ha":751,"x_min":69,"x_max":661,"o":"m 301 -14 q 186 8 239 -14 q 101 74 133 31 q 69 185 69 118 q 129 333 69 275 q 324 390 189 390 l 553 390 l 553 431 q 538 517 553 485 q 483 563 524 549 q 365 576 443 576 q 250 567 306 576 q 146 540 194 557 l 146 635 q 251 662 190 651 q 381 672 311 672 q 591 615 521 672 q 661 431 661 558 l 661 0 l 565 0 l 557 75 q 453 8 514 31 q 301 -14 392 -14 m 331 79 q 458 105 403 79 q 553 175 514 131 l 553 303 l 326 303 q 215 274 249 303 q 182 185 182 244 q 222 102 182 125 q 331 79 263 79 z "},"á":{"ha":751,"x_min":69,"x_max":661,"o":"m 339 725 l 438 958 l 540 958 l 431 725 l 339 725 m 301 -14 q 186 8 239 -14 q 101 74 133 31 q 69 185 69 118 q 129 333 69 275 q 324 390 189 390 l 553 390 l 553 431 q 538 517 553 485 q 483 563 524 549 q 365 576 443 576 q 250 567 306 576 q 146 540 194 557 l 146 635 q 251 662 190 651 q 381 672 311 672 q 591 615 521 672 q 661 431 661 558 l 661 0 l 565 0 l 557 75 q 453 8 514 31 q 301 -14 392 -14 m 331 79 q 458 105 403 79 q 553 175 514 131 l 553 303 l 326 303 q 215 274 249 303 q 182 185 182 244 q 222 102 182 125 q 331 79 263 79 z "},"ă":{"ha":751,"x_min":69,"x_max":661,"o":"m 393 725 q 263 774 307 725 q 218 900 218 822 l 299 900 q 324 822 299 847 q 393 797 350 797 q 465 822 439 797 q 490 900 490 847 l 571 900 q 526 774 571 822 q 393 725 481 725 m 301 -14 q 186 8 239 -14 q 101 74 133 31 q 69 185 69 118 q 129 333 69 275 q 324 390 189 390 l 553 390 l 553 431 q 538 517 553 485 q 483 563 524 549 q 365 576 443 576 q 250 567 306 576 q 146 540 194 557 l 146 635 q 251 662 190 651 q 381 672 311 672 q 591 615 521 672 q 661 431 661 558 l 661 0 l 565 0 l 557 75 q 453 8 514 31 q 301 -14 392 -14 m 331 79 q 458 105 403 79 q 553 175 514 131 l 553 303 l 326 303 q 215 274 249 303 q 182 185 182 244 q 222 102 182 125 q 331 79 263 79 z "},"ắ":{"ha":751,"x_min":69,"x_max":661,"o":"m 350 869 l 436 1043 l 526 1043 l 432 869 l 350 869 m 404 725 q 302 744 349 725 q 228 806 256 763 q 200 919 200 849 l 272 919 q 308 824 272 856 q 404 792 344 792 q 500 824 464 792 q 536 919 536 856 l 608 919 q 581 806 608 849 q 506 744 553 763 q 404 725 460 725 m 301 -14 q 186 8 239 -14 q 101 74 133 31 q 69 185 69 118 q 129 333 69 275 q 324 390 189 390 l 553 390 l 553 431 q 538 517 553 485 q 483 563 524 549 q 365 576 443 576 q 250 567 306 576 q 146 540 194 557 l 146 635 q 251 662 190 651 q 381 672 311 672 q 591 615 521 672 q 661 431 661 558 l 661 0 l 565 0 l 557 75 q 453 8 514 31 q 301 -14 392 -14 m 331 79 q 458 105 403 79 q 553 175 514 131 l 553 303 l 326 303 q 215 274 249 303 q 182 185 182 244 q 222 102 182 125 q 331 79 263 79 z "},"ặ":{"ha":751,"x_min":69,"x_max":661,"o":"m 388 725 q 257 774 301 725 q 213 900 213 822 l 293 900 q 319 822 293 847 q 388 797 344 797 q 459 822 433 797 q 485 900 485 847 l 565 900 q 520 774 565 822 q 388 725 475 725 m 301 -14 q 186 8 239 -14 q 101 74 133 31 q 69 185 69 118 q 129 333 69 275 q 324 390 189 390 l 553 390 l 553 431 q 538 517 553 485 q 483 563 524 549 q 365 576 443 576 q 250 567 306 576 q 146 540 194 557 l 146 635 q 251 662 190 651 q 381 672 311 672 q 591 615 521 672 q 661 431 661 558 l 661 0 l 565 0 l 557 75 q 453 8 514 31 q 301 -14 392 -14 m 331 79 q 458 105 403 79 q 553 175 514 131 l 553 303 l 326 303 q 215 274 249 303 q 182 185 182 244 q 222 102 182 125 q 331 79 263 79 m 333 -228 l 333 -121 l 444 -121 l 444 -228 l 333 -228 z "},"ằ":{"ha":751,"x_min":69,"x_max":661,"o":"m 369 869 l 275 1043 l 365 1043 l 451 869 l 369 869 m 397 725 q 295 744 342 725 q 221 806 249 763 q 193 919 193 849 l 265 919 q 301 824 265 856 q 397 792 338 792 q 493 824 457 792 q 529 919 529 856 l 601 919 q 574 806 601 849 q 499 744 546 763 q 397 725 453 725 m 301 -14 q 186 8 239 -14 q 101 74 133 31 q 69 185 69 118 q 129 333 69 275 q 324 390 189 390 l 553 390 l 553 431 q 538 517 553 485 q 483 563 524 549 q 365 576 443 576 q 250 567 306 576 q 146 540 194 557 l 146 635 q 251 662 190 651 q 381 672 311 672 q 591 615 521 672 q 661 431 661 558 l 661 0 l 565 0 l 557 75 q 453 8 514 31 q 301 -14 392 -14 m 331 79 q 458 105 403 79 q 553 175 514 131 l 553 303 l 326 303 q 215 274 249 303 q 182 185 182 244 q 222 102 182 125 q 331 79 263 79 z "},"ẳ":{"ha":751,"x_min":69,"x_max":661,"o":"m 342 871 l 342 951 q 433 970 411 954 q 456 1014 456 986 q 382 1068 456 1068 q 340 1063 360 1068 q 303 1050 321 1058 l 303 1107 q 349 1119 322 1114 q 406 1124 376 1124 q 501 1097 467 1124 q 535 1021 535 1069 q 510 952 535 976 q 425 918 485 928 l 425 871 l 342 871 m 394 725 q 292 744 339 725 q 218 806 246 763 q 190 919 190 849 l 263 919 q 299 824 263 856 q 394 792 335 792 q 490 824 454 792 q 526 919 526 856 l 599 919 q 571 806 599 849 q 497 744 543 763 q 394 725 450 725 m 301 -14 q 186 8 239 -14 q 101 74 133 31 q 69 185 69 118 q 129 333 69 275 q 324 390 189 390 l 553 390 l 553 431 q 538 517 553 485 q 483 563 524 549 q 365 576 443 576 q 250 567 306 576 q 146 540 194 557 l 146 635 q 251 662 190 651 q 381 672 311 672 q 591 615 521 672 q 661 431 661 558 l 661 0 l 565 0 l 557 75 q 453 8 514 31 q 301 -14 392 -14 m 331 79 q 458 105 403 79 q 553 175 514 131 l 553 303 l 326 303 q 215 274 249 303 q 182 185 182 244 q 222 102 182 125 q 331 79 263 79 z "},"ẵ":{"ha":751,"x_min":69,"x_max":661,"o":"m 497 949 q 432 961 464 949 q 370 985 400 974 q 313 997 340 997 q 255 988 282 997 q 207 953 228 978 l 207 1031 q 253 1058 222 1047 q 313 1068 283 1068 q 378 1056 349 1068 q 438 1032 408 1044 q 497 1019 467 1019 q 596 1065 563 1019 l 596 986 q 556 959 583 969 q 497 949 529 949 m 400 725 q 298 744 344 725 q 224 806 251 763 q 196 919 196 849 l 268 919 q 304 824 268 856 q 400 792 340 792 q 496 824 460 792 q 532 919 532 856 l 604 919 q 576 806 604 849 q 502 744 549 763 q 400 725 456 725 m 301 -14 q 186 8 239 -14 q 101 74 133 31 q 69 185 69 118 q 129 333 69 275 q 324 390 189 390 l 553 390 l 553 431 q 538 517 553 485 q 483 563 524 549 q 365 576 443 576 q 250 567 306 576 q 146 540 194 557 l 146 635 q 251 662 190 651 q 381 672 311 672 q 591 615 521 672 q 661 431 661 558 l 661 0 l 565 0 l 557 75 q 453 8 514 31 q 301 -14 392 -14 m 331 79 q 458 105 403 79 q 553 175 514 131 l 553 303 l 326 303 q 215 274 249 303 q 182 185 182 244 q 222 102 182 125 q 331 79 263 79 z "},"ǎ":{"ha":751,"x_min":69,"x_max":661,"o":"m 343 725 l 183 931 l 282 931 l 389 789 l 496 931 l 594 931 l 435 725 l 343 725 m 301 -14 q 186 8 239 -14 q 101 74 133 31 q 69 185 69 118 q 129 333 69 275 q 324 390 189 390 l 553 390 l 553 431 q 538 517 553 485 q 483 563 524 549 q 365 576 443 576 q 250 567 306 576 q 146 540 194 557 l 146 635 q 251 662 190 651 q 381 672 311 672 q 591 615 521 672 q 661 431 661 558 l 661 0 l 565 0 l 557 75 q 453 8 514 31 q 301 -14 392 -14 m 331 79 q 458 105 403 79 q 553 175 514 131 l 553 303 l 326 303 q 215 274 249 303 q 182 185 182 244 q 222 102 182 125 q 331 79 263 79 z "},"â":{"ha":751,"x_min":69,"x_max":661,"o":"m 186 725 l 346 931 l 438 931 l 597 725 l 499 725 l 392 867 l 285 725 l 186 725 m 301 -14 q 186 8 239 -14 q 101 74 133 31 q 69 185 69 118 q 129 333 69 275 q 324 390 189 390 l 553 390 l 553 431 q 538 517 553 485 q 483 563 524 549 q 365 576 443 576 q 250 567 306 576 q 146 540 194 557 l 146 635 q 251 662 190 651 q 381 672 311 672 q 591 615 521 672 q 661 431 661 558 l 661 0 l 565 0 l 557 75 q 453 8 514 31 q 301 -14 392 -14 m 331 79 q 458 105 403 79 q 553 175 514 131 l 553 303 l 326 303 q 215 274 249 303 q 182 185 182 244 q 222 102 182 125 q 331 79 263 79 z "},"ấ":{"ha":751,"x_min":69,"x_max":675,"o":"m 499 876 l 585 1050 l 675 1050 l 581 876 l 499 876 m 188 725 l 342 889 l 433 889 l 588 725 l 492 725 l 388 840 l 285 725 l 188 725 m 301 -14 q 186 8 239 -14 q 101 74 133 31 q 69 185 69 118 q 129 333 69 275 q 324 390 189 390 l 553 390 l 553 431 q 538 517 553 485 q 483 563 524 549 q 365 576 443 576 q 250 567 306 576 q 146 540 194 557 l 146 635 q 251 662 190 651 q 381 672 311 672 q 591 615 521 672 q 661 431 661 558 l 661 0 l 565 0 l 557 75 q 453 8 514 31 q 301 -14 392 -14 m 331 79 q 458 105 403 79 q 553 175 514 131 l 553 303 l 326 303 q 215 274 249 303 q 182 185 182 244 q 222 102 182 125 q 331 79 263 79 z "},"ậ":{"ha":751,"x_min":69,"x_max":661,"o":"m 176 725 l 336 931 l 428 931 l 588 725 l 489 725 l 382 867 l 275 725 l 176 725 m 301 -14 q 186 8 239 -14 q 101 74 133 31 q 69 185 69 118 q 129 333 69 275 q 324 390 189 390 l 553 390 l 553 431 q 538 517 553 485 q 483 563 524 549 q 365 576 443 576 q 250 567 306 576 q 146 540 194 557 l 146 635 q 251 662 190 651 q 381 672 311 672 q 591 615 521 672 q 661 431 661 558 l 661 0 l 565 0 l 557 75 q 453 8 514 31 q 301 -14 392 -14 m 331 79 q 458 105 403 79 q 553 175 514 131 l 553 303 l 326 303 q 215 274 249 303 q 182 185 182 244 q 222 102 182 125 q 331 79 263 79 m 326 -228 l 326 -121 l 438 -121 l 438 -228 l 326 -228 z "},"ầ":{"ha":751,"x_min":69,"x_max":661,"o":"m 175 876 l 81 1050 l 171 1050 l 257 876 l 175 876 m 168 725 l 322 889 l 414 889 l 568 725 l 471 725 l 368 840 l 264 725 l 168 725 m 301 -14 q 186 8 239 -14 q 101 74 133 31 q 69 185 69 118 q 129 333 69 275 q 324 390 189 390 l 553 390 l 553 431 q 538 517 553 485 q 483 563 524 549 q 365 576 443 576 q 250 567 306 576 q 146 540 194 557 l 146 635 q 251 662 190 651 q 381 672 311 672 q 591 615 521 672 q 661 431 661 558 l 661 0 l 565 0 l 557 75 q 453 8 514 31 q 301 -14 392 -14 m 331 79 q 458 105 403 79 q 553 175 514 131 l 553 303 l 326 303 q 215 274 249 303 q 182 185 182 244 q 222 102 182 125 q 331 79 263 79 z "},"ẩ":{"ha":751,"x_min":69,"x_max":694,"o":"m 500 846 l 500 933 q 590 951 569 936 q 611 992 611 965 q 542 1042 611 1042 q 499 1037 518 1042 q 463 1025 479 1032 l 463 1085 q 506 1097 482 1092 q 561 1101 531 1101 q 659 1074 624 1101 q 694 997 694 1046 q 668 927 694 953 q 585 894 642 901 l 585 846 l 500 846 m 178 724 l 332 888 l 424 888 l 578 724 l 482 724 l 378 839 l 275 724 l 178 724 m 301 -14 q 186 8 239 -14 q 101 74 133 31 q 69 185 69 118 q 129 333 69 275 q 324 390 189 390 l 553 390 l 553 431 q 538 517 553 485 q 483 563 524 549 q 365 576 443 576 q 250 567 306 576 q 146 540 194 557 l 146 635 q 251 662 190 651 q 381 672 311 672 q 591 615 521 672 q 661 431 661 558 l 661 0 l 565 0 l 557 75 q 453 8 514 31 q 301 -14 392 -14 m 331 79 q 458 105 403 79 q 553 175 514 131 l 553 303 l 326 303 q 215 274 249 303 q 182 185 182 244 q 222 102 182 125 q 331 79 263 79 z "},"ẫ":{"ha":751,"x_min":69,"x_max":661,"o":"m 488 892 q 422 904 454 892 q 360 928 390 917 q 303 940 331 940 q 245 931 272 940 q 197 896 218 921 l 197 974 q 243 1001 213 990 q 303 1011 274 1011 q 369 999 339 1011 q 428 975 399 988 q 488 963 457 963 q 586 1008 553 963 l 586 929 q 547 902 574 913 q 488 892 519 892 m 189 725 l 343 889 l 435 889 l 589 725 l 493 725 l 389 840 l 286 725 l 189 725 m 301 -14 q 186 8 239 -14 q 101 74 133 31 q 69 185 69 118 q 129 333 69 275 q 324 390 189 390 l 553 390 l 553 431 q 538 517 553 485 q 483 563 524 549 q 365 576 443 576 q 250 567 306 576 q 146 540 194 557 l 146 635 q 251 662 190 651 q 381 672 311 672 q 591 615 521 672 q 661 431 661 558 l 661 0 l 565 0 l 557 75 q 453 8 514 31 q 301 -14 392 -14 m 331 79 q 458 105 403 79 q 553 175 514 131 l 553 303 l 326 303 q 215 274 249 303 q 182 185 182 244 q 222 102 182 125 q 331 79 263 79 z "},"ä":{"ha":751,"x_min":69,"x_max":661,"o":"m 222 757 l 222 861 l 331 861 l 331 757 l 222 757 m 467 757 l 467 861 l 575 861 l 575 757 l 467 757 m 301 -14 q 186 8 239 -14 q 101 74 133 31 q 69 185 69 118 q 129 333 69 275 q 324 390 189 390 l 553 390 l 553 431 q 538 517 553 485 q 483 563 524 549 q 365 576 443 576 q 250 567 306 576 q 146 540 194 557 l 146 635 q 251 662 190 651 q 381 672 311 672 q 591 615 521 672 q 661 431 661 558 l 661 0 l 565 0 l 557 75 q 453 8 514 31 q 301 -14 392 -14 m 331 79 q 458 105 403 79 q 553 175 514 131 l 553 303 l 326 303 q 215 274 249 303 q 182 185 182 244 q 222 102 182 125 q 331 79 263 79 z "},"ạ":{"ha":751,"x_min":69,"x_max":661,"o":"m 301 -14 q 186 8 239 -14 q 101 74 133 31 q 69 185 69 118 q 129 333 69 275 q 324 390 189 390 l 553 390 l 553 431 q 538 517 553 485 q 483 563 524 549 q 365 576 443 576 q 250 567 306 576 q 146 540 194 557 l 146 635 q 251 662 190 651 q 381 672 311 672 q 591 615 521 672 q 661 431 661 558 l 661 0 l 565 0 l 557 75 q 453 8 514 31 q 301 -14 392 -14 m 331 79 q 458 105 403 79 q 553 175 514 131 l 553 303 l 326 303 q 215 274 249 303 q 182 185 182 244 q 222 102 182 125 q 331 79 263 79 m 332 -228 l 332 -121 l 443 -121 l 443 -228 l 332 -228 z "},"à":{"ha":751,"x_min":69,"x_max":661,"o":"m 363 725 l 253 958 l 356 958 l 454 725 l 363 725 m 301 -14 q 186 8 239 -14 q 101 74 133 31 q 69 185 69 118 q 129 333 69 275 q 324 390 189 390 l 553 390 l 553 431 q 538 517 553 485 q 483 563 524 549 q 365 576 443 576 q 250 567 306 576 q 146 540 194 557 l 146 635 q 251 662 190 651 q 381 672 311 672 q 591 615 521 672 q 661 431 661 558 l 661 0 l 565 0 l 557 75 q 453 8 514 31 q 301 -14 392 -14 m 331 79 q 458 105 403 79 q 553 175 514 131 l 553 303 l 326 303 q 215 274 249 303 q 182 185 182 244 q 222 102 182 125 q 331 79 263 79 z "},"ả":{"ha":751,"x_min":69,"x_max":661,"o":"m 333 725 l 333 840 q 439 860 415 844 q 463 913 463 876 q 436 961 463 947 q 354 975 410 975 q 306 970 332 975 q 263 958 281 965 l 263 1029 q 317 1042 283 1038 q 381 1047 350 1047 q 506 1014 463 1047 q 549 921 549 981 q 522 833 549 865 q 425 792 494 801 l 425 725 l 333 725 m 301 -14 q 186 8 239 -14 q 101 74 133 31 q 69 185 69 118 q 129 333 69 275 q 324 390 189 390 l 553 390 l 553 431 q 538 517 553 485 q 483 563 524 549 q 365 576 443 576 q 250 567 306 576 q 146 540 194 557 l 146 635 q 251 662 190 651 q 381 672 311 672 q 591 615 521 672 q 661 431 661 558 l 661 0 l 565 0 l 557 75 q 453 8 514 31 q 301 -14 392 -14 m 331 79 q 458 105 403 79 q 553 175 514 131 l 553 303 l 326 303 q 215 274 249 303 q 182 185 182 244 q 222 102 182 125 q 331 79 263 79 z "},"ɑ":{"ha":799,"x_min":69,"x_max":701,"o":"m 367 -14 q 149 64 228 -14 q 69 321 69 142 q 150 585 69 499 q 369 672 231 672 q 588 610 497 672 l 588 658 l 701 658 l 701 0 l 604 0 l 596 69 q 495 6 550 26 q 367 -14 440 -14 m 396 78 q 501 97 453 78 q 588 157 550 117 l 588 515 q 506 563 553 546 q 400 581 460 581 q 237 518 290 581 q 183 321 183 456 q 232 135 183 192 q 396 78 281 78 z "},"ā":{"ha":751,"x_min":69,"x_max":661,"o":"m 185 758 l 185 840 l 585 840 l 585 758 l 185 758 m 301 -14 q 186 8 239 -14 q 101 74 133 31 q 69 185 69 118 q 129 333 69 275 q 324 390 189 390 l 553 390 l 553 431 q 538 517 553 485 q 483 563 524 549 q 365 576 443 576 q 250 567 306 576 q 146 540 194 557 l 146 635 q 251 662 190 651 q 381 672 311 672 q 591 615 521 672 q 661 431 661 558 l 661 0 l 565 0 l 557 75 q 453 8 514 31 q 301 -14 392 -14 m 331 79 q 458 105 403 79 q 553 175 514 131 l 553 303 l 326 303 q 215 274 249 303 q 182 185 182 244 q 222 102 182 125 q 331 79 263 79 z "},"ą":{"ha":751,"x_min":69,"x_max":694,"o":"m 600 -306 q 503 -277 544 -306 q 463 -183 463 -249 q 492 -80 463 -129 q 565 0 521 -31 l 557 75 q 453 8 514 31 q 301 -14 392 -14 q 186 8 239 -14 q 101 74 133 31 q 69 185 69 118 q 129 333 69 275 q 324 390 189 390 l 553 390 l 553 431 q 538 517 553 485 q 483 563 524 549 q 365 576 443 576 q 250 567 306 576 q 146 540 194 557 l 146 635 q 251 662 190 651 q 381 672 311 672 q 591 615 521 672 q 661 431 661 558 l 661 0 q 581 -78 606 -35 q 556 -167 556 -122 q 573 -214 556 -201 q 625 -226 590 -226 q 663 -222 643 -226 q 694 -211 682 -218 l 694 -289 q 651 -301 678 -297 q 600 -306 625 -306 m 331 79 q 458 105 403 79 q 553 175 514 131 l 553 303 l 326 303 q 215 274 249 303 q 182 185 182 244 q 222 102 182 125 q 331 79 263 79 z "},"å":{"ha":751,"x_min":69,"x_max":661,"o":"m 393 725 q 284 768 326 725 q 242 874 242 811 q 284 980 242 936 q 393 1024 326 1024 q 505 980 463 1024 q 547 874 547 936 q 505 768 547 811 q 393 725 463 725 m 393 789 q 456 814 432 789 q 479 874 479 839 q 456 934 479 910 q 393 958 432 958 q 333 934 357 958 q 308 874 308 910 q 333 814 308 839 q 393 789 357 789 m 301 -14 q 186 8 239 -14 q 101 74 133 31 q 69 185 69 118 q 129 333 69 275 q 324 390 189 390 l 553 390 l 553 431 q 538 517 553 485 q 483 563 524 549 q 365 576 443 576 q 250 567 306 576 q 146 540 194 557 l 146 635 q 251 662 190 651 q 381 672 311 672 q 591 615 521 672 q 661 431 661 558 l 661 0 l 565 0 l 557 75 q 453 8 514 31 q 301 -14 392 -14 m 331 79 q 458 105 403 79 q 553 175 514 131 l 553 303 l 326 303 q 215 274 249 303 q 182 185 182 244 q 222 102 182 125 q 331 79 263 79 z "},"ǻ":{"ha":751,"x_min":69,"x_max":661,"o":"m 332 1088 l 431 1274 l 533 1274 l 424 1088 l 332 1088 m 382 721 q 273 764 315 721 q 231 869 231 807 q 273 976 231 932 q 382 1019 315 1019 q 494 976 451 1019 q 536 869 536 932 q 494 764 536 807 q 382 721 451 721 m 382 785 q 444 810 421 785 q 468 869 468 835 q 444 930 468 906 q 382 954 421 954 q 322 930 346 954 q 297 869 297 906 q 322 810 297 835 q 382 785 346 785 m 301 -14 q 186 8 239 -14 q 101 74 133 31 q 69 185 69 118 q 129 333 69 275 q 324 390 189 390 l 553 390 l 553 431 q 538 517 553 485 q 483 563 524 549 q 365 576 443 576 q 250 567 306 576 q 146 540 194 557 l 146 635 q 251 662 190 651 q 381 672 311 672 q 591 615 521 672 q 661 431 661 558 l 661 0 l 565 0 l 557 75 q 453 8 514 31 q 301 -14 392 -14 m 331 79 q 458 105 403 79 q 553 175 514 131 l 553 303 l 326 303 q 215 274 249 303 q 182 185 182 244 q 222 102 182 125 q 331 79 263 79 z "},"ã":{"ha":751,"x_min":69,"x_max":661,"o":"m 493 753 q 422 766 457 753 q 356 792 388 779 q 293 806 324 806 q 231 795 260 806 q 178 757 201 785 l 178 844 q 228 875 194 864 q 293 886 261 886 q 365 873 332 886 q 428 847 397 860 q 493 833 460 833 q 600 883 564 833 l 600 794 q 558 765 586 776 q 493 753 529 753 m 301 -14 q 186 8 239 -14 q 101 74 133 31 q 69 185 69 118 q 129 333 69 275 q 324 390 189 390 l 553 390 l 553 431 q 538 517 553 485 q 483 563 524 549 q 365 576 443 576 q 250 567 306 576 q 146 540 194 557 l 146 635 q 251 662 190 651 q 381 672 311 672 q 591 615 521 672 q 661 431 661 558 l 661 0 l 565 0 l 557 75 q 453 8 514 31 q 301 -14 392 -14 m 331 79 q 458 105 403 79 q 553 175 514 131 l 553 303 l 326 303 q 215 274 249 303 q 182 185 182 244 q 222 102 182 125 q 331 79 263 79 z "},"æ":{"ha":1224,"x_min":69,"x_max":1154,"o":"m 301 -14 q 186 8 239 -14 q 101 74 133 31 q 69 185 69 118 q 129 333 69 275 q 324 390 189 390 l 553 390 l 553 431 q 538 517 553 485 q 483 563 524 549 q 365 576 443 576 q 250 567 306 576 q 146 540 194 557 l 146 635 q 251 662 190 651 q 381 672 311 672 q 624 571 558 672 q 723 644 663 617 q 868 672 783 672 q 1028 637 965 672 q 1123 540 1092 601 q 1154 400 1154 478 l 1154 276 l 667 276 q 699 158 672 201 q 781 97 726 115 q 926 78 836 78 q 1113 113 1028 78 l 1113 24 q 1016 -4 1069 6 q 904 -14 963 -14 q 728 17 799 -14 q 615 111 658 47 q 550 52 589 81 q 451 5 511 24 q 301 -14 390 -14 m 667 358 l 1053 358 l 1053 413 q 1010 537 1053 493 q 871 581 968 581 q 710 525 753 581 q 667 358 667 469 m 331 79 q 463 105 411 79 q 553 175 514 131 l 553 303 l 326 303 q 215 274 249 303 q 182 185 182 244 q 222 102 182 125 q 331 79 263 79 z "},"ǽ":{"ha":1224,"x_min":69,"x_max":1154,"o":"m 558 725 l 657 958 l 760 958 l 650 725 l 558 725 m 301 -14 q 186 8 239 -14 q 101 74 133 31 q 69 185 69 118 q 129 333 69 275 q 324 390 189 390 l 553 390 l 553 431 q 538 517 553 485 q 483 563 524 549 q 365 576 443 576 q 250 567 306 576 q 146 540 194 557 l 146 635 q 251 662 190 651 q 381 672 311 672 q 624 571 558 672 q 723 644 663 617 q 868 672 783 672 q 1028 637 965 672 q 1123 540 1092 601 q 1154 400 1154 478 l 1154 276 l 667 276 q 699 158 672 201 q 781 97 726 115 q 926 78 836 78 q 1113 113 1028 78 l 1113 24 q 1016 -4 1069 6 q 904 -14 963 -14 q 728 17 799 -14 q 615 111 658 47 q 550 52 589 81 q 451 5 511 24 q 301 -14 390 -14 m 667 358 l 1053 358 l 1053 413 q 1010 537 1053 493 q 871 581 968 581 q 710 525 753 581 q 667 358 667 469 m 331 79 q 463 105 411 79 q 553 175 514 131 l 553 303 l 326 303 q 215 274 249 303 q 182 185 182 244 q 222 102 182 125 q 331 79 263 79 z "},"b":{"ha":799,"x_min":97,"x_max":729,"o":"m 432 -14 q 303 6 358 -14 q 203 69 249 26 l 194 0 l 97 0 l 97 936 l 211 936 l 211 610 q 431 672 301 672 q 650 592 571 672 q 729 335 729 513 q 650 71 729 156 q 432 -14 571 -14 m 403 78 q 567 142 518 78 q 615 335 615 206 q 563 525 615 469 q 400 581 511 581 q 293 563 340 581 q 211 515 246 546 l 211 157 q 297 97 249 117 q 403 78 346 78 z "},"c":{"ha":642,"x_min":69,"x_max":611,"o":"m 408 -14 q 153 76 236 -14 q 69 329 69 165 q 164 588 69 503 q 418 672 258 672 q 526 663 483 672 q 610 635 569 654 l 610 544 q 439 581 535 581 q 250 523 317 581 q 183 329 183 465 q 242 138 183 199 q 435 78 300 78 q 611 114 531 78 l 611 22 q 519 -5 568 4 q 408 -14 469 -14 z "},"ć":{"ha":681,"x_min":69,"x_max":611,"o":"m 319 725 l 418 958 l 521 958 l 411 725 l 319 725 m 408 -14 q 153 76 236 -14 q 69 329 69 165 q 164 588 69 503 q 418 672 258 672 q 526 663 483 672 q 610 635 569 654 l 610 544 q 439 581 535 581 q 250 523 317 581 q 183 329 183 465 q 242 138 183 199 q 435 78 300 78 q 611 114 531 78 l 611 22 q 519 -5 568 4 q 408 -14 469 -14 z "},"č":{"ha":681,"x_min":69,"x_max":611,"o":"m 329 725 l 169 931 l 268 931 l 375 789 l 482 931 l 581 931 l 421 725 l 329 725 m 408 -14 q 153 76 236 -14 q 69 329 69 165 q 164 588 69 503 q 418 672 258 672 q 526 663 483 672 q 610 635 569 654 l 610 544 q 439 581 535 581 q 250 523 317 581 q 183 329 183 465 q 242 138 183 199 q 435 78 300 78 q 611 114 531 78 l 611 22 q 519 -5 568 4 q 408 -14 469 -14 z "},"ç":{"ha":681,"x_min":69,"x_max":611,"o":"m 371 -333 q 319 -330 349 -333 q 274 -322 289 -326 l 274 -253 q 361 -264 314 -264 q 456 -249 426 -264 q 486 -190 486 -233 q 457 -138 486 -150 q 368 -126 428 -126 l 317 -126 l 353 -11 q 140 90 210 3 q 69 329 69 178 q 164 588 69 503 q 418 672 258 672 q 526 663 483 672 q 610 635 569 654 l 610 544 q 439 581 535 581 q 250 523 317 581 q 183 329 183 465 q 242 138 183 199 q 435 78 300 78 q 611 114 531 78 l 611 22 q 528 -2 572 7 q 433 -14 485 -11 l 415 -67 q 531 -99 492 -67 q 569 -192 569 -132 q 522 -297 569 -260 q 371 -333 474 -333 z "},"ĉ":{"ha":681,"x_min":69,"x_max":611,"o":"m 169 725 l 329 931 l 421 931 l 581 725 l 482 725 l 375 867 l 268 725 l 169 725 m 408 -14 q 153 76 236 -14 q 69 329 69 165 q 164 588 69 503 q 418 672 258 672 q 526 663 483 672 q 610 635 569 654 l 610 544 q 439 581 535 581 q 250 523 317 581 q 183 329 183 465 q 242 138 183 199 q 435 78 300 78 q 611 114 531 78 l 611 22 q 519 -5 568 4 q 408 -14 469 -14 z "},"ċ":{"ha":681,"x_min":69,"x_max":611,"o":"m 336 756 l 336 863 l 447 863 l 447 756 l 336 756 m 408 -14 q 153 76 236 -14 q 69 329 69 165 q 164 588 69 503 q 418 672 258 672 q 526 663 483 672 q 610 635 569 654 l 610 544 q 439 581 535 581 q 250 523 317 581 q 183 329 183 465 q 242 138 183 199 q 435 78 300 78 q 611 114 531 78 l 611 22 q 519 -5 568 4 q 408 -14 469 -14 z "},"d":{"ha":799,"x_min":69,"x_max":701,"o":"m 367 -14 q 149 63 228 -14 q 69 319 69 140 q 152 585 69 497 q 374 672 235 672 q 588 610 497 672 l 588 936 l 701 936 l 701 0 l 604 0 l 596 69 q 495 6 550 26 q 367 -14 440 -14 m 396 78 q 501 97 453 78 q 588 157 550 117 l 588 515 q 506 563 553 546 q 399 581 458 581 q 236 517 289 581 q 183 319 183 454 q 232 134 183 190 q 396 78 281 78 z "},"ð":{"ha":796,"x_min":69,"x_max":761,"o":"m 394 -14 q 150 64 231 -14 q 69 272 69 142 q 149 487 69 413 q 376 561 229 561 q 494 542 431 561 q 613 483 558 524 l 613 547 q 605 649 613 604 q 579 729 597 694 l 393 649 l 393 721 l 536 783 q 389 824 483 824 q 281 815 329 824 q 192 792 232 807 l 192 878 q 287 900 233 892 q 403 908 340 908 q 632 825 553 908 l 761 882 l 761 808 l 672 769 q 709 669 697 726 q 721 542 721 611 l 721 326 q 638 67 721 149 q 394 -14 556 -14 m 394 72 q 558 125 504 72 q 613 290 613 178 l 613 401 q 510 456 567 435 q 396 478 453 478 q 223 422 274 478 q 172 272 172 367 q 228 125 172 178 q 394 72 283 72 z "},"ď":{"ha":919,"x_min":69,"x_max":924,"o":"m 367 -14 q 149 63 228 -14 q 69 319 69 140 q 152 585 69 497 q 374 672 235 672 q 588 610 497 672 l 588 936 l 701 936 l 701 0 l 604 0 l 596 69 q 495 6 550 26 q 367 -14 440 -14 m 782 690 l 821 936 l 924 936 l 865 690 l 782 690 m 396 78 q 501 97 453 78 q 588 157 550 117 l 588 515 q 506 563 553 546 q 399 581 458 581 q 236 517 289 581 q 183 319 183 454 q 232 134 183 190 q 396 78 281 78 z "},"đ":{"ha":796,"x_min":69,"x_max":768,"o":"m 367 -14 q 149 63 228 -14 q 69 319 69 140 q 152 585 69 497 q 374 672 235 672 q 588 610 497 672 l 588 756 l 331 756 l 331 846 l 588 846 l 588 936 l 701 936 l 701 846 l 768 846 l 768 756 l 701 756 l 701 0 l 604 0 l 596 69 q 495 6 550 26 q 367 -14 440 -14 m 396 78 q 501 97 453 78 q 588 157 550 117 l 588 515 q 506 563 553 546 q 399 581 458 581 q 236 517 289 581 q 183 319 183 454 q 232 134 183 190 q 396 78 281 78 z "},"ḍ":{"ha":799,"x_min":69,"x_max":701,"o":"m 367 -14 q 149 63 228 -14 q 69 319 69 140 q 152 585 69 497 q 374 672 235 672 q 588 610 497 672 l 588 936 l 701 936 l 701 0 l 604 0 l 596 69 q 495 6 550 26 q 367 -14 440 -14 m 396 78 q 501 97 453 78 q 588 157 550 117 l 588 515 q 506 563 553 546 q 399 581 458 581 q 236 517 289 581 q 183 319 183 454 q 232 134 183 190 q 396 78 281 78 m 361 -228 l 361 -121 l 472 -121 l 472 -228 l 361 -228 z "},"ḏ":{"ha":799,"x_min":69,"x_max":701,"o":"m 367 -14 q 149 63 228 -14 q 69 319 69 140 q 152 585 69 497 q 374 672 235 672 q 588 610 497 672 l 588 936 l 701 936 l 701 0 l 604 0 l 596 69 q 495 6 550 26 q 367 -14 440 -14 m 396 78 q 501 97 453 78 q 588 157 550 117 l 588 515 q 506 563 553 546 q 399 581 458 581 q 236 517 289 581 q 183 319 183 454 q 232 134 183 190 q 396 78 281 78 m 211 -200 l 211 -118 l 611 -118 l 611 -200 l 211 -200 z "},"e":{"ha":740,"x_min":69,"x_max":671,"o":"m 421 -14 q 157 71 244 -14 q 69 332 69 156 q 145 581 69 490 q 385 672 221 672 q 545 637 482 672 q 640 540 608 601 q 671 400 671 478 l 671 276 l 183 276 q 216 158 189 201 q 298 97 243 115 q 443 78 353 78 q 629 113 544 78 l 629 24 q 533 -4 586 6 q 421 -14 479 -14 m 183 358 l 569 358 l 569 413 q 527 537 569 493 q 388 581 485 581 q 226 525 269 581 q 183 358 183 469 z "},"é":{"ha":740,"x_min":69,"x_max":671,"o":"m 315 725 l 414 958 l 517 958 l 407 725 l 315 725 m 421 -14 q 157 71 244 -14 q 69 332 69 156 q 145 581 69 490 q 385 672 221 672 q 545 637 482 672 q 640 540 608 601 q 671 400 671 478 l 671 276 l 183 276 q 216 158 189 201 q 298 97 243 115 q 443 78 353 78 q 629 113 544 78 l 629 24 q 533 -4 586 6 q 421 -14 479 -14 m 183 358 l 569 358 l 569 413 q 527 537 569 493 q 388 581 485 581 q 226 525 269 581 q 183 358 183 469 z "},"ĕ":{"ha":740,"x_min":69,"x_max":671,"o":"m 374 725 q 243 774 288 725 q 199 900 199 822 l 279 900 q 305 822 279 847 q 374 797 331 797 q 445 822 419 797 q 471 900 471 847 l 551 900 q 506 774 551 822 q 374 725 461 725 m 421 -14 q 157 71 244 -14 q 69 332 69 156 q 145 581 69 490 q 385 672 221 672 q 545 637 482 672 q 640 540 608 601 q 671 400 671 478 l 671 276 l 183 276 q 216 158 189 201 q 298 97 243 115 q 443 78 353 78 q 629 113 544 78 l 629 24 q 533 -4 586 6 q 421 -14 479 -14 m 183 358 l 569 358 l 569 413 q 527 537 569 493 q 388 581 485 581 q 226 525 269 581 q 183 358 183 469 z "},"ě":{"ha":740,"x_min":69,"x_max":671,"o":"m 336 725 l 176 931 l 275 931 l 382 789 l 489 931 l 588 931 l 428 725 l 336 725 m 421 -14 q 157 71 244 -14 q 69 332 69 156 q 145 581 69 490 q 385 672 221 672 q 545 637 482 672 q 640 540 608 601 q 671 400 671 478 l 671 276 l 183 276 q 216 158 189 201 q 298 97 243 115 q 443 78 353 78 q 629 113 544 78 l 629 24 q 533 -4 586 6 q 421 -14 479 -14 m 183 358 l 569 358 l 569 413 q 527 537 569 493 q 388 581 485 581 q 226 525 269 581 q 183 358 183 469 z "},"ê":{"ha":740,"x_min":69,"x_max":671,"o":"m 164 725 l 324 931 l 415 931 l 575 725 l 476 725 l 369 867 l 263 725 l 164 725 m 421 -14 q 157 71 244 -14 q 69 332 69 156 q 145 581 69 490 q 385 672 221 672 q 545 637 482 672 q 640 540 608 601 q 671 400 671 478 l 671 276 l 183 276 q 216 158 189 201 q 298 97 243 115 q 443 78 353 78 q 629 113 544 78 l 629 24 q 533 -4 586 6 q 421 -14 479 -14 m 183 358 l 569 358 l 569 413 q 527 537 569 493 q 388 581 485 581 q 226 525 269 581 q 183 358 183 469 z "},"ế":{"ha":740,"x_min":69,"x_max":671,"o":"m 485 875 l 571 1049 l 661 1049 l 567 875 l 485 875 m 174 724 l 328 888 l 419 888 l 574 724 l 478 724 l 374 839 l 271 724 l 174 724 m 421 -14 q 157 71 244 -14 q 69 332 69 156 q 145 581 69 490 q 385 672 221 672 q 545 637 482 672 q 640 540 608 601 q 671 400 671 478 l 671 276 l 183 276 q 216 158 189 201 q 298 97 243 115 q 443 78 353 78 q 629 113 544 78 l 629 24 q 533 -4 586 6 q 421 -14 479 -14 m 183 358 l 569 358 l 569 413 q 527 537 569 493 q 388 581 485 581 q 226 525 269 581 q 183 358 183 469 z "},"ệ":{"ha":740,"x_min":69,"x_max":671,"o":"m 169 725 l 329 931 l 421 931 l 581 725 l 482 725 l 375 867 l 268 725 l 169 725 m 421 -14 q 157 71 244 -14 q 69 332 69 156 q 145 581 69 490 q 385 672 221 672 q 545 637 482 672 q 640 540 608 601 q 671 400 671 478 l 671 276 l 183 276 q 216 158 189 201 q 298 97 243 115 q 443 78 353 78 q 629 113 544 78 l 629 24 q 533 -4 586 6 q 421 -14 479 -14 m 183 358 l 569 358 l 569 413 q 527 537 569 493 q 388 581 485 581 q 226 525 269 581 q 183 358 183 469 m 319 -228 l 319 -121 l 431 -121 l 431 -228 l 319 -228 z "},"ề":{"ha":740,"x_min":69,"x_max":671,"o":"m 200 896 l 106 1069 l 196 1069 l 282 896 l 200 896 m 193 744 l 347 908 l 439 908 l 593 744 l 496 744 l 393 860 l 289 744 l 193 744 m 421 -14 q 157 71 244 -14 q 69 332 69 156 q 145 581 69 490 q 385 672 221 672 q 545 637 482 672 q 640 540 608 601 q 671 400 671 478 l 671 276 l 183 276 q 216 158 189 201 q 298 97 243 115 q 443 78 353 78 q 629 113 544 78 l 629 24 q 533 -4 586 6 q 421 -14 479 -14 m 183 358 l 569 358 l 569 413 q 527 537 569 493 q 388 581 485 581 q 226 525 269 581 q 183 358 183 469 z "},"ể":{"ha":740,"x_min":69,"x_max":686,"o":"m 492 846 l 492 933 q 582 951 561 936 q 603 992 603 965 q 533 1042 603 1042 q 490 1037 510 1042 q 454 1025 471 1032 l 454 1085 q 498 1097 474 1092 q 553 1101 522 1101 q 651 1074 615 1101 q 686 997 686 1046 q 660 927 686 953 q 576 894 633 901 l 576 846 l 492 846 m 169 724 l 324 888 l 415 888 l 569 724 l 474 724 l 369 839 l 267 724 l 169 724 m 421 -14 q 157 71 244 -14 q 69 332 69 156 q 145 581 69 490 q 385 672 221 672 q 545 637 482 672 q 640 540 608 601 q 671 400 671 478 l 671 276 l 183 276 q 216 158 189 201 q 298 97 243 115 q 443 78 353 78 q 629 113 544 78 l 629 24 q 533 -4 586 6 q 421 -14 479 -14 m 183 358 l 569 358 l 569 413 q 527 537 569 493 q 388 581 485 581 q 226 525 269 581 q 183 358 183 469 z "},"ễ":{"ha":740,"x_min":69,"x_max":671,"o":"m 475 892 q 410 904 442 892 q 348 928 378 917 q 290 940 318 940 q 233 931 260 940 q 185 896 206 921 l 185 974 q 231 1001 200 990 q 290 1011 261 1011 q 356 999 326 1011 q 415 975 386 988 q 475 963 444 963 q 574 1008 540 963 l 574 929 q 534 902 561 913 q 475 892 507 892 m 176 725 l 331 889 l 422 889 l 576 725 l 481 725 l 376 840 l 274 725 l 176 725 m 421 -14 q 157 71 244 -14 q 69 332 69 156 q 145 581 69 490 q 385 672 221 672 q 545 637 482 672 q 640 540 608 601 q 671 400 671 478 l 671 276 l 183 276 q 216 158 189 201 q 298 97 243 115 q 443 78 353 78 q 629 113 544 78 l 629 24 q 533 -4 586 6 q 421 -14 479 -14 m 183 358 l 569 358 l 569 413 q 527 537 569 493 q 388 581 485 581 q 226 525 269 581 q 183 358 183 469 z "},"ë":{"ha":740,"x_min":69,"x_max":671,"o":"m 190 757 l 190 861 l 299 861 l 299 757 l 190 757 m 435 757 l 435 861 l 543 861 l 543 757 l 435 757 m 421 -14 q 157 71 244 -14 q 69 332 69 156 q 145 581 69 490 q 385 672 221 672 q 545 637 482 672 q 640 540 608 601 q 671 400 671 478 l 671 276 l 183 276 q 216 158 189 201 q 298 97 243 115 q 443 78 353 78 q 629 113 544 78 l 629 24 q 533 -4 586 6 q 421 -14 479 -14 m 183 358 l 569 358 l 569 413 q 527 537 569 493 q 388 581 485 581 q 226 525 269 581 q 183 358 183 469 z "},"ė":{"ha":740,"x_min":69,"x_max":671,"o":"m 317 756 l 317 863 l 428 863 l 428 756 l 317 756 m 421 -14 q 157 71 244 -14 q 69 332 69 156 q 145 581 69 490 q 385 672 221 672 q 545 637 482 672 q 640 540 608 601 q 671 400 671 478 l 671 276 l 183 276 q 216 158 189 201 q 298 97 243 115 q 443 78 353 78 q 629 113 544 78 l 629 24 q 533 -4 586 6 q 421 -14 479 -14 m 183 358 l 569 358 l 569 413 q 527 537 569 493 q 388 581 485 581 q 226 525 269 581 q 183 358 183 469 z "},"ẹ":{"ha":740,"x_min":69,"x_max":671,"o":"m 421 -14 q 157 71 244 -14 q 69 332 69 156 q 145 581 69 490 q 385 672 221 672 q 545 637 482 672 q 640 540 608 601 q 671 400 671 478 l 671 276 l 183 276 q 216 158 189 201 q 298 97 243 115 q 443 78 353 78 q 629 113 544 78 l 629 24 q 533 -4 586 6 q 421 -14 479 -14 m 183 358 l 569 358 l 569 413 q 527 537 569 493 q 388 581 485 581 q 226 525 269 581 q 183 358 183 469 m 315 -228 l 315 -121 l 426 -121 l 426 -228 l 315 -228 z "},"è":{"ha":740,"x_min":69,"x_max":671,"o":"m 325 725 l 215 958 l 318 958 l 417 725 l 325 725 m 421 -14 q 157 71 244 -14 q 69 332 69 156 q 145 581 69 490 q 385 672 221 672 q 545 637 482 672 q 640 540 608 601 q 671 400 671 478 l 671 276 l 183 276 q 216 158 189 201 q 298 97 243 115 q 443 78 353 78 q 629 113 544 78 l 629 24 q 533 -4 586 6 q 421 -14 479 -14 m 183 358 l 569 358 l 569 413 q 527 537 569 493 q 388 581 485 581 q 226 525 269 581 q 183 358 183 469 z "},"ẻ":{"ha":740,"x_min":69,"x_max":671,"o":"m 328 725 l 328 840 q 433 860 410 844 q 457 913 457 876 q 431 961 457 947 q 349 975 404 975 q 301 970 326 975 q 257 958 275 965 l 257 1029 q 311 1042 278 1038 q 375 1047 344 1047 q 500 1014 457 1047 q 543 921 543 981 q 516 833 543 865 q 419 792 489 801 l 419 725 l 328 725 m 421 -14 q 157 71 244 -14 q 69 332 69 156 q 145 581 69 490 q 385 672 221 672 q 545 637 482 672 q 640 540 608 601 q 671 400 671 478 l 671 276 l 183 276 q 216 158 189 201 q 298 97 243 115 q 443 78 353 78 q 629 113 544 78 l 629 24 q 533 -4 586 6 q 421 -14 479 -14 m 183 358 l 569 358 l 569 413 q 527 537 569 493 q 388 581 485 581 q 226 525 269 581 q 183 358 183 469 z "},"ē":{"ha":740,"x_min":69,"x_max":671,"o":"m 189 769 l 189 851 l 589 851 l 589 769 l 189 769 m 421 -14 q 157 71 244 -14 q 69 332 69 156 q 145 581 69 490 q 385 672 221 672 q 545 637 482 672 q 640 540 608 601 q 671 400 671 478 l 671 276 l 183 276 q 216 158 189 201 q 298 97 243 115 q 443 78 353 78 q 629 113 544 78 l 629 24 q 533 -4 586 6 q 421 -14 479 -14 m 183 358 l 569 358 l 569 413 q 527 537 569 493 q 388 581 485 581 q 226 525 269 581 q 183 358 183 469 z "},"ę":{"ha":740,"x_min":69,"x_max":671,"o":"m 421 -14 q 157 71 244 -14 q 69 332 69 156 q 145 581 69 490 q 385 672 221 672 q 545 637 482 672 q 640 540 608 601 q 671 400 671 478 l 671 276 l 183 276 q 216 158 189 201 q 298 97 243 115 q 443 78 353 78 q 629 113 544 78 l 629 24 q 550 -1 594 8 q 451 -167 451 -75 q 469 -214 451 -201 q 521 -226 486 -226 q 558 -222 539 -226 q 590 -211 578 -218 l 590 -289 q 547 -301 574 -297 q 496 -306 521 -306 q 399 -277 440 -306 q 358 -183 358 -249 q 382 -90 358 -135 q 444 -14 406 -46 q 421 -14 433 -14 m 183 358 l 569 358 l 569 413 q 527 537 569 493 q 388 581 485 581 q 226 525 269 581 q 183 358 183 469 z "},"ẽ":{"ha":740,"x_min":69,"x_max":671,"o":"m 476 753 q 406 766 440 753 q 339 792 371 779 q 276 806 307 806 q 214 795 243 806 q 161 757 185 785 l 161 844 q 211 875 178 864 q 276 886 244 886 q 348 873 315 886 q 412 847 381 860 q 476 833 443 833 q 583 883 547 833 l 583 794 q 541 765 569 776 q 476 753 513 753 m 421 -14 q 157 71 244 -14 q 69 332 69 156 q 145 581 69 490 q 385 672 221 672 q 545 637 482 672 q 640 540 608 601 q 671 400 671 478 l 671 276 l 183 276 q 216 158 189 201 q 298 97 243 115 q 443 78 353 78 q 629 113 544 78 l 629 24 q 533 -4 586 6 q 421 -14 479 -14 m 183 358 l 569 358 l 569 413 q 527 537 569 493 q 388 581 485 581 q 226 525 269 581 q 183 358 183 469 z "},"ə":{"ha":740,"x_min":69,"x_max":671,"o":"m 356 -14 q 195 22 258 -14 q 101 119 132 57 q 69 258 69 181 l 69 382 l 557 382 q 524 501 551 457 q 442 563 497 544 q 297 581 388 581 q 111 546 196 581 l 111 635 q 208 663 154 654 q 319 672 261 672 q 583 588 496 672 q 671 326 671 504 q 595 77 671 168 q 356 -14 519 -14 m 353 78 q 514 133 471 78 q 557 300 557 189 l 171 300 l 171 246 q 213 122 171 165 q 353 78 256 78 z "},"f":{"ha":492,"x_min":42,"x_max":467,"o":"m 140 0 l 140 568 l 42 568 l 42 658 l 140 658 l 140 754 q 192 903 140 849 q 346 958 244 958 q 412 953 382 958 q 467 938 442 947 l 467 851 q 375 867 424 867 q 279 841 304 867 q 254 754 254 815 l 254 658 l 432 658 l 426 568 l 254 568 l 254 0 l 140 0 z "},"g":{"ha":760,"x_min":69,"x_max":711,"o":"m 353 -244 q 209 -236 279 -244 q 89 -210 139 -228 l 89 -115 q 214 -143 144 -133 q 347 -153 283 -153 q 500 -140 451 -153 q 549 -76 549 -128 q 523 -25 549 -40 q 432 -10 497 -10 l 257 -10 q 75 113 75 -10 q 101 190 75 153 q 178 242 126 226 q 96 319 122 269 q 69 436 69 368 q 141 616 69 560 q 360 672 213 672 q 423 667 390 672 q 474 658 456 663 l 711 658 l 707 581 l 588 581 q 633 517 619 554 q 647 436 647 481 q 583 266 647 326 q 388 206 519 206 q 348 208 365 206 q 307 213 331 210 q 226 188 264 211 q 189 129 189 165 q 208 94 189 106 q 276 83 226 83 l 458 83 q 610 44 557 83 q 663 -72 663 4 q 582 -207 663 -169 q 353 -244 501 -244 m 360 292 q 496 324 458 292 q 533 436 533 356 q 494 553 533 517 q 360 589 454 589 q 225 554 267 589 q 183 436 183 519 q 223 326 183 360 q 360 292 263 292 z "},"ğ":{"ha":760,"x_min":69,"x_max":711,"o":"m 368 725 q 238 774 282 725 q 193 900 193 822 l 274 900 q 299 822 274 847 q 368 797 325 797 q 440 822 414 797 q 465 900 465 847 l 546 900 q 501 774 546 822 q 368 725 456 725 m 353 -244 q 209 -236 279 -244 q 89 -210 139 -228 l 89 -115 q 214 -143 144 -133 q 347 -153 283 -153 q 500 -140 451 -153 q 549 -76 549 -128 q 523 -25 549 -40 q 432 -10 497 -10 l 257 -10 q 75 113 75 -10 q 101 190 75 153 q 178 242 126 226 q 96 319 122 269 q 69 436 69 368 q 141 616 69 560 q 360 672 213 672 q 423 667 390 672 q 474 658 456 663 l 711 658 l 707 581 l 588 581 q 633 517 619 554 q 647 436 647 481 q 583 266 647 326 q 388 206 519 206 q 348 208 365 206 q 307 213 331 210 q 226 188 264 211 q 189 129 189 165 q 208 94 189 106 q 276 83 226 83 l 458 83 q 610 44 557 83 q 663 -72 663 4 q 582 -207 663 -169 q 353 -244 501 -244 m 360 292 q 496 324 458 292 q 533 436 533 356 q 494 553 533 517 q 360 589 454 589 q 225 554 267 589 q 183 436 183 519 q 223 326 183 360 q 360 292 263 292 z "},"ǧ":{"ha":760,"x_min":69,"x_max":711,"o":"m 344 725 l 185 931 l 283 931 l 390 789 l 497 931 l 596 931 l 436 725 l 344 725 m 353 -244 q 209 -236 279 -244 q 89 -210 139 -228 l 89 -115 q 214 -143 144 -133 q 347 -153 283 -153 q 500 -140 451 -153 q 549 -76 549 -128 q 523 -25 549 -40 q 432 -10 497 -10 l 257 -10 q 75 113 75 -10 q 101 190 75 153 q 178 242 126 226 q 96 319 122 269 q 69 436 69 368 q 141 616 69 560 q 360 672 213 672 q 423 667 390 672 q 474 658 456 663 l 711 658 l 707 581 l 588 581 q 633 517 619 554 q 647 436 647 481 q 583 266 647 326 q 388 206 519 206 q 348 208 365 206 q 307 213 331 210 q 226 188 264 211 q 189 129 189 165 q 208 94 189 106 q 276 83 226 83 l 458 83 q 610 44 557 83 q 663 -72 663 4 q 582 -207 663 -169 q 353 -244 501 -244 m 360 292 q 496 324 458 292 q 533 436 533 356 q 494 553 533 517 q 360 589 454 589 q 225 554 267 589 q 183 436 183 519 q 223 326 183 360 q 360 292 263 292 z "},"ĝ":{"ha":760,"x_min":69,"x_max":711,"o":"m 161 725 l 321 931 l 413 931 l 572 725 l 474 725 l 367 867 l 260 725 l 161 725 m 353 -244 q 209 -236 279 -244 q 89 -210 139 -228 l 89 -115 q 214 -143 144 -133 q 347 -153 283 -153 q 500 -140 451 -153 q 549 -76 549 -128 q 523 -25 549 -40 q 432 -10 497 -10 l 257 -10 q 75 113 75 -10 q 101 190 75 153 q 178 242 126 226 q 96 319 122 269 q 69 436 69 368 q 141 616 69 560 q 360 672 213 672 q 423 667 390 672 q 474 658 456 663 l 711 658 l 707 581 l 588 581 q 633 517 619 554 q 647 436 647 481 q 583 266 647 326 q 388 206 519 206 q 348 208 365 206 q 307 213 331 210 q 226 188 264 211 q 189 129 189 165 q 208 94 189 106 q 276 83 226 83 l 458 83 q 610 44 557 83 q 663 -72 663 4 q 582 -207 663 -169 q 353 -244 501 -244 m 360 292 q 496 324 458 292 q 533 436 533 356 q 494 553 533 517 q 360 589 454 589 q 225 554 267 589 q 183 436 183 519 q 223 326 183 360 q 360 292 263 292 z "},"ģ":{"ha":760,"x_min":69,"x_max":711,"o":"m 301 725 l 360 971 l 443 971 l 404 725 l 301 725 m 353 -244 q 209 -236 279 -244 q 89 -210 139 -228 l 89 -115 q 214 -143 144 -133 q 347 -153 283 -153 q 500 -140 451 -153 q 549 -76 549 -128 q 523 -25 549 -40 q 432 -10 497 -10 l 257 -10 q 75 113 75 -10 q 101 190 75 153 q 178 242 126 226 q 96 319 122 269 q 69 436 69 368 q 141 616 69 560 q 360 672 213 672 q 423 667 390 672 q 474 658 456 663 l 711 658 l 707 581 l 588 581 q 633 517 619 554 q 647 436 647 481 q 583 266 647 326 q 388 206 519 206 q 348 208 365 206 q 307 213 331 210 q 226 188 264 211 q 189 129 189 165 q 208 94 189 106 q 276 83 226 83 l 458 83 q 610 44 557 83 q 663 -72 663 4 q 582 -207 663 -169 q 353 -244 501 -244 m 360 292 q 496 324 458 292 q 533 436 533 356 q 494 553 533 517 q 360 589 454 589 q 225 554 267 589 q 183 436 183 519 q 223 326 183 360 q 360 292 263 292 z "},"ġ":{"ha":760,"x_min":69,"x_max":711,"o":"m 306 749 l 306 856 l 417 856 l 417 749 l 306 749 m 353 -244 q 209 -236 279 -244 q 89 -210 139 -228 l 89 -115 q 214 -143 144 -133 q 347 -153 283 -153 q 500 -140 451 -153 q 549 -76 549 -128 q 523 -25 549 -40 q 432 -10 497 -10 l 257 -10 q 75 113 75 -10 q 101 190 75 153 q 178 242 126 226 q 96 319 122 269 q 69 436 69 368 q 141 616 69 560 q 360 672 213 672 q 423 667 390 672 q 474 658 456 663 l 711 658 l 707 581 l 588 581 q 633 517 619 554 q 647 436 647 481 q 583 266 647 326 q 388 206 519 206 q 348 208 365 206 q 307 213 331 210 q 226 188 264 211 q 189 129 189 165 q 208 94 189 106 q 276 83 226 83 l 458 83 q 610 44 557 83 q 663 -72 663 4 q 582 -207 663 -169 q 353 -244 501 -244 m 360 292 q 496 324 458 292 q 533 436 533 356 q 494 553 533 517 q 360 589 454 589 q 225 554 267 589 q 183 436 183 519 q 223 326 183 360 q 360 292 263 292 z "},"ḡ":{"ha":760,"x_min":69,"x_max":711,"o":"m 183 765 l 183 847 l 583 847 l 583 765 l 183 765 m 353 -244 q 209 -236 279 -244 q 89 -210 139 -228 l 89 -115 q 214 -143 144 -133 q 347 -153 283 -153 q 500 -140 451 -153 q 549 -76 549 -128 q 523 -25 549 -40 q 432 -10 497 -10 l 257 -10 q 75 113 75 -10 q 101 190 75 153 q 178 242 126 226 q 96 319 122 269 q 69 436 69 368 q 141 616 69 560 q 360 672 213 672 q 423 667 390 672 q 474 658 456 663 l 711 658 l 707 581 l 588 581 q 633 517 619 554 q 647 436 647 481 q 583 266 647 326 q 388 206 519 206 q 348 208 365 206 q 307 213 331 210 q 226 188 264 211 q 189 129 189 165 q 208 94 189 106 q 276 83 226 83 l 458 83 q 610 44 557 83 q 663 -72 663 4 q 582 -207 663 -169 q 353 -244 501 -244 m 360 292 q 496 324 458 292 q 533 436 533 356 q 494 553 533 517 q 360 589 454 589 q 225 554 267 589 q 183 436 183 519 q 223 326 183 360 q 360 292 263 292 z "},"h":{"ha":792,"x_min":97,"x_max":701,"o":"m 97 0 l 97 936 l 211 936 l 211 588 q 319 649 257 625 q 463 672 381 672 q 642 614 582 672 q 701 431 701 556 l 701 0 l 588 0 l 588 426 q 549 547 588 513 q 424 581 511 581 q 309 556 368 581 q 211 493 250 532 l 211 0 l 97 0 z "},"ħ":{"ha":815,"x_min":42,"x_max":725,"o":"m 121 0 l 121 756 l 42 756 l 42 846 l 121 846 l 121 936 l 235 936 l 235 846 l 465 846 l 465 756 l 235 756 l 235 588 q 342 649 281 625 q 486 672 404 672 q 665 614 606 672 q 725 431 725 556 l 725 0 l 611 0 l 611 426 q 573 547 611 513 q 447 581 535 581 q 333 556 392 581 q 235 493 274 532 l 235 0 l 121 0 z "},"ḫ":{"ha":792,"x_min":97,"x_max":701,"o":"m 97 0 l 97 936 l 211 936 l 211 588 q 319 649 257 625 q 463 672 381 672 q 642 614 582 672 q 701 431 701 556 l 701 0 l 588 0 l 588 426 q 549 547 588 513 q 424 581 511 581 q 309 556 368 581 q 211 493 250 532 l 211 0 l 97 0 m 406 -272 q 275 -224 319 -272 q 231 -97 231 -175 l 311 -97 q 337 -175 311 -150 q 406 -200 363 -200 q 477 -175 451 -200 q 503 -97 503 -150 l 583 -97 q 538 -224 583 -175 q 406 -272 493 -272 z "},"ĥ":{"ha":792,"x_min":97,"x_max":701,"o":"m 106 974 l 265 1179 l 357 1179 l 517 974 l 418 974 l 311 1115 l 204 974 l 106 974 m 97 0 l 97 936 l 211 936 l 211 588 q 319 649 257 625 q 463 672 381 672 q 642 614 582 672 q 701 431 701 556 l 701 0 l 588 0 l 588 426 q 549 547 588 513 q 424 581 511 581 q 309 556 368 581 q 211 493 250 532 l 211 0 l 97 0 z "},"ḥ":{"ha":792,"x_min":97,"x_max":701,"o":"m 97 0 l 97 936 l 211 936 l 211 588 q 319 649 257 625 q 463 672 381 672 q 642 614 582 672 q 701 431 701 556 l 701 0 l 588 0 l 588 426 q 549 547 588 513 q 424 581 511 581 q 309 556 368 581 q 211 493 250 532 l 211 0 l 97 0 m 347 -228 l 347 -121 l 458 -121 l 458 -228 l 347 -228 z "},"i":{"ha":383,"x_min":69,"x_max":286,"o":"m 160 813 l 160 917 l 286 917 l 286 813 l 160 813 m 171 0 l 171 568 l 69 568 l 81 658 l 285 658 l 285 0 l 171 0 z "},"ı":{"ha":382,"x_min":69,"x_max":285,"o":"m 171 0 l 171 568 l 69 568 l 81 658 l 285 658 l 285 0 l 171 0 z "},"í":{"ha":410,"x_min":97,"x_max":396,"o":"m 194 725 l 293 958 l 396 958 l 286 725 l 194 725 m 199 0 l 199 568 l 97 568 l 108 658 l 313 658 l 313 0 l 199 0 z "},"ĭ":{"ha":410,"x_min":44,"x_max":397,"o":"m 219 724 q 89 772 133 724 q 44 899 44 821 l 125 899 q 151 821 125 846 q 219 796 176 796 q 291 821 265 796 q 317 899 317 846 l 397 899 q 352 772 397 821 q 219 724 307 724 m 199 0 l 199 568 l 97 568 l 108 658 l 313 658 l 313 0 l 199 0 z "},"ǐ":{"ha":410,"x_min":21,"x_max":432,"o":"m 181 725 l 21 931 l 119 931 l 226 789 l 333 931 l 432 931 l 272 725 l 181 725 m 199 0 l 199 568 l 97 568 l 108 658 l 313 658 l 313 0 l 199 0 z "},"î":{"ha":410,"x_min":25,"x_max":436,"o":"m 25 725 l 185 931 l 276 931 l 436 725 l 338 725 l 231 867 l 124 725 l 25 725 m 199 0 l 199 568 l 97 568 l 108 658 l 313 658 l 313 0 l 199 0 z "},"ï":{"ha":410,"x_min":38,"x_max":390,"o":"m 38 757 l 38 861 l 146 861 l 146 757 l 38 757 m 282 757 l 282 861 l 390 861 l 390 757 l 282 757 m 199 0 l 199 568 l 97 568 l 108 658 l 313 658 l 313 0 l 199 0 z "},"ị":{"ha":411,"x_min":97,"x_max":314,"o":"m 188 813 l 188 917 l 314 917 l 314 813 l 188 813 m 199 0 l 199 568 l 97 568 l 108 658 l 313 658 l 313 0 l 199 0 m 200 -228 l 200 -121 l 311 -121 l 311 -228 l 200 -228 z "},"ì":{"ha":410,"x_min":97,"x_max":313,"o":"m 215 725 l 106 958 l 208 958 l 307 725 l 215 725 m 199 0 l 199 568 l 97 568 l 108 658 l 313 658 l 313 0 l 199 0 z "},"ỉ":{"ha":410,"x_min":92,"x_max":378,"o":"m 163 725 l 163 840 q 268 860 244 844 q 292 913 292 876 q 265 961 292 947 q 183 975 239 975 q 135 970 161 975 q 92 958 110 965 l 92 1029 q 146 1042 113 1038 q 210 1047 179 1047 q 335 1014 292 1047 q 378 921 378 981 q 351 833 378 865 q 254 792 324 801 l 254 725 l 163 725 m 199 0 l 199 568 l 97 568 l 108 658 l 313 658 l 313 0 l 199 0 z "},"ĳ":{"ha":675,"x_min":69,"x_max":578,"o":"m 160 813 l 160 917 l 286 917 l 286 813 l 160 813 m 451 813 l 451 917 l 578 917 l 578 813 l 451 813 m 376 -325 q 253 -306 307 -325 l 253 -215 q 298 -226 276 -222 q 338 -229 319 -229 q 438 -204 413 -229 q 464 -121 464 -179 l 464 568 l 363 568 l 374 658 l 578 658 l 578 -131 q 526 -272 578 -219 q 376 -325 475 -325 m 171 0 l 171 568 l 69 568 l 81 658 l 285 658 l 285 0 l 171 0 z "},"ī":{"ha":410,"x_min":6,"x_max":406,"o":"m 6 779 l 6 861 l 406 861 l 406 779 l 6 779 m 199 0 l 199 568 l 97 568 l 108 658 l 313 658 l 313 0 l 199 0 z "},"į":{"ha":383,"x_min":69,"x_max":301,"o":"m 160 813 l 160 917 l 286 917 l 286 813 l 160 813 m 171 0 l 171 568 l 69 568 l 81 658 l 285 658 l 285 0 l 263 0 q 163 -167 163 -75 q 180 -214 163 -201 q 232 -226 197 -226 q 269 -222 250 -226 q 301 -211 289 -218 l 301 -289 q 258 -301 285 -297 q 207 -306 232 -306 q 110 -277 151 -306 q 69 -183 69 -249 q 99 -80 69 -129 q 174 0 128 -31 l 171 0 z "},"ĩ":{"ha":410,"x_min":-4,"x_max":418,"o":"m 311 732 q 240 745 275 732 q 174 772 206 758 q 111 785 142 785 q 49 774 78 785 q -4 736 19 764 l -4 824 q 46 854 13 843 q 111 865 79 865 q 183 852 150 865 q 247 826 215 839 q 311 813 278 813 q 418 863 382 813 l 418 774 q 376 744 404 756 q 311 732 347 732 m 199 0 l 199 568 l 97 568 l 108 658 l 313 658 l 313 0 l 199 0 z "},"j":{"ha":408,"x_min":-14,"x_max":311,"o":"m 185 813 l 185 917 l 311 917 l 311 813 l 185 813 m 110 -325 q -14 -306 40 -325 l -14 -215 q 31 -226 10 -222 q 71 -229 53 -229 q 172 -204 146 -229 q 197 -121 197 -179 l 197 568 l 96 568 l 107 658 l 311 658 l 311 -131 q 260 -272 311 -219 q 110 -325 208 -325 z "},"ȷ":{"ha":408,"x_min":-14,"x_max":311,"o":"m 110 -325 q -14 -306 40 -325 l -14 -215 q 31 -226 10 -222 q 71 -229 53 -229 q 172 -204 146 -229 q 197 -121 197 -179 l 197 568 l 96 568 l 107 658 l 311 658 l 311 -131 q 260 -272 311 -219 q 110 -325 208 -325 z "},"ĵ":{"ha":408,"x_min":-14,"x_max":444,"o":"m 33 725 l 193 931 l 285 931 l 444 725 l 346 725 l 239 867 l 132 725 l 33 725 m 110 -325 q -14 -306 40 -325 l -14 -215 q 31 -226 10 -222 q 71 -229 53 -229 q 172 -204 146 -229 q 197 -121 197 -179 l 197 568 l 96 568 l 107 658 l 311 658 l 311 -131 q 260 -272 311 -219 q 110 -325 208 -325 z "},"k":{"ha":715,"x_min":97,"x_max":667,"o":"m 97 0 l 97 936 l 211 936 l 211 368 l 519 658 l 651 658 l 382 397 l 667 0 l 547 0 l 310 336 l 211 243 l 211 0 l 97 0 z "},"ķ":{"ha":736,"x_min":97,"x_max":667,"o":"m 97 0 l 97 936 l 211 936 l 211 368 l 519 658 l 651 658 l 382 397 l 667 0 l 547 0 l 310 336 l 211 243 l 211 0 l 97 0 m 283 -297 l 322 -51 l 425 -51 l 367 -297 l 283 -297 z "},"ĸ":{"ha":736,"x_min":97,"x_max":667,"o":"m 97 0 l 97 658 l 211 658 l 211 342 l 519 658 l 651 658 l 382 378 l 667 0 l 547 0 l 311 315 l 211 213 l 211 0 l 97 0 z "},"l":{"ha":365,"x_min":97,"x_max":331,"o":"m 240 -14 q 135 22 174 -14 q 97 142 97 57 l 97 936 l 211 936 l 211 154 q 225 97 211 113 q 268 82 239 82 q 331 90 300 82 l 331 0 q 286 -11 308 -8 q 240 -14 264 -14 z "},"ĺ":{"ha":365,"x_min":97,"x_max":331,"o":"m 97 1011 l 196 1244 l 299 1244 l 189 1011 l 97 1011 m 240 -14 q 135 22 174 -14 q 97 142 97 57 l 97 936 l 211 936 l 211 154 q 225 97 211 113 q 268 82 239 82 q 331 90 300 82 l 331 0 q 286 -11 308 -8 q 240 -14 264 -14 z "},"ľ":{"ha":451,"x_min":97,"x_max":433,"o":"m 240 -14 q 135 22 174 -14 q 97 142 97 57 l 97 936 l 211 936 l 211 154 q 225 97 211 113 q 268 82 239 82 q 331 90 300 82 l 331 0 q 286 -11 308 -8 q 240 -14 264 -14 m 292 690 l 331 936 l 433 936 l 375 690 l 292 690 z "},"ļ":{"ha":365,"x_min":97,"x_max":331,"o":"m 240 -14 q 135 22 174 -14 q 97 142 97 57 l 97 936 l 211 936 l 211 154 q 225 97 211 113 q 268 82 239 82 q 331 90 300 82 l 331 0 q 286 -11 308 -8 q 240 -14 264 -14 m 147 -297 l 186 -51 l 289 -51 l 231 -297 l 147 -297 z "},"ŀ":{"ha":433,"x_min":97,"x_max":429,"o":"m 240 -14 q 135 22 174 -14 q 97 142 97 57 l 97 936 l 211 936 l 211 154 q 225 97 211 113 q 268 82 239 82 q 331 90 300 82 l 331 0 q 286 -11 308 -8 q 240 -14 264 -14 m 318 369 l 318 476 l 429 476 l 429 369 l 318 369 z "},"ḷ":{"ha":365,"x_min":97,"x_max":331,"o":"m 240 -14 q 135 22 174 -14 q 97 142 97 57 l 97 936 l 211 936 l 211 154 q 225 97 211 113 q 268 82 239 82 q 331 90 300 82 l 331 0 q 286 -11 308 -8 q 240 -14 264 -14 m 156 -228 l 156 -121 l 267 -121 l 267 -228 l 156 -228 z "},"ḹ":{"ha":365,"x_min":-43,"x_max":357,"o":"m -43 1001 l -43 1083 l 357 1083 l 357 1001 l -43 1001 m 240 -14 q 135 22 174 -14 q 97 142 97 57 l 97 936 l 211 936 l 211 154 q 225 97 211 113 q 268 82 239 82 q 331 90 300 82 l 331 0 q 286 -11 308 -8 q 240 -14 264 -14 m 156 -228 l 156 -121 l 267 -121 l 267 -228 l 156 -228 z "},"ḻ":{"ha":365,"x_min":-12,"x_max":388,"o":"m 240 -14 q 135 22 174 -14 q 97 142 97 57 l 97 936 l 211 936 l 211 154 q 225 97 211 113 q 268 82 239 82 q 331 90 300 82 l 331 0 q 286 -11 308 -8 q 240 -14 264 -14 m -12 -183 l -12 -101 l 388 -101 l 388 -183 l -12 -183 z "},"ł":{"ha":365,"x_min":-53,"x_max":386,"o":"m 240 -14 q 135 22 174 -14 q 97 142 97 57 l 97 392 l -53 325 l -53 424 l 97 490 l 97 936 l 211 936 l 211 540 l 386 617 l 386 518 l 211 442 l 211 154 q 225 97 211 113 q 268 82 239 82 q 331 90 300 82 l 331 0 q 286 -11 308 -8 q 240 -14 264 -14 z "},"m":{"ha":1188,"x_min":97,"x_max":1097,"o":"m 97 0 l 97 658 l 200 658 l 207 583 q 319 649 260 625 q 446 672 378 672 q 560 649 519 672 q 621 582 601 625 q 729 647 668 621 q 875 672 790 672 q 1042 615 988 672 q 1097 438 1097 557 l 1097 0 l 985 0 l 985 426 q 948 547 985 514 q 829 581 911 581 q 726 563 775 581 q 642 507 676 544 q 650 426 650 472 l 650 0 l 543 0 l 543 424 q 515 544 543 507 q 406 581 488 581 q 299 556 350 581 q 210 496 249 532 l 210 0 l 97 0 z "},"ṃ":{"ha":1188,"x_min":97,"x_max":1097,"o":"m 97 0 l 97 658 l 200 658 l 207 583 q 319 649 260 625 q 446 672 378 672 q 560 649 519 672 q 621 582 601 625 q 729 647 668 621 q 875 672 790 672 q 1042 615 988 672 q 1097 438 1097 557 l 1097 0 l 985 0 l 985 426 q 948 547 985 514 q 829 581 911 581 q 726 563 775 581 q 642 507 676 544 q 650 426 650 472 l 650 0 l 543 0 l 543 424 q 515 544 543 507 q 406 581 488 581 q 299 556 350 581 q 210 496 249 532 l 210 0 l 97 0 m 539 -228 l 539 -121 l 650 -121 l 650 -228 l 539 -228 z "},"n":{"ha":792,"x_min":97,"x_max":701,"o":"m 97 0 l 97 658 l 200 658 l 207 583 q 317 647 254 622 q 463 672 381 672 q 644 614 588 672 q 701 431 701 556 l 701 0 l 588 0 l 588 426 q 553 547 588 513 q 419 581 518 581 q 304 558 358 581 q 211 497 250 536 l 211 0 l 97 0 z "},"ń":{"ha":792,"x_min":97,"x_max":701,"o":"m 329 725 l 428 958 l 531 958 l 421 725 l 329 725 m 97 0 l 97 658 l 200 658 l 207 583 q 317 647 254 622 q 463 672 381 672 q 644 614 588 672 q 701 431 701 556 l 701 0 l 588 0 l 588 426 q 553 547 588 513 q 419 581 518 581 q 304 558 358 581 q 211 497 250 536 l 211 0 l 97 0 z "},"ŉ":{"ha":913,"x_min":46,"x_max":822,"o":"m 46 656 l 85 901 l 188 901 l 129 656 l 46 656 m 218 0 l 218 658 l 321 658 l 328 583 q 438 647 375 622 q 583 672 501 672 q 765 614 708 672 q 822 431 822 556 l 822 0 l 708 0 l 708 426 q 674 547 708 513 q 540 581 639 581 q 425 558 479 581 q 332 497 371 536 l 332 0 l 218 0 z "},"ň":{"ha":792,"x_min":97,"x_max":701,"o":"m 335 725 l 175 931 l 274 931 l 381 789 l 488 931 l 586 931 l 426 725 l 335 725 m 97 0 l 97 658 l 200 658 l 207 583 q 317 647 254 622 q 463 672 381 672 q 644 614 588 672 q 701 431 701 556 l 701 0 l 588 0 l 588 426 q 553 547 588 513 q 419 581 518 581 q 304 558 358 581 q 211 497 250 536 l 211 0 l 97 0 z "},"ņ":{"ha":792,"x_min":97,"x_max":701,"o":"m 97 0 l 97 658 l 200 658 l 207 583 q 317 647 254 622 q 463 672 381 672 q 644 614 588 672 q 701 431 701 556 l 701 0 l 588 0 l 588 426 q 553 547 588 513 q 419 581 518 581 q 304 558 358 581 q 211 497 250 536 l 211 0 l 97 0 m 324 -297 l 363 -51 l 465 -51 l 407 -297 l 324 -297 z "},"ṅ":{"ha":792,"x_min":97,"x_max":701,"o":"m 336 756 l 336 863 l 447 863 l 447 756 l 336 756 m 97 0 l 97 658 l 200 658 l 207 583 q 317 647 254 622 q 463 672 381 672 q 644 614 588 672 q 701 431 701 556 l 701 0 l 588 0 l 588 426 q 553 547 588 513 q 419 581 518 581 q 304 558 358 581 q 211 497 250 536 l 211 0 l 97 0 z "},"ṇ":{"ha":792,"x_min":97,"x_max":701,"o":"m 97 0 l 97 658 l 200 658 l 207 583 q 317 647 254 622 q 463 672 381 672 q 644 614 588 672 q 701 431 701 556 l 701 0 l 588 0 l 588 426 q 553 547 588 513 q 419 581 518 581 q 304 558 358 581 q 211 497 250 536 l 211 0 l 97 0 m 343 -228 l 343 -121 l 454 -121 l 454 -228 l 343 -228 z "},"ŋ":{"ha":792,"x_min":97,"x_max":701,"o":"m 500 -325 q 376 -306 431 -325 l 376 -215 q 422 -226 400 -222 q 461 -229 443 -229 q 562 -204 536 -229 q 588 -121 588 -179 l 588 426 q 553 547 588 513 q 419 581 518 581 q 304 558 358 581 q 211 497 250 536 l 211 0 l 97 0 l 97 658 l 200 658 l 207 583 q 317 647 254 622 q 463 672 381 672 q 644 614 588 672 q 701 431 701 556 l 701 -131 q 650 -272 701 -219 q 500 -325 599 -325 z "},"ṉ":{"ha":792,"x_min":97,"x_max":701,"o":"m 97 0 l 97 658 l 200 658 l 207 583 q 317 647 254 622 q 463 672 381 672 q 644 614 588 672 q 701 431 701 556 l 701 0 l 588 0 l 588 426 q 553 547 588 513 q 419 581 518 581 q 304 558 358 581 q 211 497 250 536 l 211 0 l 97 0 m 194 -181 l 194 -99 l 594 -99 l 594 -181 l 194 -181 z "},"ñ":{"ha":792,"x_min":97,"x_max":701,"o":"m 500 753 q 429 766 464 753 q 363 792 394 779 q 300 806 331 806 q 238 795 267 806 q 185 757 208 785 l 185 844 q 235 875 201 864 q 300 886 268 886 q 372 873 339 886 q 435 847 404 860 q 500 833 467 833 q 607 883 571 833 l 607 794 q 565 765 593 776 q 500 753 536 753 m 97 0 l 97 658 l 200 658 l 207 583 q 317 647 254 622 q 463 672 381 672 q 644 614 588 672 q 701 431 701 556 l 701 0 l 588 0 l 588 426 q 553 547 588 513 q 419 581 518 581 q 304 558 358 581 q 211 497 250 536 l 211 0 l 97 0 z "},"o":{"ha":797,"x_min":69,"x_max":728,"o":"m 399 -14 q 148 74 226 -14 q 69 329 69 163 q 149 583 69 494 q 399 672 228 672 q 649 583 569 672 q 728 329 728 494 q 650 74 728 163 q 399 -14 572 -14 m 399 83 q 565 142 517 83 q 614 329 614 201 q 565 516 614 457 q 399 575 515 575 q 233 516 282 575 q 183 329 183 457 q 232 142 183 201 q 399 83 281 83 z "},"ó":{"ha":797,"x_min":69,"x_max":728,"o":"m 351 725 l 450 958 l 553 958 l 443 725 l 351 725 m 399 -14 q 148 74 226 -14 q 69 329 69 163 q 149 583 69 494 q 399 672 228 672 q 649 583 569 672 q 728 329 728 494 q 650 74 728 163 q 399 -14 572 -14 m 399 83 q 565 142 517 83 q 614 329 614 201 q 565 516 614 457 q 399 575 515 575 q 233 516 282 575 q 183 329 183 457 q 232 142 183 201 q 399 83 281 83 z "},"ŏ":{"ha":797,"x_min":69,"x_max":728,"o":"m 397 725 q 267 774 311 725 q 222 900 222 822 l 303 900 q 328 822 303 847 q 397 797 354 797 q 469 822 443 797 q 494 900 494 847 l 575 900 q 530 774 575 822 q 397 725 485 725 m 399 -14 q 148 74 226 -14 q 69 329 69 163 q 149 583 69 494 q 399 672 228 672 q 649 583 569 672 q 728 329 728 494 q 650 74 728 163 q 399 -14 572 -14 m 399 83 q 565 142 517 83 q 614 329 614 201 q 565 516 614 457 q 399 575 515 575 q 233 516 282 575 q 183 329 183 457 q 232 142 183 201 q 399 83 281 83 z "},"ǒ":{"ha":797,"x_min":69,"x_max":728,"o":"m 353 725 l 193 931 l 292 931 l 399 789 l 506 931 l 604 931 l 444 725 l 353 725 m 399 -14 q 148 74 226 -14 q 69 329 69 163 q 149 583 69 494 q 399 672 228 672 q 649 583 569 672 q 728 329 728 494 q 650 74 728 163 q 399 -14 572 -14 m 399 83 q 565 142 517 83 q 614 329 614 201 q 565 516 614 457 q 399 575 515 575 q 233 516 282 575 q 183 329 183 457 q 232 142 183 201 q 399 83 281 83 z "},"ô":{"ha":797,"x_min":69,"x_max":728,"o":"m 193 725 l 353 931 l 444 931 l 604 725 l 506 725 l 399 867 l 292 725 l 193 725 m 399 -14 q 148 74 226 -14 q 69 329 69 163 q 149 583 69 494 q 399 672 228 672 q 649 583 569 672 q 728 329 728 494 q 650 74 728 163 q 399 -14 572 -14 m 399 83 q 565 142 517 83 q 614 329 614 201 q 565 516 614 457 q 399 575 515 575 q 233 516 282 575 q 183 329 183 457 q 232 142 183 201 q 399 83 281 83 z "},"ố":{"ha":797,"x_min":69,"x_max":728,"o":"m 507 876 l 593 1050 l 683 1050 l 589 876 l 507 876 m 196 725 l 350 889 l 442 889 l 596 725 l 500 725 l 396 840 l 293 725 l 196 725 m 399 -14 q 148 74 226 -14 q 69 329 69 163 q 149 583 69 494 q 399 672 228 672 q 649 583 569 672 q 728 329 728 494 q 650 74 728 163 q 399 -14 572 -14 m 399 83 q 565 142 517 83 q 614 329 614 201 q 565 516 614 457 q 399 575 515 575 q 233 516 282 575 q 183 329 183 457 q 232 142 183 201 q 399 83 281 83 z "},"ộ":{"ha":797,"x_min":69,"x_max":728,"o":"m 193 725 l 353 931 l 444 931 l 604 725 l 506 725 l 399 867 l 292 725 l 193 725 m 399 -14 q 148 74 226 -14 q 69 329 69 163 q 149 583 69 494 q 399 672 228 672 q 649 583 569 672 q 728 329 728 494 q 650 74 728 163 q 399 -14 572 -14 m 399 83 q 565 142 517 83 q 614 329 614 201 q 565 516 614 457 q 399 575 515 575 q 233 516 282 575 q 183 329 183 457 q 232 142 183 201 q 399 83 281 83 m 343 -228 l 343 -121 l 454 -121 l 454 -228 l 343 -228 z "},"ồ":{"ha":797,"x_min":69,"x_max":728,"o":"m 193 876 l 99 1050 l 189 1050 l 275 876 l 193 876 m 186 725 l 340 889 l 432 889 l 586 725 l 489 725 l 386 840 l 282 725 l 186 725 m 399 -14 q 148 74 226 -14 q 69 329 69 163 q 149 583 69 494 q 399 672 228 672 q 649 583 569 672 q 728 329 728 494 q 650 74 728 163 q 399 -14 572 -14 m 399 83 q 565 142 517 83 q 614 329 614 201 q 565 516 614 457 q 399 575 515 575 q 233 516 282 575 q 183 329 183 457 q 232 142 183 201 q 399 83 281 83 z "},"ổ":{"ha":797,"x_min":69,"x_max":729,"o":"m 535 847 l 535 935 q 625 952 604 938 q 646 993 646 967 q 576 1043 646 1043 q 533 1038 553 1043 q 497 1026 514 1033 l 497 1086 q 541 1098 517 1093 q 596 1103 565 1103 q 694 1075 658 1103 q 729 999 729 1047 q 703 928 729 954 q 619 896 676 903 l 619 847 l 535 847 m 213 725 l 367 889 l 458 889 l 613 725 l 517 725 l 413 840 l 310 725 l 213 725 m 399 -14 q 148 74 226 -14 q 69 329 69 163 q 149 583 69 494 q 399 672 228 672 q 649 583 569 672 q 728 329 728 494 q 650 74 728 163 q 399 -14 572 -14 m 399 83 q 565 142 517 83 q 614 329 614 201 q 565 516 614 457 q 399 575 515 575 q 233 516 282 575 q 183 329 183 457 q 232 142 183 201 q 399 83 281 83 z "},"ỗ":{"ha":797,"x_min":69,"x_max":728,"o":"m 496 892 q 431 904 463 892 q 369 928 399 917 q 311 940 339 940 q 253 931 281 940 q 206 896 226 921 l 206 974 q 251 1001 221 990 q 311 1011 282 1011 q 377 999 347 1011 q 436 975 407 988 q 496 963 465 963 q 594 1008 561 963 l 594 929 q 555 902 582 913 q 496 892 528 892 m 213 725 l 367 889 l 458 889 l 613 725 l 517 725 l 413 840 l 310 725 l 213 725 m 399 -14 q 148 74 226 -14 q 69 329 69 163 q 149 583 69 494 q 399 672 228 672 q 649 583 569 672 q 728 329 728 494 q 650 74 728 163 q 399 -14 572 -14 m 399 83 q 565 142 517 83 q 614 329 614 201 q 565 516 614 457 q 399 575 515 575 q 233 516 282 575 q 183 329 183 457 q 232 142 183 201 q 399 83 281 83 z "},"ö":{"ha":797,"x_min":69,"x_max":728,"o":"m 222 757 l 222 861 l 331 861 l 331 757 l 222 757 m 467 757 l 467 861 l 575 861 l 575 757 l 467 757 m 399 -14 q 148 74 226 -14 q 69 329 69 163 q 149 583 69 494 q 399 672 228 672 q 649 583 569 672 q 728 329 728 494 q 650 74 728 163 q 399 -14 572 -14 m 399 83 q 565 142 517 83 q 614 329 614 201 q 565 516 614 457 q 399 575 515 575 q 233 516 282 575 q 183 329 183 457 q 232 142 183 201 q 399 83 281 83 z "},"ọ":{"ha":797,"x_min":69,"x_max":728,"o":"m 399 -14 q 148 74 226 -14 q 69 329 69 163 q 149 583 69 494 q 399 672 228 672 q 649 583 569 672 q 728 329 728 494 q 650 74 728 163 q 399 -14 572 -14 m 399 83 q 565 142 517 83 q 614 329 614 201 q 565 516 614 457 q 399 575 515 575 q 233 516 282 575 q 183 329 183 457 q 232 142 183 201 q 399 83 281 83 m 343 -228 l 343 -121 l 454 -121 l 454 -228 l 343 -228 z "},"ò":{"ha":797,"x_min":69,"x_max":728,"o":"m 361 725 l 251 958 l 354 958 l 453 725 l 361 725 m 399 -14 q 148 74 226 -14 q 69 329 69 163 q 149 583 69 494 q 399 672 228 672 q 649 583 569 672 q 728 329 728 494 q 650 74 728 163 q 399 -14 572 -14 m 399 83 q 565 142 517 83 q 614 329 614 201 q 565 516 614 457 q 399 575 515 575 q 233 516 282 575 q 183 329 183 457 q 232 142 183 201 q 399 83 281 83 z "},"ỏ":{"ha":797,"x_min":69,"x_max":728,"o":"m 354 725 l 354 840 q 460 860 436 844 q 483 913 483 876 q 457 961 483 947 q 375 975 431 975 q 327 970 353 975 q 283 958 301 965 l 283 1029 q 338 1042 304 1038 q 401 1047 371 1047 q 526 1014 483 1047 q 569 921 569 981 q 542 833 569 865 q 446 792 515 801 l 446 725 l 354 725 m 399 -14 q 148 74 226 -14 q 69 329 69 163 q 149 583 69 494 q 399 672 228 672 q 649 583 569 672 q 728 329 728 494 q 650 74 728 163 q 399 -14 572 -14 m 399 83 q 565 142 517 83 q 614 329 614 201 q 565 516 614 457 q 399 575 515 575 q 233 516 282 575 q 183 329 183 457 q 232 142 183 201 q 399 83 281 83 z "},"ơ":{"ha":914,"x_min":69,"x_max":886,"o":"m 399 -14 q 148 74 226 -14 q 69 329 69 163 q 149 583 69 494 q 399 672 228 672 q 551 648 488 672 q 654 576 614 624 q 761 615 735 578 q 788 744 788 651 l 886 744 q 839 561 886 618 q 701 493 792 504 q 728 329 728 426 q 650 74 728 163 q 399 -14 572 -14 m 399 83 q 565 142 517 83 q 614 329 614 201 q 565 516 614 457 q 399 575 515 575 q 233 516 282 575 q 183 329 183 457 q 232 142 183 201 q 399 83 281 83 z "},"ớ":{"ha":914,"x_min":69,"x_max":886,"o":"m 364 725 l 463 958 l 565 958 l 456 725 l 364 725 m 399 -14 q 148 74 226 -14 q 69 329 69 163 q 149 583 69 494 q 399 672 228 672 q 551 648 488 672 q 654 576 614 624 q 761 615 735 578 q 788 744 788 651 l 886 744 q 839 561 886 618 q 701 493 792 504 q 728 329 728 426 q 650 74 728 163 q 399 -14 572 -14 m 399 83 q 565 142 517 83 q 614 329 614 201 q 565 516 614 457 q 399 575 515 575 q 233 516 282 575 q 183 329 183 457 q 232 142 183 201 q 399 83 281 83 z "},"ợ":{"ha":914,"x_min":69,"x_max":886,"o":"m 399 -14 q 148 74 226 -14 q 69 329 69 163 q 149 583 69 494 q 399 672 228 672 q 551 648 488 672 q 654 576 614 624 q 761 615 735 578 q 788 744 788 651 l 886 744 q 839 561 886 618 q 701 493 792 504 q 728 329 728 426 q 650 74 728 163 q 399 -14 572 -14 m 399 83 q 565 142 517 83 q 614 329 614 201 q 565 516 614 457 q 399 575 515 575 q 233 516 282 575 q 183 329 183 457 q 232 142 183 201 q 399 83 281 83 m 344 -228 l 344 -121 l 456 -121 l 456 -228 l 344 -228 z "},"ờ":{"ha":914,"x_min":69,"x_max":886,"o":"m 368 725 l 258 958 l 361 958 l 460 725 l 368 725 m 399 -14 q 148 74 226 -14 q 69 329 69 163 q 149 583 69 494 q 399 672 228 672 q 551 648 488 672 q 654 576 614 624 q 761 615 735 578 q 788 744 788 651 l 886 744 q 839 561 886 618 q 701 493 792 504 q 728 329 728 426 q 650 74 728 163 q 399 -14 572 -14 m 399 83 q 565 142 517 83 q 614 329 614 201 q 565 516 614 457 q 399 575 515 575 q 233 516 282 575 q 183 329 183 457 q 232 142 183 201 q 399 83 281 83 z "},"ở":{"ha":914,"x_min":69,"x_max":886,"o":"m 350 725 l 350 840 q 456 860 432 844 q 479 913 479 876 q 453 961 479 947 q 371 975 426 975 q 323 970 349 975 q 279 958 297 965 l 279 1029 q 333 1042 300 1038 q 397 1047 367 1047 q 522 1014 479 1047 q 565 921 565 981 q 538 833 565 865 q 442 792 511 801 l 442 725 l 350 725 m 399 -14 q 148 74 226 -14 q 69 329 69 163 q 149 583 69 494 q 399 672 228 672 q 551 648 488 672 q 654 576 614 624 q 761 615 735 578 q 788 744 788 651 l 886 744 q 839 561 886 618 q 701 493 792 504 q 728 329 728 426 q 650 74 728 163 q 399 -14 572 -14 m 399 83 q 565 142 517 83 q 614 329 614 201 q 565 516 614 457 q 399 575 515 575 q 233 516 282 575 q 183 329 183 457 q 232 142 183 201 q 399 83 281 83 z "},"ỡ":{"ha":914,"x_min":69,"x_max":886,"o":"m 511 751 q 440 765 475 751 q 374 791 406 778 q 311 804 342 804 q 249 794 278 804 q 196 756 219 783 l 196 843 q 246 874 213 863 q 311 885 279 885 q 383 872 350 885 q 447 845 415 858 q 511 832 478 832 q 618 882 582 832 l 618 793 q 576 763 604 775 q 511 751 547 751 m 399 -14 q 148 74 226 -14 q 69 329 69 163 q 149 583 69 494 q 399 672 228 672 q 551 648 488 672 q 654 576 614 624 q 761 615 735 578 q 788 744 788 651 l 886 744 q 839 561 886 618 q 701 493 792 504 q 728 329 728 426 q 650 74 728 163 q 399 -14 572 -14 m 399 83 q 565 142 517 83 q 614 329 614 201 q 565 516 614 457 q 399 575 515 575 q 233 516 282 575 q 183 329 183 457 q 232 142 183 201 q 399 83 281 83 z "},"ő":{"ha":797,"x_min":69,"x_max":728,"o":"m 211 725 l 310 936 l 418 936 l 306 725 l 211 725 m 497 725 l 596 936 l 704 936 l 592 725 l 497 725 m 399 -14 q 148 74 226 -14 q 69 329 69 163 q 149 583 69 494 q 399 672 228 672 q 649 583 569 672 q 728 329 728 494 q 650 74 728 163 q 399 -14 572 -14 m 399 83 q 565 142 517 83 q 614 329 614 201 q 565 516 614 457 q 399 575 515 575 q 233 516 282 575 q 183 329 183 457 q 232 142 183 201 q 399 83 281 83 z "},"ō":{"ha":797,"x_min":69,"x_max":728,"o":"m 199 769 l 199 851 l 599 851 l 599 769 l 199 769 m 399 -14 q 148 74 226 -14 q 69 329 69 163 q 149 583 69 494 q 399 672 228 672 q 649 583 569 672 q 728 329 728 494 q 650 74 728 163 q 399 -14 572 -14 m 399 83 q 565 142 517 83 q 614 329 614 201 q 565 516 614 457 q 399 575 515 575 q 233 516 282 575 q 183 329 183 457 q 232 142 183 201 q 399 83 281 83 z "},"ø":{"ha":797,"x_min":69,"x_max":728,"o":"m 203 -75 l 235 14 q 110 129 150 50 q 69 329 69 208 q 149 583 69 494 q 399 672 228 672 q 437 671 418 672 q 474 667 456 669 l 499 733 l 599 733 l 565 642 q 688 526 649 606 q 728 329 728 447 q 650 74 728 163 q 399 -14 572 -14 q 326 -10 360 -14 l 303 -75 l 203 -75 m 271 110 l 440 572 q 420 574 431 574 q 399 575 410 575 q 233 516 282 575 q 183 329 183 457 q 203 191 183 244 q 271 110 224 138 m 399 83 q 565 142 517 83 q 614 329 614 201 q 594 465 614 411 q 529 544 574 518 l 361 85 q 380 83 371 83 q 399 83 389 83 z "},"ǿ":{"ha":797,"x_min":69,"x_max":728,"o":"m 333 725 l 432 958 l 535 958 l 425 725 l 333 725 m 203 -75 l 235 14 q 110 129 150 50 q 69 329 69 208 q 149 583 69 494 q 399 672 228 672 q 437 671 418 672 q 474 667 456 669 l 499 733 l 599 733 l 565 642 q 688 526 649 606 q 728 329 728 447 q 650 74 728 163 q 399 -14 572 -14 q 326 -10 360 -14 l 303 -75 l 203 -75 m 271 110 l 440 572 q 420 574 431 574 q 399 575 410 575 q 233 516 282 575 q 183 329 183 457 q 203 191 183 244 q 271 110 224 138 m 399 83 q 565 142 517 83 q 614 329 614 201 q 594 465 614 411 q 529 544 574 518 l 361 85 q 380 83 371 83 q 399 83 389 83 z "},"õ":{"ha":797,"x_min":69,"x_max":728,"o":"m 503 760 q 432 773 467 760 q 365 799 397 786 q 303 813 333 813 q 240 802 269 813 q 188 764 211 792 l 188 851 q 238 882 204 871 q 303 893 271 893 q 374 880 342 893 q 438 853 407 867 q 503 840 469 840 q 610 890 574 840 l 610 801 q 567 772 596 783 q 503 760 539 760 m 399 -14 q 148 74 226 -14 q 69 329 69 163 q 149 583 69 494 q 399 672 228 672 q 649 583 569 672 q 728 329 728 494 q 650 74 728 163 q 399 -14 572 -14 m 399 83 q 565 142 517 83 q 614 329 614 201 q 565 516 614 457 q 399 575 515 575 q 233 516 282 575 q 183 329 183 457 q 232 142 183 201 q 399 83 281 83 z "},"œ":{"ha":1285,"x_min":69,"x_max":1215,"o":"m 399 -14 q 148 74 226 -14 q 69 329 69 163 q 149 583 69 494 q 399 672 228 672 q 565 642 497 672 q 671 556 632 613 q 772 642 708 613 q 929 672 836 672 q 1090 637 1026 672 q 1184 540 1153 601 q 1215 400 1215 478 l 1215 276 l 728 276 q 760 158 733 201 q 842 97 788 115 q 988 78 897 78 q 1174 113 1089 78 l 1174 24 q 1077 -4 1131 6 q 965 -14 1024 -14 q 674 104 757 -14 q 567 16 635 46 q 399 -14 499 -14 m 728 358 l 1114 358 l 1114 413 q 1072 537 1114 493 q 932 581 1029 581 q 771 525 814 581 q 728 358 728 469 m 399 83 q 565 142 517 83 q 614 329 614 201 q 565 516 614 457 q 399 575 515 575 q 233 516 282 575 q 183 329 183 457 q 232 142 183 201 q 399 83 281 83 z "},"p":{"ha":799,"x_min":97,"x_max":729,"o":"m 97 -300 l 97 658 l 194 658 l 203 589 q 303 652 249 632 q 432 672 358 672 q 650 595 571 672 q 729 339 729 518 q 650 74 729 161 q 431 -14 571 -14 q 211 49 301 -14 l 211 -300 l 97 -300 m 400 78 q 563 141 511 78 q 615 339 615 204 q 567 524 615 468 q 403 581 518 581 q 297 561 346 581 q 211 501 249 542 l 211 143 q 293 95 246 113 q 400 78 340 78 z "},"þ":{"ha":799,"x_min":97,"x_max":729,"o":"m 97 -300 l 97 972 l 213 972 l 213 610 q 432 672 303 672 q 650 590 571 672 q 729 328 729 507 q 650 68 729 150 q 431 -14 571 -14 q 211 49 301 -14 l 211 -300 l 97 -300 m 400 78 q 563 135 511 78 q 615 328 615 193 q 567 519 615 457 q 403 581 518 581 q 297 561 346 581 q 211 501 249 542 l 211 143 q 293 95 246 113 q 400 78 340 78 z "},"q":{"ha":779,"x_min":69,"x_max":835,"o":"m 747 -336 q 628 -294 669 -336 q 588 -164 588 -253 l 588 49 q 368 -14 497 -14 q 149 60 229 -14 q 69 311 69 133 q 149 581 69 490 q 367 672 228 672 q 495 652 440 672 q 596 589 550 632 l 604 658 l 701 658 l 701 -158 q 717 -223 701 -206 q 775 -240 732 -240 q 806 -237 788 -240 q 835 -232 824 -235 l 835 -322 q 747 -336 797 -336 m 399 78 q 506 95 458 78 q 588 143 553 113 l 588 501 q 501 561 550 542 q 396 581 453 581 q 232 510 281 581 q 183 311 183 440 q 236 127 183 176 q 399 78 289 78 z "},"r":{"ha":481,"x_min":97,"x_max":453,"o":"m 97 0 l 97 658 l 200 658 l 208 575 q 323 633 257 607 q 453 672 389 660 l 453 583 q 368 560 414 575 q 281 528 322 546 q 211 490 239 510 l 211 0 l 97 0 z "},"ŕ":{"ha":494,"x_min":97,"x_max":453,"o":"m 108 725 l 207 958 l 310 958 l 200 725 l 108 725 m 97 0 l 97 658 l 200 658 l 208 575 q 323 633 257 607 q 453 672 389 660 l 453 583 q 368 560 414 575 q 281 528 322 546 q 211 490 239 510 l 211 0 l 97 0 z "},"ř":{"ha":494,"x_min":53,"x_max":464,"o":"m 213 725 l 53 931 l 151 931 l 258 789 l 365 931 l 464 931 l 304 725 l 213 725 m 97 0 l 97 658 l 200 658 l 208 575 q 323 633 257 607 q 453 672 389 660 l 453 583 q 368 560 414 575 q 281 528 322 546 q 211 490 239 510 l 211 0 l 97 0 z "},"ŗ":{"ha":494,"x_min":60,"x_max":453,"o":"m 97 0 l 97 658 l 200 658 l 208 575 q 323 633 257 607 q 453 672 389 660 l 453 583 q 368 560 414 575 q 281 528 322 546 q 211 490 239 510 l 211 0 l 97 0 m 60 -297 l 99 -51 l 201 -51 l 143 -297 l 60 -297 z "},"ṛ":{"ha":494,"x_min":97,"x_max":453,"o":"m 97 0 l 97 658 l 200 658 l 208 575 q 323 633 257 607 q 453 672 389 660 l 453 583 q 368 560 414 575 q 281 528 322 546 q 211 490 239 510 l 211 0 l 97 0 m 99 -228 l 99 -121 l 210 -121 l 210 -228 l 99 -228 z "},"ṝ":{"ha":494,"x_min":1,"x_max":453,"o":"m 1 765 l 1 847 l 401 847 l 401 765 l 1 765 m 97 0 l 97 658 l 200 658 l 208 575 q 323 633 257 607 q 453 672 389 660 l 453 583 q 368 560 414 575 q 281 528 322 546 q 211 490 239 510 l 211 0 l 97 0 m 99 -228 l 99 -121 l 210 -121 l 210 -228 l 99 -228 z "},"ṟ":{"ha":494,"x_min":-28,"x_max":453,"o":"m 97 0 l 97 658 l 200 658 l 208 575 q 323 633 257 607 q 453 672 389 660 l 453 583 q 368 560 414 575 q 281 528 322 546 q 211 490 239 510 l 211 0 l 97 0 m -28 -181 l -28 -99 l 372 -99 l 372 -181 l -28 -181 z "},"s":{"ha":635,"x_min":69,"x_max":565,"o":"m 304 -14 q 183 -6 240 -14 q 86 17 125 3 l 86 117 q 185 92 133 100 q 289 83 238 83 q 414 102 376 83 q 451 172 451 121 q 431 229 451 210 q 370 264 411 249 q 265 300 329 279 q 164 340 208 319 q 94 397 119 361 q 69 492 69 432 q 131 626 69 579 q 328 672 192 672 q 429 665 381 672 q 514 646 478 657 l 514 546 q 346 575 426 575 q 222 558 260 575 q 183 493 183 540 q 201 442 183 461 q 255 410 218 424 q 350 378 292 397 q 474 329 426 354 q 543 268 521 304 q 565 174 565 232 q 497 31 565 76 q 304 -14 429 -14 z "},"ś":{"ha":635,"x_min":69,"x_max":565,"o":"m 253 725 l 351 958 l 454 958 l 344 725 l 253 725 m 304 -14 q 183 -6 240 -14 q 86 17 125 3 l 86 117 q 185 92 133 100 q 289 83 238 83 q 414 102 376 83 q 451 172 451 121 q 431 229 451 210 q 370 264 411 249 q 265 300 329 279 q 164 340 208 319 q 94 397 119 361 q 69 492 69 432 q 131 626 69 579 q 328 672 192 672 q 429 665 381 672 q 514 646 478 657 l 514 546 q 346 575 426 575 q 222 558 260 575 q 183 493 183 540 q 201 442 183 461 q 255 410 218 424 q 350 378 292 397 q 474 329 426 354 q 543 268 521 304 q 565 174 565 232 q 497 31 565 76 q 304 -14 429 -14 z "},"š":{"ha":635,"x_min":69,"x_max":565,"o":"m 283 725 l 124 931 l 222 931 l 329 789 l 436 931 l 535 931 l 375 725 l 283 725 m 304 -14 q 183 -6 240 -14 q 86 17 125 3 l 86 117 q 185 92 133 100 q 289 83 238 83 q 414 102 376 83 q 451 172 451 121 q 431 229 451 210 q 370 264 411 249 q 265 300 329 279 q 164 340 208 319 q 94 397 119 361 q 69 492 69 432 q 131 626 69 579 q 328 672 192 672 q 429 665 381 672 q 514 646 478 657 l 514 546 q 346 575 426 575 q 222 558 260 575 q 183 493 183 540 q 201 442 183 461 q 255 410 218 424 q 350 378 292 397 q 474 329 426 354 q 543 268 521 304 q 565 174 565 232 q 497 31 565 76 q 304 -14 429 -14 z "},"ş":{"ha":635,"x_min":69,"x_max":565,"o":"m 283 -333 q 231 -330 261 -333 q 186 -322 201 -326 l 186 -253 q 274 -264 226 -264 q 369 -249 339 -264 q 399 -190 399 -233 q 369 -138 399 -150 q 281 -126 340 -126 l 229 -126 l 265 -12 q 165 -3 213 -11 q 86 17 118 6 l 86 117 q 185 92 133 100 q 289 83 238 83 q 414 102 376 83 q 451 172 451 121 q 431 229 451 210 q 370 264 411 249 q 265 300 329 279 q 164 340 208 319 q 94 397 119 361 q 69 492 69 432 q 131 626 69 579 q 328 672 192 672 q 429 665 381 672 q 514 646 478 657 l 514 546 q 346 575 426 575 q 222 558 260 575 q 183 493 183 540 q 201 442 183 461 q 255 410 218 424 q 350 378 292 397 q 474 329 426 354 q 543 268 521 304 q 565 174 565 232 q 508 40 565 85 q 346 -12 451 -6 l 328 -67 q 443 -99 404 -67 q 482 -192 482 -132 q 434 -297 482 -260 q 283 -333 386 -333 z "},"ŝ":{"ha":635,"x_min":69,"x_max":565,"o":"m 121 725 l 281 931 l 372 931 l 532 725 l 433 725 l 326 867 l 219 725 l 121 725 m 304 -14 q 183 -6 240 -14 q 86 17 125 3 l 86 117 q 185 92 133 100 q 289 83 238 83 q 414 102 376 83 q 451 172 451 121 q 431 229 451 210 q 370 264 411 249 q 265 300 329 279 q 164 340 208 319 q 94 397 119 361 q 69 492 69 432 q 131 626 69 579 q 328 672 192 672 q 429 665 381 672 q 514 646 478 657 l 514 546 q 346 575 426 575 q 222 558 260 575 q 183 493 183 540 q 201 442 183 461 q 255 410 218 424 q 350 378 292 397 q 474 329 426 354 q 543 268 521 304 q 565 174 565 232 q 497 31 565 76 q 304 -14 429 -14 z "},"ș":{"ha":635,"x_min":69,"x_max":565,"o":"m 304 -14 q 183 -6 240 -14 q 86 17 125 3 l 86 117 q 185 92 133 100 q 289 83 238 83 q 414 102 376 83 q 451 172 451 121 q 431 229 451 210 q 370 264 411 249 q 265 300 329 279 q 164 340 208 319 q 94 397 119 361 q 69 492 69 432 q 131 626 69 579 q 328 672 192 672 q 429 665 381 672 q 514 646 478 657 l 514 546 q 346 575 426 575 q 222 558 260 575 q 183 493 183 540 q 201 442 183 461 q 255 410 218 424 q 350 378 292 397 q 474 329 426 354 q 543 268 521 304 q 565 174 565 232 q 497 31 565 76 q 304 -14 429 -14 m 224 -303 l 261 -72 l 365 -72 l 311 -303 l 224 -303 z "},"ṡ":{"ha":635,"x_min":69,"x_max":565,"o":"m 278 756 l 278 863 l 389 863 l 389 756 l 278 756 m 304 -14 q 183 -6 240 -14 q 86 17 125 3 l 86 117 q 185 92 133 100 q 289 83 238 83 q 414 102 376 83 q 451 172 451 121 q 431 229 451 210 q 370 264 411 249 q 265 300 329 279 q 164 340 208 319 q 94 397 119 361 q 69 492 69 432 q 131 626 69 579 q 328 672 192 672 q 429 665 381 672 q 514 646 478 657 l 514 546 q 346 575 426 575 q 222 558 260 575 q 183 493 183 540 q 201 442 183 461 q 255 410 218 424 q 350 378 292 397 q 474 329 426 354 q 543 268 521 304 q 565 174 565 232 q 497 31 565 76 q 304 -14 429 -14 z "},"ṣ":{"ha":635,"x_min":69,"x_max":565,"o":"m 304 -14 q 183 -6 240 -14 q 86 17 125 3 l 86 117 q 185 92 133 100 q 289 83 238 83 q 414 102 376 83 q 451 172 451 121 q 431 229 451 210 q 370 264 411 249 q 265 300 329 279 q 164 340 208 319 q 94 397 119 361 q 69 492 69 432 q 131 626 69 579 q 328 672 192 672 q 429 665 381 672 q 514 646 478 657 l 514 546 q 346 575 426 575 q 222 558 260 575 q 183 493 183 540 q 201 442 183 461 q 255 410 218 424 q 350 378 292 397 q 474 329 426 354 q 543 268 521 304 q 565 174 565 232 q 497 31 565 76 q 304 -14 429 -14 m 268 -228 l 268 -121 l 379 -121 l 379 -228 l 268 -228 z "},"ß":{"ha":871,"x_min":90,"x_max":801,"o":"m 522 -14 q 322 17 404 -14 l 322 114 q 407 90 361 97 q 504 83 453 83 q 639 131 590 83 q 688 267 688 178 q 644 399 688 351 q 494 446 601 446 l 381 446 l 381 532 l 497 532 q 622 581 585 532 q 658 701 658 629 q 638 793 658 754 q 569 853 618 832 q 431 875 519 875 q 204 646 204 875 l 204 0 l 90 0 l 90 650 q 132 819 90 747 q 250 932 174 892 q 431 972 326 972 q 619 935 544 972 q 729 838 693 899 q 765 701 765 776 q 733 569 765 625 q 649 490 701 514 q 760 410 718 469 q 801 261 801 351 q 730 58 801 131 q 522 -14 658 -14 z "},"t":{"ha":490,"x_min":42,"x_max":456,"o":"m 338 -14 q 191 38 240 -14 q 142 183 142 90 l 142 568 l 42 568 l 42 658 l 142 658 l 142 821 l 256 856 l 256 658 l 438 658 l 431 568 l 256 568 l 256 189 q 283 103 256 129 q 376 78 310 78 q 456 92 413 78 l 456 6 q 338 -14 404 -14 z "},"ŧ":{"ha":514,"x_min":58,"x_max":472,"o":"m 60 306 l 60 386 l 158 386 l 158 568 l 58 568 l 58 658 l 158 658 l 158 821 l 272 856 l 272 658 l 454 658 l 447 568 l 272 568 l 272 386 l 454 386 l 454 306 l 272 306 l 272 189 q 299 103 272 129 q 393 78 326 78 q 472 92 429 78 l 472 6 q 354 -14 421 -14 q 208 38 257 -14 q 158 183 158 90 l 158 306 l 60 306 z "},"ť":{"ha":497,"x_min":42,"x_max":551,"o":"m 410 778 l 449 1024 l 551 1024 l 493 778 l 410 778 m 338 -14 q 191 38 240 -14 q 142 183 142 90 l 142 568 l 42 568 l 42 658 l 142 658 l 142 821 l 256 856 l 256 658 l 438 658 l 431 568 l 256 568 l 256 189 q 283 103 256 129 q 376 78 310 78 q 456 92 413 78 l 456 6 q 338 -14 404 -14 z "},"ţ":{"ha":497,"x_min":42,"x_max":481,"o":"m 282 -333 q 230 -330 260 -333 q 185 -322 200 -326 l 185 -253 q 272 -264 225 -264 q 367 -249 338 -264 q 397 -190 397 -233 q 368 -138 397 -150 q 279 -126 339 -126 l 228 -126 l 267 -6 q 173 61 204 13 q 142 183 142 110 l 142 568 l 42 568 l 42 658 l 142 658 l 142 821 l 256 856 l 256 658 l 438 658 l 431 568 l 256 568 l 256 189 q 283 103 256 129 q 376 78 310 78 q 456 92 413 78 l 456 6 q 344 -14 404 -14 l 326 -67 q 442 -99 403 -67 q 481 -192 481 -132 q 433 -297 481 -260 q 282 -333 385 -333 z "},"ț":{"ha":497,"x_min":42,"x_max":456,"o":"m 338 -14 q 191 38 240 -14 q 142 183 142 90 l 142 568 l 42 568 l 42 658 l 142 658 l 142 821 l 256 856 l 256 658 l 438 658 l 431 568 l 256 568 l 256 189 q 283 103 256 129 q 376 78 310 78 q 456 92 413 78 l 456 6 q 338 -14 404 -14 m 236 -304 l 275 -58 l 378 -58 l 319 -304 l 236 -304 z "},"ẗ":{"ha":497,"x_min":42,"x_max":456,"o":"m 42 894 l 42 999 l 150 999 l 150 894 l 42 894 m 286 894 l 286 999 l 394 999 l 394 894 l 286 894 m 338 -14 q 191 38 240 -14 q 142 183 142 90 l 142 568 l 42 568 l 42 658 l 142 658 l 142 821 l 256 856 l 256 658 l 438 658 l 431 568 l 256 568 l 256 189 q 283 103 256 129 q 376 78 310 78 q 456 92 413 78 l 456 6 q 338 -14 404 -14 z "},"ṭ":{"ha":497,"x_min":42,"x_max":456,"o":"m 338 -14 q 191 38 240 -14 q 142 183 142 90 l 142 568 l 42 568 l 42 658 l 142 658 l 142 821 l 256 856 l 256 658 l 438 658 l 431 568 l 256 568 l 256 189 q 283 103 256 129 q 376 78 310 78 q 456 92 413 78 l 456 6 q 338 -14 404 -14 m 254 -221 l 254 -114 l 365 -114 l 365 -221 l 254 -221 z "},"ṯ":{"ha":497,"x_min":42,"x_max":474,"o":"m 338 -14 q 191 38 240 -14 q 142 183 142 90 l 142 568 l 42 568 l 42 658 l 142 658 l 142 821 l 256 856 l 256 658 l 438 658 l 431 568 l 256 568 l 256 189 q 283 103 256 129 q 376 78 310 78 q 456 92 413 78 l 456 6 q 338 -14 404 -14 m 74 -174 l 74 -92 l 474 -92 l 474 -174 l 74 -174 z "},"u":{"ha":792,"x_min":90,"x_max":694,"o":"m 329 -14 q 151 51 211 -14 q 90 242 90 117 l 90 658 l 204 658 l 204 238 q 245 117 204 156 q 372 78 286 78 q 488 100 433 78 q 581 161 542 122 l 581 658 l 694 658 l 694 0 l 592 0 l 585 75 q 472 11 538 36 q 329 -14 407 -14 z "},"ú":{"ha":792,"x_min":90,"x_max":694,"o":"m 326 725 l 425 958 l 528 958 l 418 725 l 326 725 m 329 -14 q 151 51 211 -14 q 90 242 90 117 l 90 658 l 204 658 l 204 238 q 245 117 204 156 q 372 78 286 78 q 488 100 433 78 q 581 161 542 122 l 581 658 l 694 658 l 694 0 l 592 0 l 585 75 q 472 11 538 36 q 329 -14 407 -14 z "},"ŭ":{"ha":792,"x_min":90,"x_max":694,"o":"m 388 725 q 257 774 301 725 q 213 900 213 822 l 293 900 q 319 822 293 847 q 388 797 344 797 q 459 822 433 797 q 485 900 485 847 l 565 900 q 520 774 565 822 q 388 725 475 725 m 329 -14 q 151 51 211 -14 q 90 242 90 117 l 90 658 l 204 658 l 204 238 q 245 117 204 156 q 372 78 286 78 q 488 100 433 78 q 581 161 542 122 l 581 658 l 694 658 l 694 0 l 592 0 l 585 75 q 472 11 538 36 q 329 -14 407 -14 z "},"ǔ":{"ha":792,"x_min":90,"x_max":694,"o":"m 346 725 l 186 931 l 285 931 l 392 789 l 499 931 l 597 931 l 438 725 l 346 725 m 329 -14 q 151 51 211 -14 q 90 242 90 117 l 90 658 l 204 658 l 204 238 q 245 117 204 156 q 372 78 286 78 q 488 100 433 78 q 581 161 542 122 l 581 658 l 694 658 l 694 0 l 592 0 l 585 75 q 472 11 538 36 q 329 -14 407 -14 z "},"û":{"ha":792,"x_min":90,"x_max":694,"o":"m 185 725 l 344 931 l 436 931 l 596 725 l 497 725 l 390 867 l 283 725 l 185 725 m 329 -14 q 151 51 211 -14 q 90 242 90 117 l 90 658 l 204 658 l 204 238 q 245 117 204 156 q 372 78 286 78 q 488 100 433 78 q 581 161 542 122 l 581 658 l 694 658 l 694 0 l 592 0 l 585 75 q 472 11 538 36 q 329 -14 407 -14 z "},"ü":{"ha":792,"x_min":90,"x_max":694,"o":"m 211 753 l 211 857 l 319 857 l 319 753 l 211 753 m 456 753 l 456 857 l 564 857 l 564 753 l 456 753 m 329 -14 q 151 51 211 -14 q 90 242 90 117 l 90 658 l 204 658 l 204 238 q 245 117 204 156 q 372 78 286 78 q 488 100 433 78 q 581 161 542 122 l 581 658 l 694 658 l 694 0 l 592 0 l 585 75 q 472 11 538 36 q 329 -14 407 -14 z "},"ǘ":{"ha":792,"x_min":90,"x_max":694,"o":"m 349 840 l 435 1014 l 525 1014 l 431 840 l 349 840 m 203 725 l 203 829 l 311 829 l 311 725 l 203 725 m 475 725 l 475 829 l 583 829 l 583 725 l 475 725 m 329 -14 q 151 51 211 -14 q 90 242 90 117 l 90 658 l 204 658 l 204 238 q 245 117 204 156 q 372 78 286 78 q 488 100 433 78 q 581 161 542 122 l 581 658 l 694 658 l 694 0 l 592 0 l 585 75 q 472 11 538 36 q 329 -14 407 -14 z "},"ǚ":{"ha":792,"x_min":90,"x_max":694,"o":"m 349 840 l 194 1004 l 292 1004 l 394 889 l 499 1004 l 594 1004 l 440 840 l 349 840 m 199 725 l 199 829 l 307 829 l 307 725 l 199 725 m 471 725 l 471 829 l 579 829 l 579 725 l 471 725 m 329 -14 q 151 51 211 -14 q 90 242 90 117 l 90 658 l 204 658 l 204 238 q 245 117 204 156 q 372 78 286 78 q 488 100 433 78 q 581 161 542 122 l 581 658 l 694 658 l 694 0 l 592 0 l 585 75 q 472 11 538 36 q 329 -14 407 -14 z "},"ǜ":{"ha":792,"x_min":90,"x_max":694,"o":"m 356 840 l 261 1014 l 351 1014 l 438 840 l 356 840 m 203 725 l 203 829 l 311 829 l 311 725 l 203 725 m 475 725 l 475 829 l 583 829 l 583 725 l 475 725 m 329 -14 q 151 51 211 -14 q 90 242 90 117 l 90 658 l 204 658 l 204 238 q 245 117 204 156 q 372 78 286 78 q 488 100 433 78 q 581 161 542 122 l 581 658 l 694 658 l 694 0 l 592 0 l 585 75 q 472 11 538 36 q 329 -14 407 -14 z "},"ǖ":{"ha":792,"x_min":90,"x_max":694,"o":"m 199 943 l 199 1025 l 599 1025 l 599 943 l 199 943 m 221 750 l 221 854 l 329 854 l 329 750 l 221 750 m 465 750 l 465 854 l 574 854 l 574 750 l 465 750 m 329 -14 q 151 51 211 -14 q 90 242 90 117 l 90 658 l 204 658 l 204 238 q 245 117 204 156 q 372 78 286 78 q 488 100 433 78 q 581 161 542 122 l 581 658 l 694 658 l 694 0 l 592 0 l 585 75 q 472 11 538 36 q 329 -14 407 -14 z "},"ụ":{"ha":792,"x_min":90,"x_max":694,"o":"m 329 -14 q 151 51 211 -14 q 90 242 90 117 l 90 658 l 204 658 l 204 238 q 245 117 204 156 q 372 78 286 78 q 488 100 433 78 q 581 161 542 122 l 581 658 l 694 658 l 694 0 l 592 0 l 585 75 q 472 11 538 36 q 329 -14 407 -14 m 326 -228 l 326 -121 l 438 -121 l 438 -228 l 326 -228 z "},"ù":{"ha":792,"x_min":90,"x_max":694,"o":"m 358 725 l 249 958 l 351 958 l 450 725 l 358 725 m 329 -14 q 151 51 211 -14 q 90 242 90 117 l 90 658 l 204 658 l 204 238 q 245 117 204 156 q 372 78 286 78 q 488 100 433 78 q 581 161 542 122 l 581 658 l 694 658 l 694 0 l 592 0 l 585 75 q 472 11 538 36 q 329 -14 407 -14 z "},"ủ":{"ha":792,"x_min":90,"x_max":694,"o":"m 343 725 l 343 840 q 449 860 425 844 q 472 913 472 876 q 446 961 472 947 q 364 975 419 975 q 316 970 342 975 q 272 958 290 965 l 272 1029 q 326 1042 293 1038 q 390 1047 360 1047 q 515 1014 472 1047 q 558 921 558 981 q 531 833 558 865 q 435 792 504 801 l 435 725 l 343 725 m 329 -14 q 151 51 211 -14 q 90 242 90 117 l 90 658 l 204 658 l 204 238 q 245 117 204 156 q 372 78 286 78 q 488 100 433 78 q 581 161 542 122 l 581 658 l 694 658 l 694 0 l 592 0 l 585 75 q 472 11 538 36 q 329 -14 407 -14 z "},"ư":{"ha":949,"x_min":90,"x_max":907,"o":"m 329 -14 q 151 51 211 -14 q 90 242 90 117 l 90 658 l 204 658 l 204 238 q 245 117 204 156 q 372 78 286 78 q 488 100 433 78 q 581 161 542 122 l 581 658 l 694 658 l 694 576 q 785 620 763 582 q 808 744 808 658 l 907 744 q 852 556 907 618 q 694 493 797 494 l 694 0 l 592 0 l 585 75 q 472 11 538 36 q 329 -14 407 -14 z "},"ứ":{"ha":949,"x_min":90,"x_max":907,"o":"m 356 725 l 454 958 l 557 958 l 447 725 l 356 725 m 329 -14 q 151 51 211 -14 q 90 242 90 117 l 90 658 l 204 658 l 204 238 q 245 117 204 156 q 372 78 286 78 q 488 100 433 78 q 581 161 542 122 l 581 658 l 694 658 l 694 576 q 785 620 763 582 q 808 744 808 658 l 907 744 q 852 556 907 618 q 694 493 797 494 l 694 0 l 592 0 l 585 75 q 472 11 538 36 q 329 -14 407 -14 z "},"ự":{"ha":949,"x_min":90,"x_max":907,"o":"m 329 -14 q 151 51 211 -14 q 90 242 90 117 l 90 658 l 204 658 l 204 238 q 245 117 204 156 q 372 78 286 78 q 488 100 433 78 q 581 161 542 122 l 581 658 l 694 658 l 694 576 q 785 620 763 582 q 808 744 808 658 l 907 744 q 852 556 907 618 q 694 493 797 494 l 694 0 l 592 0 l 585 75 q 472 11 538 36 q 329 -14 407 -14 m 335 -228 l 335 -121 l 446 -121 l 446 -228 l 335 -228 z "},"ừ":{"ha":949,"x_min":90,"x_max":907,"o":"m 365 725 l 256 958 l 358 958 l 457 725 l 365 725 m 329 -14 q 151 51 211 -14 q 90 242 90 117 l 90 658 l 204 658 l 204 238 q 245 117 204 156 q 372 78 286 78 q 488 100 433 78 q 581 161 542 122 l 581 658 l 694 658 l 694 576 q 785 620 763 582 q 808 744 808 658 l 907 744 q 852 556 907 618 q 694 493 797 494 l 694 0 l 592 0 l 585 75 q 472 11 538 36 q 329 -14 407 -14 z "},"ử":{"ha":949,"x_min":90,"x_max":907,"o":"m 353 725 l 353 840 q 458 860 435 844 q 482 913 482 876 q 456 961 482 947 q 374 975 429 975 q 326 970 351 975 q 282 958 300 965 l 282 1029 q 336 1042 303 1038 q 400 1047 369 1047 q 525 1014 482 1047 q 568 921 568 981 q 541 833 568 865 q 444 792 514 801 l 444 725 l 353 725 m 329 -14 q 151 51 211 -14 q 90 242 90 117 l 90 658 l 204 658 l 204 238 q 245 117 204 156 q 372 78 286 78 q 488 100 433 78 q 581 161 542 122 l 581 658 l 694 658 l 694 576 q 785 620 763 582 q 808 744 808 658 l 907 744 q 852 556 907 618 q 694 493 797 494 l 694 0 l 592 0 l 585 75 q 472 11 538 36 q 329 -14 407 -14 z "},"ữ":{"ha":949,"x_min":90,"x_max":907,"o":"m 510 751 q 439 765 474 751 q 372 791 404 778 q 310 804 340 804 q 247 794 276 804 q 194 756 218 783 l 194 843 q 244 874 211 863 q 310 885 278 885 q 381 872 349 885 q 445 845 414 858 q 510 832 476 832 q 617 882 581 832 l 617 793 q 574 763 603 775 q 510 751 546 751 m 329 -14 q 151 51 211 -14 q 90 242 90 117 l 90 658 l 204 658 l 204 238 q 245 117 204 156 q 372 78 286 78 q 488 100 433 78 q 581 161 542 122 l 581 658 l 694 658 l 694 576 q 785 620 763 582 q 808 744 808 658 l 907 744 q 852 556 907 618 q 694 493 797 494 l 694 0 l 592 0 l 585 75 q 472 11 538 36 q 329 -14 407 -14 z "},"ű":{"ha":792,"x_min":90,"x_max":694,"o":"m 157 725 l 256 936 l 364 936 l 251 725 l 157 725 m 443 725 l 542 936 l 650 936 l 538 725 l 443 725 m 329 -14 q 151 51 211 -14 q 90 242 90 117 l 90 658 l 204 658 l 204 238 q 245 117 204 156 q 372 78 286 78 q 488 100 433 78 q 581 161 542 122 l 581 658 l 694 658 l 694 0 l 592 0 l 585 75 q 472 11 538 36 q 329 -14 407 -14 z "},"ū":{"ha":792,"x_min":90,"x_max":694,"o":"m 185 769 l 185 851 l 585 851 l 585 769 l 185 769 m 329 -14 q 151 51 211 -14 q 90 242 90 117 l 90 658 l 204 658 l 204 238 q 245 117 204 156 q 372 78 286 78 q 488 100 433 78 q 581 161 542 122 l 581 658 l 694 658 l 694 0 l 592 0 l 585 75 q 472 11 538 36 q 329 -14 407 -14 z "},"ų":{"ha":792,"x_min":90,"x_max":719,"o":"m 329 -14 q 151 51 211 -14 q 90 242 90 117 l 90 658 l 204 658 l 204 238 q 245 117 204 156 q 372 78 286 78 q 488 100 433 78 q 581 161 542 122 l 581 658 l 694 658 l 694 0 l 681 0 q 581 -167 581 -75 q 598 -214 581 -201 q 650 -226 615 -226 q 688 -222 668 -226 q 719 -211 707 -218 l 719 -289 q 676 -301 703 -297 q 625 -306 650 -306 q 528 -277 569 -306 q 488 -183 488 -249 q 517 -80 488 -129 q 592 0 546 -31 l 585 75 q 472 11 538 36 q 329 -14 407 -14 z "},"ů":{"ha":792,"x_min":90,"x_max":694,"o":"m 378 725 q 269 768 311 725 q 226 874 226 811 q 269 980 226 936 q 378 1024 311 1024 q 490 980 447 1024 q 532 874 532 936 q 490 768 532 811 q 378 725 447 725 m 378 789 q 440 814 417 789 q 464 874 464 839 q 440 934 464 910 q 378 958 417 958 q 317 934 342 958 q 293 874 293 910 q 317 814 293 839 q 378 789 342 789 m 329 -14 q 151 51 211 -14 q 90 242 90 117 l 90 658 l 204 658 l 204 238 q 245 117 204 156 q 372 78 286 78 q 488 100 433 78 q 581 161 542 122 l 581 658 l 694 658 l 694 0 l 592 0 l 585 75 q 472 11 538 36 q 329 -14 407 -14 z "},"ũ":{"ha":792,"x_min":90,"x_max":694,"o":"m 492 753 q 421 766 456 753 q 354 792 386 779 q 292 806 322 806 q 229 795 258 806 q 176 757 200 785 l 176 844 q 226 875 193 864 q 292 886 260 886 q 363 873 331 886 q 427 847 396 860 q 492 833 458 833 q 599 883 563 833 l 599 794 q 556 765 585 776 q 492 753 528 753 m 329 -14 q 151 51 211 -14 q 90 242 90 117 l 90 658 l 204 658 l 204 238 q 245 117 204 156 q 372 78 286 78 q 488 100 433 78 q 581 161 542 122 l 581 658 l 694 658 l 694 0 l 592 0 l 585 75 q 472 11 538 36 q 329 -14 407 -14 z "},"v":{"ha":783,"x_min":69,"x_max":714,"o":"m 328 0 l 69 658 l 188 658 l 392 106 l 596 658 l 714 658 l 456 0 l 328 0 z "},"w":{"ha":1022,"x_min":69,"x_max":953,"o":"m 242 0 l 69 658 l 183 658 l 313 129 l 460 582 l 460 658 l 547 658 l 710 129 l 839 658 l 953 658 l 781 0 l 667 0 l 513 478 l 356 0 l 242 0 z "},"ẃ":{"ha":1022,"x_min":69,"x_max":953,"o":"m 457 725 l 556 958 l 658 958 l 549 725 l 457 725 m 242 0 l 69 658 l 183 658 l 313 129 l 460 582 l 460 658 l 547 658 l 710 129 l 839 658 l 953 658 l 781 0 l 667 0 l 513 478 l 356 0 l 242 0 z "},"ŵ":{"ha":1022,"x_min":69,"x_max":953,"o":"m 307 725 l 467 931 l 558 931 l 718 725 l 619 725 l 513 867 l 406 725 l 307 725 m 242 0 l 69 658 l 183 658 l 313 129 l 460 582 l 460 658 l 547 658 l 710 129 l 839 658 l 953 658 l 781 0 l 667 0 l 513 478 l 356 0 l 242 0 z "},"ẅ":{"ha":1022,"x_min":69,"x_max":953,"o":"m 336 753 l 336 857 l 444 857 l 444 753 l 336 753 m 581 753 l 581 857 l 689 857 l 689 753 l 581 753 m 242 0 l 69 658 l 183 658 l 313 129 l 460 582 l 460 658 l 547 658 l 710 129 l 839 658 l 953 658 l 781 0 l 667 0 l 513 478 l 356 0 l 242 0 z "},"ẁ":{"ha":1022,"x_min":69,"x_max":953,"o":"m 454 725 l 344 958 l 447 958 l 546 725 l 454 725 m 242 0 l 69 658 l 183 658 l 313 129 l 460 582 l 460 658 l 547 658 l 710 129 l 839 658 l 953 658 l 781 0 l 667 0 l 513 478 l 356 0 l 242 0 z "},"x":{"ha":735,"x_min":56,"x_max":679,"o":"m 56 0 l 306 335 l 64 658 l 188 658 l 367 413 l 547 658 l 669 658 l 431 335 l 679 0 l 556 0 l 367 257 l 179 0 l 56 0 z "},"y":{"ha":811,"x_min":69,"x_max":769,"o":"m 221 -244 q 107 -226 156 -244 l 107 -135 q 151 -146 131 -143 q 192 -149 171 -149 q 266 -132 239 -149 q 314 -81 293 -115 q 360 7 335 -47 l 69 658 l 188 658 l 417 128 l 653 658 l 769 658 l 493 29 q 422 -112 458 -50 q 339 -209 386 -174 q 221 -244 292 -244 z "},"ý":{"ha":811,"x_min":69,"x_max":769,"o":"m 358 725 l 457 958 l 560 958 l 450 725 l 358 725 m 221 -244 q 107 -226 156 -244 l 107 -135 q 151 -146 131 -143 q 192 -149 171 -149 q 266 -132 239 -149 q 314 -81 293 -115 q 360 7 335 -47 l 69 658 l 188 658 l 417 128 l 653 658 l 769 658 l 493 29 q 422 -112 458 -50 q 339 -209 386 -174 q 221 -244 292 -244 z "},"ŷ":{"ha":811,"x_min":69,"x_max":769,"o":"m 214 725 l 374 931 l 465 931 l 625 725 l 526 725 l 419 867 l 313 725 l 214 725 m 221 -244 q 107 -226 156 -244 l 107 -135 q 151 -146 131 -143 q 192 -149 171 -149 q 266 -132 239 -149 q 314 -81 293 -115 q 360 7 335 -47 l 69 658 l 188 658 l 417 128 l 653 658 l 769 658 l 493 29 q 422 -112 458 -50 q 339 -209 386 -174 q 221 -244 292 -244 z "},"ÿ":{"ha":811,"x_min":69,"x_max":769,"o":"m 247 767 l 247 871 l 356 871 l 356 767 l 247 767 m 492 767 l 492 871 l 600 871 l 600 767 l 492 767 m 221 -244 q 107 -226 156 -244 l 107 -135 q 151 -146 131 -143 q 192 -149 171 -149 q 266 -132 239 -149 q 314 -81 293 -115 q 360 7 335 -47 l 69 658 l 188 658 l 417 128 l 653 658 l 769 658 l 493 29 q 422 -112 458 -50 q 339 -209 386 -174 q 221 -244 292 -244 z "},"ẏ":{"ha":811,"x_min":69,"x_max":769,"o":"m 361 756 l 361 863 l 472 863 l 472 756 l 361 756 m 221 -244 q 107 -226 156 -244 l 107 -135 q 151 -146 131 -143 q 192 -149 171 -149 q 266 -132 239 -149 q 314 -81 293 -115 q 360 7 335 -47 l 69 658 l 188 658 l 417 128 l 653 658 l 769 658 l 493 29 q 422 -112 458 -50 q 339 -209 386 -174 q 221 -244 292 -244 z "},"ỵ":{"ha":811,"x_min":69,"x_max":769,"o":"m 221 -244 q 107 -226 156 -244 l 107 -135 q 151 -146 131 -143 q 192 -149 171 -149 q 266 -132 239 -149 q 314 -81 293 -115 q 360 7 335 -47 l 69 658 l 188 658 l 417 128 l 653 658 l 769 658 l 493 29 q 422 -112 458 -50 q 339 -209 386 -174 q 221 -244 292 -244 m 540 -207 l 540 -100 l 651 -100 l 651 -207 l 540 -207 z "},"ỳ":{"ha":811,"x_min":69,"x_max":769,"o":"m 381 725 l 271 958 l 374 958 l 472 725 l 381 725 m 221 -244 q 107 -226 156 -244 l 107 -135 q 151 -146 131 -143 q 192 -149 171 -149 q 266 -132 239 -149 q 314 -81 293 -115 q 360 7 335 -47 l 69 658 l 188 658 l 417 128 l 653 658 l 769 658 l 493 29 q 422 -112 458 -50 q 339 -209 386 -174 q 221 -244 292 -244 z "},"ỷ":{"ha":811,"x_min":69,"x_max":769,"o":"m 374 725 l 374 840 q 479 860 456 844 q 503 913 503 876 q 476 961 503 947 q 394 975 450 975 q 347 970 372 975 q 303 958 321 965 l 303 1029 q 357 1042 324 1038 q 421 1047 390 1047 q 546 1014 503 1047 q 589 921 589 981 q 562 833 589 865 q 465 792 535 801 l 465 725 l 374 725 m 221 -244 q 107 -226 156 -244 l 107 -135 q 151 -146 131 -143 q 192 -149 171 -149 q 266 -132 239 -149 q 314 -81 293 -115 q 360 7 335 -47 l 69 658 l 188 658 l 417 128 l 653 658 l 769 658 l 493 29 q 422 -112 458 -50 q 339 -209 386 -174 q 221 -244 292 -244 z "},"ỹ":{"ha":811,"x_min":69,"x_max":769,"o":"m 521 753 q 450 766 485 753 q 383 792 415 779 q 321 806 351 806 q 258 795 288 806 q 206 757 229 785 l 206 844 q 256 875 222 864 q 321 886 289 886 q 392 873 360 886 q 456 847 425 860 q 521 833 488 833 q 628 883 592 833 l 628 794 q 585 765 614 776 q 521 753 557 753 m 221 -244 q 107 -226 156 -244 l 107 -135 q 151 -146 131 -143 q 192 -149 171 -149 q 266 -132 239 -149 q 314 -81 293 -115 q 360 7 335 -47 l 69 658 l 188 658 l 417 128 l 653 658 l 769 658 l 493 29 q 422 -112 458 -50 q 339 -209 386 -174 q 221 -244 292 -244 z "},"z":{"ha":674,"x_min":69,"x_max":604,"o":"m 69 0 l 69 63 l 457 568 l 88 568 l 88 658 l 594 658 l 594 588 l 213 89 l 604 89 l 604 0 l 69 0 z "},"ź":{"ha":674,"x_min":69,"x_max":604,"o":"m 286 725 l 385 958 l 488 958 l 378 725 l 286 725 m 69 0 l 69 63 l 457 568 l 88 568 l 88 658 l 594 658 l 594 588 l 213 89 l 604 89 l 604 0 l 69 0 z "},"ž":{"ha":674,"x_min":69,"x_max":604,"o":"m 276 725 l 117 931 l 215 931 l 322 789 l 429 931 l 528 931 l 368 725 l 276 725 m 69 0 l 69 63 l 457 568 l 88 568 l 88 658 l 594 658 l 594 588 l 213 89 l 604 89 l 604 0 l 69 0 z "},"ż":{"ha":674,"x_min":69,"x_max":604,"o":"m 281 756 l 281 863 l 392 863 l 392 756 l 281 756 m 69 0 l 69 63 l 457 568 l 88 568 l 88 658 l 594 658 l 594 588 l 213 89 l 604 89 l 604 0 l 69 0 z "},"ẓ":{"ha":674,"x_min":69,"x_max":604,"o":"m 69 0 l 69 63 l 457 568 l 88 568 l 88 658 l 594 658 l 594 588 l 213 89 l 604 89 l 604 0 l 69 0 m 278 -228 l 278 -121 l 389 -121 l 389 -228 l 278 -228 z "},"ﬁ":{"ha":714,"x_min":42,"x_max":617,"o":"m 140 0 l 140 568 l 42 568 l 42 658 l 140 658 l 140 735 q 209 896 140 833 q 388 958 278 958 q 536 938 481 958 l 536 851 q 483 863 515 858 q 417 867 450 867 q 254 735 254 867 l 254 658 l 617 658 l 617 0 l 503 0 l 503 568 l 254 568 l 254 0 l 140 0 z "},"ﬂ":{"ha":714,"x_min":42,"x_max":617,"o":"m 140 0 l 140 568 l 42 568 l 42 658 l 140 658 l 140 735 q 209 896 140 833 q 388 958 278 958 q 536 938 481 958 l 617 938 l 617 0 l 503 0 l 503 568 l 254 568 l 254 0 l 140 0 m 254 658 l 503 658 l 503 853 q 463 863 482 860 q 417 867 443 867 q 254 735 254 867 l 254 658 z "},"ª":{"ha":482,"x_min":69,"x_max":413,"o":"m 201 528 q 108 553 147 528 q 69 636 69 579 q 215 756 69 756 l 336 756 l 336 772 q 317 829 336 813 q 232 846 297 846 q 117 826 172 846 l 117 888 q 176 903 142 897 q 249 908 211 908 q 369 876 325 908 q 413 774 413 844 l 413 536 l 344 536 l 339 576 q 281 540 313 551 q 201 528 249 528 m 222 585 q 336 638 294 585 l 336 700 l 226 700 q 162 687 181 700 q 143 639 143 674 q 164 597 143 608 q 222 585 185 585 z "},"º":{"ha":507,"x_min":69,"x_max":438,"o":"m 253 528 q 69 718 69 528 q 115 860 69 811 q 253 908 161 908 q 392 860 346 908 q 438 718 438 811 q 253 528 438 528 m 253 589 q 336 622 313 589 q 360 718 360 654 q 336 813 360 781 q 253 846 313 846 q 170 813 194 846 q 146 718 146 781 q 169 622 146 654 q 253 589 193 589 z "},"ⁿ":{"ha":503,"x_min":76,"x_max":433,"o":"m 76 536 l 76 900 l 149 900 l 151 860 q 215 894 181 882 q 297 907 250 907 q 397 875 360 907 q 433 776 433 843 l 433 536 l 357 536 l 357 760 q 339 827 357 808 q 269 846 321 846 q 206 832 236 846 q 154 797 175 818 l 154 536 l 76 536 z "},"Δ":{"ha":908,"x_min":69,"x_max":839,"o":"m 69 0 l 69 65 l 396 894 l 510 894 l 839 64 l 839 0 l 69 0 m 181 89 l 724 89 l 453 779 l 181 89 z "},"Ω":{"ha":1068,"x_min":69,"x_max":999,"o":"m 79 0 l 79 89 l 300 89 q 134 256 199 153 q 69 504 69 360 q 125 740 69 636 q 285 905 181 844 q 535 965 389 965 q 784 905 681 965 q 943 740 888 844 q 999 504 999 636 q 935 256 999 360 q 769 89 872 151 l 989 89 l 989 0 l 624 0 l 624 90 q 820 267 756 163 q 885 504 885 372 q 841 694 885 613 q 719 822 797 776 q 535 868 640 868 q 351 822 431 868 q 228 694 272 776 q 183 504 183 613 q 249 267 183 372 q 446 90 314 163 l 446 0 l 79 0 z "},"μ":{"ha":799,"x_min":97,"x_max":701,"o":"m 97 -199 l 97 658 l 211 658 l 211 238 q 252 117 211 156 q 379 78 293 78 q 494 100 440 78 q 588 161 549 122 l 588 658 l 701 658 l 701 0 l 599 0 l 592 75 q 479 11 544 36 q 336 -14 414 -14 q 267 -6 299 -14 q 211 17 235 3 l 211 -199 l 97 -199 z "},"π":{"ha":928,"x_min":56,"x_max":872,"o":"m 753 -14 q 613 42 661 -14 q 564 190 564 97 l 564 569 l 264 569 l 264 0 l 150 0 l 150 569 l 56 569 l 56 658 l 772 658 l 772 569 l 678 569 l 678 189 q 703 106 678 129 q 793 82 729 82 q 872 96 829 82 l 872 6 q 817 -9 846 -4 q 753 -14 789 -14 z "},"ก":{"ha":844,"x_min":69,"x_max":747,"o":"m 114 0 l 114 304 q 140 405 114 361 q 226 467 167 449 l 69 503 l 69 636 q 210 724 122 685 q 418 764 299 764 q 665 695 582 764 q 747 478 747 626 l 747 0 l 633 0 l 633 482 q 585 626 633 586 q 418 667 536 667 q 273 645 340 667 q 169 588 206 624 l 169 558 l 332 519 l 332 433 q 253 390 279 419 q 228 301 228 360 l 228 0 l 114 0 z "},"ข":{"ha":793,"x_min":69,"x_max":696,"o":"m 389 -14 q 163 56 242 -14 q 85 257 85 126 l 85 358 q 104 438 85 400 q 150 508 124 475 q 196 571 176 542 q 215 625 215 600 q 205 655 215 649 q 169 661 194 661 l 69 661 l 79 750 l 233 750 q 329 656 329 750 q 310 571 329 608 q 264 499 290 533 q 218 429 238 464 q 199 354 199 394 l 199 244 q 250 121 199 158 q 389 83 301 83 q 530 121 478 83 q 582 247 582 158 l 582 750 l 696 750 l 696 258 q 615 57 696 128 q 389 -14 533 -14 z "},"ฃ":{"ha":782,"x_min":69,"x_max":685,"o":"m 385 -14 q 162 53 238 -14 q 86 251 86 121 l 86 332 q 110 415 86 374 q 167 496 135 457 q 223 569 199 535 q 247 629 247 603 q 214 664 247 664 q 183 656 199 664 q 157 638 168 649 l 157 583 l 69 583 l 69 750 l 157 750 l 157 711 q 198 738 174 726 q 257 750 222 750 q 330 725 303 750 q 357 651 357 700 q 333 567 357 607 q 278 488 310 526 q 224 410 247 450 q 200 329 200 371 l 200 244 q 248 121 200 158 q 385 83 296 83 q 522 121 474 83 q 571 247 571 158 l 571 750 l 685 750 l 685 258 q 607 57 685 128 q 385 -14 529 -14 z "},"ค":{"ha":842,"x_min":97,"x_max":744,"o":"m 97 0 l 97 486 q 176 692 97 619 q 422 764 254 764 q 667 692 590 764 q 744 486 744 619 l 744 0 l 631 0 l 631 499 q 577 628 631 589 q 422 667 524 667 q 265 628 318 667 q 211 499 211 589 l 211 325 q 372 382 276 382 l 464 382 l 469 289 l 369 289 q 211 235 275 289 l 211 0 l 97 0 z "},"ฅ":{"ha":842,"x_min":97,"x_max":744,"o":"m 97 0 l 97 561 q 144 715 97 667 q 272 764 192 764 q 356 747 317 764 q 422 690 394 729 q 494 747 450 729 q 581 764 538 764 q 710 715 675 764 q 744 560 744 667 l 744 0 l 631 0 l 631 575 q 618 641 631 615 q 563 667 606 667 q 503 650 529 667 q 456 601 476 633 l 386 601 q 351 649 371 632 q 300 667 331 667 q 232 641 253 667 q 211 574 211 615 l 211 325 q 372 382 276 382 l 464 382 l 469 289 l 369 289 q 211 235 275 289 l 211 0 l 97 0 z "},"ฆ":{"ha":818,"x_min":69,"x_max":721,"o":"m 468 -14 q 313 15 376 -14 q 196 90 249 43 l 189 0 l 86 0 l 86 314 q 110 400 86 356 q 167 487 135 444 q 223 566 199 529 q 247 629 247 603 q 214 664 247 664 q 183 656 199 664 q 157 638 168 649 l 157 583 l 69 583 l 69 750 l 157 750 l 157 711 q 198 738 174 726 q 257 750 222 750 q 330 725 303 750 q 357 651 357 700 q 333 564 357 607 q 278 479 310 521 q 224 395 247 438 q 200 311 200 353 l 200 186 q 301 113 243 142 q 431 83 358 83 q 564 124 521 83 q 607 257 607 164 l 607 750 l 721 750 l 721 256 q 654 56 721 125 q 468 -14 588 -14 z "},"ง":{"ha":765,"x_min":35,"x_max":696,"o":"m 368 -14 q 306 -11 342 -14 q 246 1 271 -8 l 35 515 l 146 515 l 324 83 q 519 151 456 74 q 582 400 582 229 q 564 553 582 497 q 503 633 546 610 q 385 657 461 657 l 336 657 l 336 750 l 397 750 q 626 665 557 750 q 696 401 696 579 q 652 163 696 254 q 535 28 608 71 q 368 -14 461 -14 z "},"จ":{"ha":790,"x_min":69,"x_max":721,"o":"m 381 -14 q 326 -10 357 -14 q 275 1 294 -6 l 158 313 l 69 313 l 75 406 l 232 406 l 353 83 q 476 105 418 78 q 571 200 535 132 q 607 383 607 268 q 579 550 607 488 q 489 640 551 613 q 319 667 426 667 q 202 658 264 667 q 83 631 140 650 l 83 725 q 205 753 136 743 q 350 764 274 764 q 632 665 543 764 q 721 383 721 567 q 674 165 721 253 q 549 31 626 76 q 381 -14 472 -14 z "},"ฉ":{"ha":799,"x_min":69,"x_max":701,"o":"m 318 -14 q 79 247 79 -14 l 79 417 l 193 417 l 193 247 q 207 151 193 188 q 256 99 221 115 q 358 83 292 83 q 486 111 428 83 q 588 186 544 139 l 588 475 q 565 590 588 549 q 487 649 542 632 q 338 667 432 667 q 203 656 279 667 q 69 625 126 644 l 69 719 q 207 751 126 739 q 367 764 288 764 q 620 693 539 764 q 701 474 701 622 l 701 0 l 599 0 l 592 90 q 477 15 542 44 q 318 -14 413 -14 z "},"ช":{"ha":793,"x_min":69,"x_max":696,"o":"m 389 -14 q 163 56 242 -14 q 85 257 85 126 l 85 358 q 104 438 85 400 q 150 508 124 475 q 196 571 176 542 q 215 625 215 600 q 205 655 215 649 q 169 661 194 661 l 69 661 l 79 750 l 233 750 q 329 656 329 750 q 310 571 329 608 q 264 499 290 533 q 218 429 238 464 q 199 354 199 394 l 199 244 q 250 121 199 158 q 389 83 301 83 q 530 121 478 83 q 582 247 582 158 l 582 343 q 557 449 582 421 q 465 478 532 478 l 426 478 l 432 568 l 463 568 q 558 601 533 568 q 582 703 582 635 l 582 764 l 696 764 l 696 704 q 676 591 696 636 q 593 524 657 546 q 678 453 661 499 q 696 340 696 407 l 696 258 q 615 57 696 128 q 389 -14 533 -14 z "},"ซ":{"ha":794,"x_min":69,"x_max":697,"o":"m 390 -14 q 165 56 243 -14 q 86 257 86 126 l 86 332 q 110 415 86 374 q 167 496 135 457 q 223 569 199 535 q 247 629 247 603 q 214 664 247 664 q 183 656 199 664 q 157 638 168 649 l 157 583 l 69 583 l 69 750 l 157 750 l 157 711 q 198 738 174 726 q 257 750 222 750 q 330 725 303 750 q 357 651 357 700 q 333 567 357 607 q 278 488 310 526 q 224 410 247 450 q 200 329 200 371 l 200 244 q 251 121 200 158 q 390 83 303 83 q 531 121 479 83 q 583 247 583 158 l 583 343 q 558 449 583 421 q 467 478 533 478 l 428 478 l 433 568 l 464 568 q 559 601 535 568 q 583 703 583 635 l 583 764 l 697 764 l 697 704 q 678 591 697 636 q 594 524 658 546 q 680 453 663 499 q 697 340 697 407 l 697 258 q 616 57 697 128 q 390 -14 535 -14 z "},"ฌ":{"ha":1331,"x_min":69,"x_max":1233,"o":"m 989 -14 q 839 15 900 -14 q 725 90 778 43 l 718 0 l 617 0 l 617 482 q 571 626 617 586 q 410 667 525 667 q 270 645 335 667 q 169 588 206 624 l 169 558 l 332 519 l 332 433 q 253 390 279 419 q 228 301 228 360 l 228 161 q 293 93 228 93 l 372 93 l 372 0 l 242 0 q 148 37 182 0 q 114 133 114 74 l 114 304 q 140 405 114 361 q 226 467 167 449 l 69 503 l 69 636 q 208 724 122 685 q 410 764 293 764 q 650 695 571 764 q 729 478 729 626 l 729 186 q 828 113 772 142 q 951 83 883 83 q 1078 124 1038 83 q 1119 257 1119 164 l 1119 750 l 1233 750 l 1233 256 q 1169 56 1233 125 q 989 -14 1106 -14 z "},"ญ":{"ha":1343,"x_min":69,"x_max":1246,"o":"m 932 -69 q 787 -56 860 -69 q 660 -11 714 -42 l 660 88 q 794 42 717 57 q 932 28 871 28 q 1090 53 1040 28 q 1140 119 1140 79 q 1137 148 1140 135 q 1124 174 1133 161 q 1039 138 1086 151 q 931 125 992 125 q 617 422 617 125 l 617 482 q 571 626 617 586 q 410 667 525 667 q 270 645 335 667 q 169 588 206 624 l 169 558 l 332 519 l 332 433 q 253 390 279 419 q 228 301 228 360 l 228 161 q 293 93 228 93 l 372 93 l 372 0 l 242 0 q 148 37 182 0 q 114 133 114 74 l 114 304 q 140 405 114 361 q 226 467 167 449 l 69 503 l 69 636 q 208 724 122 685 q 410 764 293 764 q 650 695 571 764 q 729 478 729 626 l 729 414 q 778 267 729 313 q 931 222 826 222 q 1083 267 1035 222 q 1132 414 1132 313 l 1132 750 l 1246 750 l 1246 422 q 1233 321 1246 364 q 1197 243 1221 278 q 1246 119 1246 197 q 932 -69 1246 -69 z "},"ฎ":{"ha":892,"x_min":69,"x_max":794,"o":"m 240 -272 l 240 -175 q 351 -135 293 -149 q 475 -122 408 -122 q 592 -135 539 -122 q 681 -168 644 -147 l 681 482 q 632 626 681 586 q 465 667 583 667 q 320 645 388 667 q 217 588 253 624 l 217 558 l 388 519 l 388 433 q 317 390 336 418 q 299 301 299 363 l 299 153 q 156 0 299 0 l 69 0 l 69 93 l 125 93 q 185 160 185 93 l 185 304 q 204 404 185 361 q 282 467 224 447 l 117 503 l 117 636 q 258 724 169 685 q 465 764 346 764 q 712 695 629 764 q 794 478 794 626 l 794 -269 l 682 -269 q 585 -232 635 -244 q 468 -219 535 -219 q 240 -272 349 -219 z "},"ฏ":{"ha":892,"x_min":69,"x_max":794,"o":"m 607 -271 q 519 -253 558 -271 q 460 -208 479 -235 q 415 -252 446 -235 q 333 -269 383 -269 l 208 -269 l 215 -169 l 311 -169 q 376 -156 351 -169 q 418 -110 400 -143 l 496 -110 q 534 -157 511 -140 q 596 -174 557 -174 q 663 -150 644 -174 q 681 -75 681 -126 l 681 482 q 632 626 681 586 q 465 667 583 667 q 320 645 388 667 q 217 588 253 624 l 217 558 l 388 519 l 388 433 q 317 390 336 418 q 299 301 299 363 l 299 153 q 156 0 299 0 l 69 0 l 69 93 l 125 93 q 185 160 185 93 l 185 304 q 204 404 185 361 q 282 467 224 447 l 117 503 l 117 636 q 258 724 169 685 q 465 764 346 764 q 712 695 629 764 q 794 478 794 626 l 794 -89 q 744 -224 794 -178 q 607 -271 694 -271 z "},"ฐ":{"ha":850,"x_min":69,"x_max":781,"o":"m 381 -14 q 326 -10 357 -14 q 275 1 294 -6 l 158 313 l 69 313 l 75 406 l 232 406 l 353 83 q 476 105 418 78 q 571 200 535 132 q 607 383 607 268 q 579 550 607 488 q 489 640 551 613 q 319 667 426 667 q 202 658 264 667 q 83 631 140 650 l 83 725 q 205 753 136 743 q 350 764 274 764 q 418 760 386 764 q 478 750 450 757 l 781 750 l 775 657 l 633 657 q 701 538 682 606 q 721 383 721 471 q 674 165 721 253 q 549 31 626 76 q 381 -14 472 -14 m 507 -271 q 419 -253 458 -271 q 360 -208 379 -235 q 315 -252 346 -235 q 233 -269 283 -269 l 108 -269 l 115 -169 l 211 -169 q 276 -156 251 -169 q 318 -110 300 -143 l 396 -110 q 434 -157 411 -140 q 496 -174 457 -174 q 563 -151 544 -174 q 581 -89 581 -129 l 581 -56 l 694 -56 l 694 -103 q 644 -226 694 -181 q 507 -271 594 -271 z "},"ฑ":{"ha":826,"x_min":69,"x_max":729,"o":"m 124 0 l 124 319 q 142 403 124 361 q 186 486 161 446 q 230 563 211 526 q 249 628 249 599 q 215 664 249 664 q 183 656 199 664 q 157 638 168 649 l 157 583 l 69 583 l 69 750 l 157 750 l 157 711 q 198 738 174 726 q 257 750 222 750 q 336 708 314 750 q 415 749 371 733 q 508 764 458 764 q 678 700 628 764 q 729 506 729 636 l 729 0 l 615 0 l 615 507 q 588 630 615 593 q 478 667 561 667 q 410 653 446 667 q 350 618 374 640 q 333 544 350 581 q 294 472 317 508 q 254 397 271 436 q 238 313 238 357 l 238 0 l 124 0 z "},"ฒ":{"ha":1374,"x_min":69,"x_max":1276,"o":"m 369 -14 q 215 26 283 -14 q 108 151 147 67 q 69 368 69 235 q 129 661 69 558 q 297 764 189 764 q 386 744 353 764 q 446 690 419 725 q 520 744 476 725 q 611 764 564 764 q 733 716 693 764 q 772 578 772 668 l 772 186 q 871 113 815 142 q 994 83 926 83 q 1122 124 1081 83 q 1163 257 1163 164 l 1163 750 l 1276 750 l 1276 256 q 1213 56 1276 125 q 1032 -14 1149 -14 q 882 15 943 -14 q 768 90 821 43 l 761 0 l 660 0 l 660 563 q 644 644 660 621 q 579 667 628 667 q 524 652 549 667 q 483 601 499 638 l 407 601 q 368 652 388 638 q 311 667 349 667 q 210 585 236 667 q 183 368 183 504 q 235 147 183 210 q 389 83 288 83 q 441 86 415 83 q 485 94 467 89 l 485 0 q 369 -14 439 -14 z "},"ณ":{"ha":1331,"x_min":69,"x_max":1233,"o":"m 860 -14 q 680 56 743 -14 q 617 256 617 125 l 617 482 q 571 626 617 586 q 410 667 525 667 q 270 645 335 667 q 169 588 206 624 l 169 558 l 332 519 l 332 433 q 253 390 279 419 q 228 301 228 360 l 228 161 q 293 93 228 93 l 372 93 l 372 0 l 242 0 q 148 37 182 0 q 114 133 114 74 l 114 304 q 140 405 114 361 q 226 467 167 449 l 69 503 l 69 636 q 208 724 122 685 q 410 764 293 764 q 650 695 571 764 q 729 478 729 626 l 729 257 q 770 124 729 164 q 897 83 811 83 q 1022 113 967 83 q 1119 186 1076 142 l 1119 750 l 1233 750 l 1233 0 l 1131 0 l 1124 90 q 1010 15 1072 43 q 860 -14 949 -14 z "},"ด":{"ha":885,"x_min":69,"x_max":788,"o":"m 369 -14 q 215 26 283 -14 q 108 151 147 67 q 69 368 69 235 q 161 658 69 551 q 444 764 253 764 q 642 722 567 764 q 753 611 718 679 q 788 465 788 543 l 788 0 l 674 0 l 674 464 q 651 568 674 522 q 578 640 629 614 q 442 667 528 667 q 243 589 303 667 q 183 368 183 511 q 235 147 183 210 q 389 83 288 83 q 441 86 415 83 q 485 94 467 89 l 485 0 q 369 -14 439 -14 z "},"ต":{"ha":885,"x_min":69,"x_max":788,"o":"m 369 -14 q 215 26 283 -14 q 108 151 147 67 q 69 368 69 235 q 130 661 69 558 q 303 764 190 764 q 393 744 358 764 q 454 690 428 725 q 530 744 485 725 q 622 764 575 764 q 746 716 704 764 q 788 578 788 668 l 788 0 l 674 0 l 674 563 q 656 644 674 621 q 590 667 639 667 q 533 652 560 667 q 492 601 507 638 l 415 601 q 375 652 396 638 q 317 667 354 667 q 210 585 238 667 q 183 368 183 504 q 235 147 183 210 q 389 83 288 83 q 441 86 415 83 q 485 94 467 89 l 485 0 q 369 -14 439 -14 z "},"ถ":{"ha":844,"x_min":69,"x_max":747,"o":"m 242 0 q 148 37 182 0 q 114 133 114 74 l 114 304 q 140 405 114 361 q 226 467 167 449 l 69 503 l 69 636 q 210 724 122 685 q 418 764 299 764 q 665 695 582 764 q 747 478 747 626 l 747 0 l 633 0 l 633 482 q 585 626 633 586 q 418 667 536 667 q 273 645 340 667 q 169 588 206 624 l 169 558 l 332 519 l 332 433 q 253 390 279 419 q 228 301 228 360 l 228 161 q 293 93 228 93 l 372 93 l 372 0 l 242 0 z "},"ท":{"ha":829,"x_min":97,"x_max":732,"o":"m 97 0 l 97 750 l 200 750 l 207 660 q 326 735 260 707 q 482 764 392 764 q 667 694 601 764 q 732 496 732 625 l 732 0 l 618 0 l 618 494 q 575 626 618 586 q 442 667 532 667 q 312 637 369 667 q 211 563 254 607 l 211 0 l 97 0 z "},"ธ":{"ha":738,"x_min":69,"x_max":668,"o":"m 374 -14 q 210 2 286 -14 q 83 39 135 18 l 83 324 l 189 324 l 189 113 q 365 83 268 83 q 506 111 457 83 q 554 215 554 139 q 529 306 554 276 q 453 352 504 336 q 324 385 401 368 q 203 417 261 399 q 107 473 144 436 q 69 578 69 510 q 151 720 69 676 q 379 764 233 764 q 519 753 449 764 q 631 728 590 743 l 631 628 q 520 656 585 644 q 394 667 456 667 q 287 661 336 667 q 208 638 238 656 q 178 581 178 619 q 209 519 178 539 q 294 488 240 500 q 419 458 349 476 q 547 416 492 440 q 635 346 603 392 q 668 215 668 300 q 588 42 668 97 q 374 -14 507 -14 z "},"น":{"ha":829,"x_min":97,"x_max":732,"o":"m 347 -14 q 162 56 226 -14 q 97 256 97 125 l 97 750 l 211 750 l 211 257 q 253 124 211 164 q 385 83 294 83 q 515 113 456 83 q 618 186 575 142 l 618 750 l 732 750 l 732 0 l 629 0 l 622 90 q 504 15 571 43 q 347 -14 438 -14 z "},"บ":{"ha":853,"x_min":97,"x_max":756,"o":"m 426 -14 q 183 61 268 -14 q 97 283 97 136 l 97 750 l 211 750 l 211 275 q 267 128 211 174 q 426 83 322 83 q 586 128 531 83 q 642 275 642 174 l 642 750 l 756 750 l 756 283 q 670 61 756 136 q 426 -14 585 -14 z "},"ป":{"ha":853,"x_min":97,"x_max":756,"o":"m 426 -14 q 183 61 268 -14 q 97 283 97 136 l 97 750 l 211 750 l 211 275 q 267 128 211 174 q 426 83 322 83 q 586 128 531 83 q 642 275 642 174 l 642 972 l 756 972 l 756 283 q 670 61 756 136 q 426 -14 585 -14 z "},"ผ":{"ha":892,"x_min":97,"x_max":794,"o":"m 97 0 l 97 613 q 133 710 97 671 q 229 750 169 750 l 349 750 l 353 656 l 279 656 q 226 639 242 656 q 210 582 210 622 l 210 158 l 419 521 l 474 521 l 683 158 l 683 750 l 794 750 l 794 0 l 678 0 l 447 404 l 214 0 l 97 0 z "},"ฝ":{"ha":892,"x_min":97,"x_max":794,"o":"m 97 0 l 97 613 q 133 710 97 671 q 229 750 169 750 l 349 750 l 353 656 l 279 656 q 226 639 242 656 q 210 582 210 622 l 210 158 l 419 521 l 474 521 l 683 158 l 683 972 l 794 972 l 794 0 l 678 0 l 447 404 l 214 0 l 97 0 z "},"พ":{"ha":1001,"x_min":56,"x_max":946,"o":"m 228 0 l 56 750 l 172 750 l 296 160 l 454 656 l 454 750 l 539 750 l 708 160 l 831 750 l 946 750 l 775 0 l 661 0 l 507 528 l 340 0 l 228 0 z "},"ฟ":{"ha":1001,"x_min":56,"x_max":994,"o":"m 228 0 l 56 750 l 172 750 l 296 160 l 454 656 l 454 750 l 539 750 l 708 160 l 879 972 l 994 972 l 775 0 l 661 0 l 507 528 l 340 0 l 228 0 z "},"ภ":{"ha":892,"x_min":69,"x_max":794,"o":"m 69 0 l 69 93 l 125 93 q 185 160 185 93 l 185 304 q 204 404 185 361 q 282 467 224 447 l 117 503 l 117 636 q 258 724 169 685 q 465 764 346 764 q 712 695 629 764 q 794 478 794 626 l 794 0 l 681 0 l 681 482 q 632 626 681 586 q 465 667 583 667 q 320 645 388 667 q 217 588 253 624 l 217 558 l 388 519 l 388 433 q 317 390 336 418 q 299 301 299 363 l 299 153 q 156 0 299 0 l 69 0 z "},"ม":{"ha":829,"x_min":97,"x_max":732,"o":"m 479 -14 q 324 15 388 -14 q 207 90 260 43 l 200 0 l 97 0 l 97 750 l 211 750 l 211 186 q 312 113 254 142 q 442 83 369 83 q 575 124 532 83 q 618 257 618 164 l 618 750 l 732 750 l 732 256 q 665 56 732 125 q 479 -14 599 -14 z "},"ย":{"ha":821,"x_min":69,"x_max":724,"o":"m 400 -14 q 159 41 249 -14 q 69 214 69 96 q 99 324 69 279 q 183 392 129 369 q 105 447 136 407 q 74 554 74 488 q 136 712 74 660 q 296 764 199 764 q 361 760 333 764 q 411 749 389 756 l 411 654 q 368 664 393 661 q 317 667 343 667 q 222 640 256 667 q 188 554 188 613 q 228 465 188 493 q 333 436 268 436 l 413 436 l 419 350 l 329 350 q 219 315 256 350 q 183 214 183 279 q 396 83 183 83 q 556 124 503 83 q 610 256 610 165 l 610 750 l 724 750 l 724 275 q 646 60 724 135 q 400 -14 568 -14 z "},"ร":{"ha":701,"x_min":69,"x_max":632,"o":"m 335 -14 q 199 -5 265 -14 q 89 22 133 4 l 89 124 q 201 93 142 103 q 315 83 261 83 q 467 103 417 83 q 518 192 518 124 q 492 265 518 240 q 419 305 467 289 q 306 343 372 321 q 190 390 244 364 q 103 456 136 415 q 69 561 69 496 q 142 712 69 660 q 360 764 215 764 q 481 754 421 764 q 581 731 540 744 l 581 631 q 481 658 535 649 q 376 667 428 667 q 233 647 282 667 q 183 564 183 626 q 209 499 183 524 q 283 458 235 475 q 399 418 331 440 q 519 369 467 396 q 602 301 572 342 q 632 193 632 260 q 550 33 632 81 q 335 -14 468 -14 z "},"ฤ":{"ha":844,"x_min":69,"x_max":747,"o":"m 633 -222 l 633 482 q 585 626 633 586 q 418 667 536 667 q 273 645 340 667 q 169 588 206 624 l 169 558 l 332 519 l 332 433 q 253 390 279 419 q 228 301 228 360 l 228 161 q 293 93 228 93 l 372 93 l 372 0 l 242 0 q 148 37 182 0 q 114 133 114 74 l 114 304 q 140 405 114 361 q 226 467 167 449 l 69 503 l 69 636 q 210 724 122 685 q 418 764 299 764 q 665 695 582 764 q 747 478 747 626 l 747 -222 l 633 -222 z "},"ล":{"ha":814,"x_min":69,"x_max":717,"o":"m 319 -14 q 192 9 249 -14 q 103 81 136 32 q 69 210 69 131 q 140 377 69 315 q 357 439 211 439 l 603 439 l 603 497 q 584 598 603 561 q 519 651 565 635 q 392 667 474 667 q 269 658 329 667 q 151 631 208 650 l 151 725 q 273 753 204 743 q 413 764 342 764 q 644 698 571 764 q 717 489 717 632 l 717 0 l 603 0 l 603 344 l 364 344 q 225 313 269 344 q 181 210 181 282 q 221 111 181 139 q 350 83 261 83 q 444 94 404 83 l 444 0 q 389 -10 421 -6 q 319 -14 357 -14 z "},"ฦ":{"ha":892,"x_min":69,"x_max":794,"o":"m 681 -222 l 681 482 q 632 626 681 586 q 465 667 583 667 q 320 645 388 667 q 217 588 253 624 l 217 558 l 388 519 l 388 433 q 317 390 336 418 q 299 301 299 363 l 299 153 q 156 0 299 0 l 69 0 l 69 93 l 125 93 q 185 160 185 93 l 185 304 q 204 404 185 361 q 282 467 224 447 l 117 503 l 117 636 q 258 724 169 685 q 465 764 346 764 q 712 695 629 764 q 794 478 794 626 l 794 -222 l 681 -222 z "},"ว":{"ha":700,"x_min":69,"x_max":631,"o":"m 279 -14 q 69 25 160 -14 l 69 121 q 158 94 110 104 q 253 83 206 83 q 413 113 356 83 q 493 207 469 143 q 517 375 517 271 q 456 599 517 531 q 249 667 394 667 q 156 657 200 667 q 69 628 111 647 l 69 725 q 160 754 113 744 q 272 764 208 764 q 542 665 454 764 q 631 375 631 567 q 550 88 631 189 q 279 -14 469 -14 z "},"ศ":{"ha":869,"x_min":97,"x_max":814,"o":"m 97 0 l 97 486 q 176 692 97 619 q 422 764 254 764 q 490 760 458 764 q 550 750 522 757 l 814 750 l 808 657 l 693 657 q 733 581 721 624 q 744 486 744 539 l 744 0 l 631 0 l 631 499 q 577 628 631 589 q 422 667 524 667 q 265 628 318 667 q 211 499 211 589 l 211 325 q 372 382 276 382 l 464 382 l 469 289 l 369 289 q 211 235 275 289 l 211 0 l 97 0 z "},"ษ":{"ha":876,"x_min":97,"x_max":842,"o":"m 426 -14 q 183 61 268 -14 q 97 283 97 136 l 97 750 l 211 750 l 211 275 q 267 128 211 174 q 426 83 322 83 q 586 128 531 83 q 642 275 642 174 l 642 386 l 443 386 l 443 479 l 642 479 l 642 750 l 756 750 l 756 479 l 842 479 l 832 386 l 756 386 l 756 283 q 670 61 756 136 q 426 -14 585 -14 z "},"ส":{"ha":821,"x_min":69,"x_max":779,"o":"m 319 -14 q 192 9 249 -14 q 103 81 136 32 q 69 210 69 131 q 140 377 69 315 q 357 439 211 439 l 603 439 l 603 497 q 584 598 603 561 q 519 651 565 635 q 392 667 474 667 q 269 658 329 667 q 151 631 208 650 l 151 725 q 273 753 204 743 q 413 764 342 764 q 481 760 449 764 q 540 750 513 757 l 779 750 l 774 657 l 674 657 q 707 583 697 625 q 717 489 717 542 l 717 0 l 603 0 l 603 344 l 364 344 q 225 313 269 344 q 181 210 181 282 q 221 111 181 139 q 350 83 261 83 q 444 94 404 83 l 444 0 q 389 -10 421 -6 q 319 -14 357 -14 z "},"ห":{"ha":824,"x_min":97,"x_max":735,"o":"m 97 0 l 97 750 l 211 750 l 211 507 l 460 507 q 586 546 551 507 q 621 658 621 585 l 621 750 l 735 750 l 735 660 q 708 536 735 589 q 615 463 682 483 q 706 390 685 440 q 726 274 726 340 l 726 0 l 613 0 l 613 260 q 578 381 613 349 q 453 414 544 414 l 211 414 l 211 0 l 97 0 z "},"ฬ":{"ha":1001,"x_min":56,"x_max":994,"o":"m 228 0 l 56 750 l 172 750 l 300 160 l 454 600 l 454 694 l 539 694 l 704 160 l 806 617 q 804 713 821 686 q 735 739 788 739 l 679 739 l 693 829 l 751 829 q 834 848 808 829 q 871 917 860 867 l 883 972 l 994 972 l 979 904 q 939 816 965 844 q 871 779 913 788 q 915 624 943 744 l 775 0 l 661 0 l 507 479 l 340 0 l 228 0 z "},"อ":{"ha":783,"x_min":69,"x_max":714,"o":"m 357 -14 q 196 2 271 -14 q 69 39 121 18 l 69 417 l 344 417 l 350 324 l 183 324 l 183 111 q 265 91 219 99 q 354 83 310 83 q 498 111 444 83 q 576 203 551 139 q 600 374 600 267 q 574 549 600 485 q 488 640 549 613 q 324 667 428 667 q 201 658 264 667 q 81 631 138 650 l 81 725 q 208 754 136 744 q 353 764 279 764 q 629 666 544 764 q 714 374 714 568 q 629 85 714 183 q 357 -14 544 -14 z "},"ฮ":{"ha":828,"x_min":69,"x_max":758,"o":"m 357 -14 q 196 2 271 -14 q 69 39 121 18 l 69 417 l 344 417 l 350 324 l 183 324 l 183 111 q 265 91 219 99 q 354 83 310 83 q 498 111 444 83 q 576 203 551 139 q 600 374 600 267 q 574 549 600 485 q 488 640 549 613 q 324 667 428 667 q 201 658 264 667 q 81 631 138 650 l 81 725 q 208 754 136 744 q 353 764 279 764 q 421 760 389 764 q 481 750 453 757 l 758 750 l 753 657 l 632 657 q 694 538 675 608 q 714 374 714 467 q 629 85 714 183 q 357 -14 544 -14 z "},"ะ":{"ha":453,"x_min":69,"x_max":383,"o":"m 69 472 l 69 628 l 168 628 l 168 560 l 383 560 l 379 472 l 69 472 m 69 89 l 69 244 l 168 244 l 168 175 l 383 175 l 379 89 l 69 89 z "},"า":{"ha":610,"x_min":28,"x_max":513,"o":"m 399 0 l 399 485 q 386 588 399 547 q 335 647 374 628 q 219 667 297 667 q 123 657 175 667 q 28 631 71 647 l 28 725 q 126 753 69 742 q 240 764 183 764 q 448 701 383 764 q 513 497 513 638 l 513 0 l 399 0 z "}}}
